<?xml version="1.0" encoding="UTF-8"?><svg xmlns:svg="http://www.w3.org/2000/svg" xmlns="http://www.w3.org/2000/svg" xmlns:xlink="http://www.w3.org/1999/xlink" version="2.0" width="1200" height="2980" ><style >
svg {
  font-family: Helvetica, Arial, sans-serif;
  font-size: 11px;
}
rect {
  stroke-linecap: butt;
  stroke-width: 3;
  stroke: #fff;
/*  stroke-opacity: 1; */
}
rect:hover {
  stroke: #fff;
/*  stroke-opacity: 1; /*
}
polygon { fill: #000; }</style><defs ><polygon id="ahead" points="0 0, -12 4, -12 -4" /><filter id="glow" x="0" y="0" ><feGaussianBlur in="SourceAlpha" stdDeviation="2" result="blurred" /><feFlood flood-color="#fff" /><feComposite operator="in" in2="blurred" /><feComponentTransfer ><feFuncA type="linear" slope="10" intercept="0" /></feComponentTransfer><feMerge ><feMergeNode /><feMergeNode in="SourceGraphic" /></feMerge></filter></defs><g ><text x="100.0" y="20.0" text-anchor="middle" alignment-baseline="middle" fill="#000" >c4</text><text x="100.0" y="1020.0" text-anchor="middle" alignment-baseline="middle" fill="#aaa" >c4</text><text x="100.0" y="2020.0" text-anchor="middle" alignment-baseline="middle" fill="#aaa" >c4</text><text x="300.0" y="20.0" text-anchor="middle" alignment-baseline="middle" fill="#000" >c5</text><text x="300.0" y="1020.0" text-anchor="middle" alignment-baseline="middle" fill="#aaa" >c5</text><text x="300.0" y="2020.0" text-anchor="middle" alignment-baseline="middle" fill="#aaa" >c5</text><text x="500.0" y="20.0" text-anchor="middle" alignment-baseline="middle" fill="#000" >c6</text><text x="500.0" y="1020.0" text-anchor="middle" alignment-baseline="middle" fill="#aaa" >c6</text><text x="500.0" y="2020.0" text-anchor="middle" alignment-baseline="middle" fill="#aaa" >c6</text><text x="700.0" y="20.0" text-anchor="middle" alignment-baseline="middle" fill="#000" >c7</text><text x="700.0" y="1020.0" text-anchor="middle" alignment-baseline="middle" fill="#aaa" >c7</text><text x="700.0" y="2020.0" text-anchor="middle" alignment-baseline="middle" fill="#aaa" >c7</text><text x="900.0" y="20.0" text-anchor="middle" alignment-baseline="middle" fill="#000" >n0</text><text x="900.0" y="1020.0" text-anchor="middle" alignment-baseline="middle" fill="#aaa" >n0</text><text x="900.0" y="2020.0" text-anchor="middle" alignment-baseline="middle" fill="#aaa" >n0</text><text x="1100.0" y="20.0" text-anchor="middle" alignment-baseline="middle" fill="#000" >n1</text><text x="1100.0" y="1020.0" text-anchor="middle" alignment-baseline="middle" fill="#aaa" >n1</text><text x="1100.0" y="2020.0" text-anchor="middle" alignment-baseline="middle" fill="#aaa" >n1</text></g><g ><line stroke="#ccc" x1="100.0" y1="30.0" x2="100.0" y2="2890.0" /><line stroke="#ccc" x1="300.0" y1="30.0" x2="300.0" y2="2890.0" /><line stroke="#ccc" x1="500.0" y1="30.0" x2="500.0" y2="2890.0" /><line stroke="#ccc" x1="700.0" y1="30.0" x2="700.0" y2="2890.0" /><line stroke="#ccc" x1="900.0" y1="30.0" x2="900.0" y2="2890.0" /><line stroke="#ccc" x1="1100.0" y1="30.0" x2="1100.0" y2="2890.0" /></g><g ><g transform="translate(100.0 50.0) rotate(1.1457628381751035) " ><rect x="0" y="-2.5" height="5" width="996.199980003999" fill="#81BFFC" ><title >c4 → n1 {:type "lock", :msg_id 1}</title></rect><use xlink:href="#ahead" x="1000.199980003999" y="0" /><text text-anchor="middle" x="500.0999900019995" y="-4" transform="" filter="url(#glow)" style="fill: #fff" >lock {}</text><text text-anchor="middle" x="500.0999900019995" y="-4" transform="" >lock {}</text></g><g transform="translate(1100.0 90.0) rotate(174.28940686250036) " ><rect x="0" y="-2.5" height="5" width="196.9975124224178" fill="#000" ><title >n1 → n0 {:msg_id 2, :type "request_lock", :timestamp 1, :client "c4"}</title></rect><use xlink:href="#ahead" x="200.9975124224178" y="0" /><text text-anchor="middle" x="100.4987562112089" y="-4" transform="rotate(180 100.4987562112089 0)" filter="url(#glow)" style="fill: #fff" >request_lock {:timestamp 1, :client "c4"}</text><text text-anchor="middle" x="100.4987562112089" y="-4" transform="rotate(180 100.4987562112089 0)" >request_lock {:timestamp 1, :client "c4"}</text></g><g transform="translate(900.0 130.0) rotate(5.710593137499643) " ><rect x="0" y="-2.5" height="5" width="196.9975124224178" fill="#000" ><title >n0 → n1 {:msg_id 2, :in_reply_to 2, :type "ack", :timestamp 1}</title></rect><use xlink:href="#ahead" x="200.9975124224178" y="0" /><text text-anchor="middle" x="100.4987562112089" y="-4" transform="" filter="url(#glow)" style="fill: #fff" >ack {:timestamp 1}</text><text text-anchor="middle" x="100.4987562112089" y="-4" transform="" >ack {:timestamp 1}</text></g><g transform="translate(1100.0 170.0) rotate(178.8542371618249) " ><rect x="0" y="-2.5" height="5" width="996.199980003999" fill="#81BFFC" ><title >n1 → c4 {:msg_id 3, :in_reply_to 1, :type "lock_ok"}</title></rect><use xlink:href="#ahead" x="1000.199980003999" y="0" /><text text-anchor="middle" x="500.0999900019995" y="-4" transform="rotate(180 500.0999900019995 0)" filter="url(#glow)" style="fill: #fff" >lock_ok {}</text><text text-anchor="middle" x="500.0999900019995" y="-4" transform="rotate(180 500.0999900019995 0)" >lock_ok {}</text></g><g transform="translate(300.0 210.0) rotate(1.4320961841646465) " ><rect x="0" y="-2.5" height="5" width="796.2499609497023" fill="#81BFFC" ><title >c5 → n1 {:type "lock", :msg_id 1}</title></rect><use xlink:href="#ahead" x="800.2499609497023" y="0" /><text text-anchor="middle" x="400.12498047485116" y="-4" transform="" filter="url(#glow)" style="fill: #fff" >lock {}</text><text text-anchor="middle" x="400.12498047485116" y="-4" transform="" >lock {}</text></g><g transform="translate(100.0 250.0) rotate(1.1457628381751035) " ><rect x="0" y="-2.5" height="5" width="996.199980003999" fill="#81BFFC" ><title >c4 → n1 {:type "unlock", :msg_id 2}</title></rect><use xlink:href="#ahead" x="1000.199980003999" y="0" /><text text-anchor="middle" x="500.0999900019995" y="-4" transform="" filter="url(#glow)" style="fill: #fff" >unlock {}</text><text text-anchor="middle" x="500.0999900019995" y="-4" transform="" >unlock {}</text></g><g transform="translate(1100.0 290.0) rotate(174.28940686250036) " ><rect x="0" y="-2.5" height="5" width="196.9975124224178" fill="#000" ><title >n1 → n0 {:msg_id 4, :type "release_lock", :timestamp 4}</title></rect><use xlink:href="#ahead" x="200.9975124224178" y="0" /><text text-anchor="middle" x="100.4987562112089" y="-4" transform="rotate(180 100.4987562112089 0)" filter="url(#glow)" style="fill: #fff" >release_lock {:timestamp 4}</text><text text-anchor="middle" x="100.4987562112089" y="-4" transform="rotate(180 100.4987562112089 0)" >release_lock {:timestamp 4}</text></g><g transform="translate(1100.0 330.0) rotate(178.8542371618249) " ><rect x="0" y="-2.5" height="5" width="996.199980003999" fill="#81BFFC" ><title >n1 → c4 {:msg_id 5, :in_reply_to 2, :type "unlock_ok"}</title></rect><use xlink:href="#ahead" x="1000.199980003999" y="0" /><text text-anchor="middle" x="500.0999900019995" y="-4" transform="rotate(180 500.0999900019995 0)" filter="url(#glow)" style="fill: #fff" >unlock_ok {}</text><text text-anchor="middle" x="500.0999900019995" y="-4" transform="rotate(180 500.0999900019995 0)" >unlock_ok {}</text></g><g transform="translate(500.0 370.0) rotate(2.862405226111748) " ><rect x="0" y="-2.5" height="5" width="396.4996878900157" fill="#81BFFC" ><title >c6 → n0 {:type "lock", :msg_id 1}</title></rect><use xlink:href="#ahead" x="400.4996878900157" y="0" /><text text-anchor="middle" x="200.24984394500785" y="-4" transform="" filter="url(#glow)" style="fill: #fff" >lock {}</text><text text-anchor="middle" x="200.24984394500785" y="-4" transform="" >lock {}</text></g><g transform="translate(900.0 410.0) rotate(5.710593137499643) " ><rect x="0" y="-2.5" height="5" width="196.9975124224178" fill="#000" ><title >n0 → n1 {:msg_id 3, :type "request_lock", :timestamp 3, :client "c6"}</title></rect><use xlink:href="#ahead" x="200.9975124224178" y="0" /><text text-anchor="middle" x="100.4987562112089" y="-4" transform="" filter="url(#glow)" style="fill: #fff" >request_lock {:timestamp 3, :client "c6"}</text><text text-anchor="middle" x="100.4987562112089" y="-4" transform="" >request_lock {:timestamp 3, :client "c6"}</text></g><g transform="translate(1100.0 450.0) rotate(174.28940686250036) " ><rect x="0" y="-2.5" height="5" width="196.9975124224178" fill="#000" ><title >n1 → n0 {:msg_id 6, :in_reply_to 3, :type "ack", :timestamp 5}</title></rect><use xlink:href="#ahead" x="200.9975124224178" y="0" /><text text-anchor="middle" x="100.4987562112089" y="-4" transform="rotate(180 100.4987562112089 0)" filter="url(#glow)" style="fill: #fff" >ack {:timestamp 5}</text><text text-anchor="middle" x="100.4987562112089" y="-4" transform="rotate(180 100.4987562112089 0)" >ack {:timestamp 5}</text></g><g transform="translate(900.0 490.0) rotate(177.13759477388828) " ><rect x="0" y="-2.5" height="5" width="396.4996878900157" fill="#81BFFC" ><title >n0 → c6 {:msg_id 4, :in_reply_to 1, :type "lock_ok"}</title></rect><use xlink:href="#ahead" x="400.4996878900157" y="0" /><text text-anchor="middle" x="200.24984394500785" y="-4" transform="rotate(180 200.24984394500785 0)" filter="url(#glow)" style="fill: #fff" >lock_ok {}</text><text text-anchor="middle" x="200.24984394500785" y="-4" transform="rotate(180 200.24984394500785 0)" >lock_ok {}</text></g><g transform="translate(500.0 530.0) rotate(2.862405226111748) " ><rect x="0" y="-2.5" height="5" width="396.4996878900157" fill="#81BFFC" ><title >c6 → n0 {:type "unlock", :msg_id 2}</title></rect><use xlink:href="#ahead" x="400.4996878900157" y="0" /><text text-anchor="middle" x="200.24984394500785" y="-4" transform="" filter="url(#glow)" style="fill: #fff" >unlock {}</text><text text-anchor="middle" x="200.24984394500785" y="-4" transform="" >unlock {}</text></g><g transform="translate(900.0 570.0) rotate(5.710593137499643) " ><rect x="0" y="-2.5" height="5" width="196.9975124224178" fill="#000" ><title >n0 → n1 {:msg_id 5, :type "release_lock", :timestamp 5}</title></rect><use xlink:href="#ahead" x="200.9975124224178" y="0" /><text text-anchor="middle" x="100.4987562112089" y="-4" transform="" filter="url(#glow)" style="fill: #fff" >release_lock {:timestamp 5}</text><text text-anchor="middle" x="100.4987562112089" y="-4" transform="" >release_lock {:timestamp 5}</text></g><g transform="translate(900.0 610.0) rotate(177.13759477388828) " ><rect x="0" y="-2.5" height="5" width="396.4996878900157" fill="#81BFFC" ><title >n0 → c6 {:msg_id 6, :in_reply_to 2, :type "unlock_ok"}</title></rect><use xlink:href="#ahead" x="400.4996878900157" y="0" /><text text-anchor="middle" x="200.24984394500785" y="-4" transform="rotate(180 200.24984394500785 0)" filter="url(#glow)" style="fill: #fff" >unlock_ok {}</text><text text-anchor="middle" x="200.24984394500785" y="-4" transform="rotate(180 200.24984394500785 0)" >unlock_ok {}</text></g><g transform="translate(1100.0 650.0) rotate(178.56790381583536) " ><rect x="0" y="-2.5" height="5" width="796.2499609497023" fill="#81BFFC" ><title >n1 → c5 {:msg_id 7, :in_reply_to 1, :type "lock_ok"}</title></rect><use xlink:href="#ahead" x="800.2499609497023" y="0" /><text text-anchor="middle" x="400.12498047485116" y="-4" transform="rotate(180 400.12498047485116 0)" filter="url(#glow)" style="fill: #fff" >lock_ok {}</text><text text-anchor="middle" x="400.12498047485116" y="-4" transform="rotate(180 400.12498047485116 0)" >lock_ok {}</text></g><g transform="translate(1100.0 690.0) rotate(174.28940686250036) " ><rect x="0" y="-2.5" height="5" width="196.9975124224178" fill="#000" ><title >n1 → n0 {:msg_id 8, :type "request_lock", :timestamp 3, :client "c5"}</title></rect><use xlink:href="#ahead" x="200.9975124224178" y="0" /><text text-anchor="middle" x="100.4987562112089" y="-4" transform="rotate(180 100.4987562112089 0)" filter="url(#glow)" style="fill: #fff" >request_lock {:timestamp 3, :client "c5"}</text><text text-anchor="middle" x="100.4987562112089" y="-4" transform="rotate(180 100.4987562112089 0)" >request_lock {:timestamp 3, :client "c5"}</text></g><g transform="translate(500.0 730.0) rotate(2.862405226111748) " ><rect x="0" y="-2.5" height="5" width="396.4996878900157" fill="#81BFFC" ><title >c6 → n0 {:type "lock", :msg_id 3}</title></rect><use xlink:href="#ahead" x="400.4996878900157" y="0" /><text text-anchor="middle" x="200.24984394500785" y="-4" transform="" filter="url(#glow)" style="fill: #fff" >lock {}</text><text text-anchor="middle" x="200.24984394500785" y="-4" transform="" >lock {}</text></g><g transform="translate(700.0 770.0) rotate(5.710593137499643) " ><rect x="0" y="-2.5" height="5" width="196.9975124224178" fill="#81BFFC" ><title >c7 → n0 {:type "lock", :msg_id 1}</title></rect><use xlink:href="#ahead" x="200.9975124224178" y="0" /><text text-anchor="middle" x="100.4987562112089" y="-4" transform="" filter="url(#glow)" style="fill: #fff" >lock {}</text><text text-anchor="middle" x="100.4987562112089" y="-4" transform="" >lock {}</text></g><g transform="translate(300.0 810.0) rotate(1.4320961841646465) " ><rect x="0" y="-2.5" height="5" width="796.2499609497023" fill="#81BFFC" ><title >c5 → n1 {:type "unlock", :msg_id 2}</title></rect><use xlink:href="#ahead" x="800.2499609497023" y="0" /><text text-anchor="middle" x="400.12498047485116" y="-4" transform="" filter="url(#glow)" style="fill: #fff" >unlock {}</text><text text-anchor="middle" x="400.12498047485116" y="-4" transform="" >unlock {}</text></g><g transform="translate(1100.0 850.0) rotate(174.28940686250036) " ><rect x="0" y="-2.5" height="5" width="196.9975124224178" fill="#000" ><title >n1 → n0 {:msg_id 9, :type "release_lock", :timestamp 7}</title></rect><use xlink:href="#ahead" x="200.9975124224178" y="0" /><text text-anchor="middle" x="100.4987562112089" y="-4" transform="rotate(180 100.4987562112089 0)" filter="url(#glow)" style="fill: #fff" >release_lock {:timestamp 7}</text><text text-anchor="middle" x="100.4987562112089" y="-4" transform="rotate(180 100.4987562112089 0)" >release_lock {:timestamp 7}</text></g><g transform="translate(1100.0 890.0) rotate(178.56790381583536) " ><rect x="0" y="-2.5" height="5" width="796.2499609497023" fill="#81BFFC" ><title >n1 → c5 {:msg_id 10, :in_reply_to 2, :type "unlock_ok"}</title></rect><use xlink:href="#ahead" x="800.2499609497023" y="0" /><text text-anchor="middle" x="400.12498047485116" y="-4" transform="rotate(180 400.12498047485116 0)" filter="url(#glow)" style="fill: #fff" >unlock_ok {}</text><text text-anchor="middle" x="400.12498047485116" y="-4" transform="rotate(180 400.12498047485116 0)" >unlock_ok {}</text></g><g transform="translate(900.0 930.0) rotate(177.13759477388828) " ><rect x="0" y="-2.5" height="5" width="396.4996878900157" fill="#81BFFC" ><title >n0 → c6 {:msg_id 7, :in_reply_to 3, :type "lock_ok"}</title></rect><use xlink:href="#ahead" x="400.4996878900157" y="0" /><text text-anchor="middle" x="200.24984394500785" y="-4" transform="rotate(180 200.24984394500785 0)" filter="url(#glow)" style="fill: #fff" >lock_ok {}</text><text text-anchor="middle" x="200.24984394500785" y="-4" transform="rotate(180 200.24984394500785 0)" >lock_ok {}</text></g><g transform="translate(900.0 970.0) rotate(5.710593137499643) " ><rect x="0" y="-2.5" height="5" width="196.9975124224178" fill="#000" ><title >n0 → n1 {:msg_id 8, :type "request_lock", :timestamp 7, :client "c6"}</title></rect><use xlink:href="#ahead" x="200.9975124224178" y="0" /><text text-anchor="middle" x="100.4987562112089" y="-4" transform="" filter="url(#glow)" style="fill: #fff" >request_lock {:timestamp 7, :client "c6"}</text><text text-anchor="middle" x="100.4987562112089" y="-4" transform="" >request_lock {:timestamp 7, :client "c6"}</text></g><g transform="translate(1100.0 1010.0) rotate(174.28940686250036) " ><rect x="0" y="-2.5" height="5" width="196.9975124224178" fill="#000" ><title >n1 → n0 {:msg_id 11, :in_reply_to 8, :type "ack", :timestamp 8}</title></rect><use xlink:href="#ahead" x="200.9975124224178" y="0" /><text text-anchor="middle" x="100.4987562112089" y="-4" transform="rotate(180 100.4987562112089 0)" filter="url(#glow)" style="fill: #fff" >ack {:timestamp 8}</text><text text-anchor="middle" x="100.4987562112089" y="-4" transform="rotate(180 100.4987562112089 0)" >ack {:timestamp 8}</text></g><g transform="translate(500.0 1050.0) rotate(2.862405226111748) " ><rect x="0" y="-2.5" height="5" width="396.4996878900157" fill="#81BFFC" ><title >c6 → n0 {:type "unlock", :msg_id 4}</title></rect><use xlink:href="#ahead" x="400.4996878900157" y="0" /><text text-anchor="middle" x="200.24984394500785" y="-4" transform="" filter="url(#glow)" style="fill: #fff" >unlock {}</text><text text-anchor="middle" x="200.24984394500785" y="-4" transform="" >unlock {}</text></g><g transform="translate(900.0 1090.0) rotate(174.28940686250036) " ><rect x="0" y="-2.5" height="5" width="196.9975124224178" fill="#81BFFC" ><title >n0 → c7 {:msg_id 9, :in_reply_to 1, :type "lock_ok"}</title></rect><use xlink:href="#ahead" x="200.9975124224178" y="0" /><text text-anchor="middle" x="100.4987562112089" y="-4" transform="rotate(180 100.4987562112089 0)" filter="url(#glow)" style="fill: #fff" >lock_ok {}</text><text text-anchor="middle" x="100.4987562112089" y="-4" transform="rotate(180 100.4987562112089 0)" >lock_ok {}</text></g><g transform="translate(900.0 1130.0) rotate(177.13759477388828) " ><rect x="0" y="-2.5" height="5" width="396.4996878900157" fill="#81BFFC" ><title >n0 → c6 {:msg_id 10, :in_reply_to 4, :type "unlock_ok"}</title></rect><use xlink:href="#ahead" x="400.4996878900157" y="0" /><text text-anchor="middle" x="200.24984394500785" y="-4" transform="rotate(180 200.24984394500785 0)" filter="url(#glow)" style="fill: #fff" >unlock_ok {}</text><text text-anchor="middle" x="200.24984394500785" y="-4" transform="rotate(180 200.24984394500785 0)" >unlock_ok {}</text></g><g transform="translate(300.0 1170.0) rotate(1.4320961841646465) " ><rect x="0" y="-2.5" height="5" width="796.2499609497023" fill="#81BFFC" ><title >c5 → n1 {:type "lock", :msg_id 3}</title></rect><use xlink:href="#ahead" x="800.2499609497023" y="0" /><text text-anchor="middle" x="400.12498047485116" y="-4" transform="" filter="url(#glow)" style="fill: #fff" >lock {}</text><text text-anchor="middle" x="400.12498047485116" y="-4" transform="" >lock {}</text></g><g transform="translate(100.0 1210.0) rotate(1.1457628381751035) " ><rect x="0" y="-2.5" height="5" width="996.199980003999" fill="#81BFFC" ><title >c4 → n1 {:type "lock", :msg_id 3}</title></rect><use xlink:href="#ahead" x="1000.199980003999" y="0" /><text text-anchor="middle" x="500.0999900019995" y="-4" transform="" filter="url(#glow)" style="fill: #fff" >lock {}</text><text text-anchor="middle" x="500.0999900019995" y="-4" transform="" >lock {}</text></g><g transform="translate(700.0 1250.0) rotate(5.710593137499643) " ><rect x="0" y="-2.5" height="5" width="196.9975124224178" fill="#81BFFC" ><title >c7 → n0 {:type "unlock", :msg_id 2}</title></rect><use xlink:href="#ahead" x="200.9975124224178" y="0" /><text text-anchor="middle" x="100.4987562112089" y="-4" transform="" filter="url(#glow)" style="fill: #fff" >unlock {}</text><text text-anchor="middle" x="100.4987562112089" y="-4" transform="" >unlock {}</text></g><g transform="translate(900.0 1290.0) rotate(5.710593137499643) " ><rect x="0" y="-2.5" height="5" width="196.9975124224178" fill="#000" ><title >n0 → n1 {:msg_id 11, :type "release_lock", :timestamp 12}</title></rect><use xlink:href="#ahead" x="200.9975124224178" y="0" /><text text-anchor="middle" x="100.4987562112089" y="-4" transform="" filter="url(#glow)" style="fill: #fff" >release_lock {:timestamp 12}</text><text text-anchor="middle" x="100.4987562112089" y="-4" transform="" >release_lock {:timestamp 12}</text></g><g transform="translate(900.0 1330.0) rotate(174.28940686250036) " ><rect x="0" y="-2.5" height="5" width="196.9975124224178" fill="#81BFFC" ><title >n0 → c7 {:msg_id 12, :in_reply_to 2, :type "unlock_ok"}</title></rect><use xlink:href="#ahead" x="200.9975124224178" y="0" /><text text-anchor="middle" x="100.4987562112089" y="-4" transform="rotate(180 100.4987562112089 0)" filter="url(#glow)" style="fill: #fff" >unlock_ok {}</text><text text-anchor="middle" x="100.4987562112089" y="-4" transform="rotate(180 100.4987562112089 0)" >unlock_ok {}</text></g><g transform="translate(1100.0 1370.0) rotate(178.56790381583536) " ><rect x="0" y="-2.5" height="5" width="796.2499609497023" fill="#81BFFC" ><title >n1 → c5 {:msg_id 12, :in_reply_to 3, :type "lock_ok"}</title></rect><use xlink:href="#ahead" x="800.2499609497023" y="0" /><text text-anchor="middle" x="400.12498047485116" y="-4" transform="rotate(180 400.12498047485116 0)" filter="url(#glow)" style="fill: #fff" >lock_ok {}</text><text text-anchor="middle" x="400.12498047485116" y="-4" transform="rotate(180 400.12498047485116 0)" >lock_ok {}</text></g><g transform="translate(1100.0 1410.0) rotate(174.28940686250036) " ><rect x="0" y="-2.5" height="5" width="196.9975124224178" fill="#000" ><title >n1 → n0 {:msg_id 13, :type "request_lock", :timestamp 9, :client "c5"}</title></rect><use xlink:href="#ahead" x="200.9975124224178" y="0" /><text text-anchor="middle" x="100.4987562112089" y="-4" transform="rotate(180 100.4987562112089 0)" filter="url(#glow)" style="fill: #fff" >request_lock {:timestamp 9, :client "c5"}</text><text text-anchor="middle" x="100.4987562112089" y="-4" transform="rotate(180 100.4987562112089 0)" >request_lock {:timestamp 9, :client "c5"}</text></g><g transform="translate(900.0 1450.0) rotate(5.710593137499643) " ><rect x="0" y="-2.5" height="5" width="196.9975124224178" fill="#000" ><title >n0 → n1 {:msg_id 13, :in_reply_to 13, :type "ack", :timestamp 13}</title></rect><use xlink:href="#ahead" x="200.9975124224178" y="0" /><text text-anchor="middle" x="100.4987562112089" y="-4" transform="" filter="url(#glow)" style="fill: #fff" >ack {:timestamp 13}</text><text text-anchor="middle" x="100.4987562112089" y="-4" transform="" >ack {:timestamp 13}</text></g><g transform="translate(700.0 1490.0) rotate(5.710593137499643) " ><rect x="0" y="-2.5" height="5" width="196.9975124224178" fill="#81BFFC" ><title >c7 → n0 {:type "lock", :msg_id 3}</title></rect><use xlink:href="#ahead" x="200.9975124224178" y="0" /><text text-anchor="middle" x="100.4987562112089" y="-4" transform="" filter="url(#glow)" style="fill: #fff" >lock {}</text><text text-anchor="middle" x="100.4987562112089" y="-4" transform="" >lock {}</text></g><g transform="translate(300.0 1530.0) rotate(1.4320961841646465) " ><rect x="0" y="-2.5" height="5" width="796.2499609497023" fill="#81BFFC" ><title >c5 → n1 {:type "unlock", :msg_id 4}</title></rect><use xlink:href="#ahead" x="800.2499609497023" y="0" /><text text-anchor="middle" x="400.12498047485116" y="-4" transform="" filter="url(#glow)" style="fill: #fff" >unlock {}</text><text text-anchor="middle" x="400.12498047485116" y="-4" transform="" >unlock {}</text></g><g transform="translate(1100.0 1570.0) rotate(178.8542371618249) " ><rect x="0" y="-2.5" height="5" width="996.199980003999" fill="#81BFFC" ><title >n1 → c4 {:msg_id 14, :in_reply_to 3, :type "lock_ok"}</title></rect><use xlink:href="#ahead" x="1000.199980003999" y="0" /><text text-anchor="middle" x="500.0999900019995" y="-4" transform="rotate(180 500.0999900019995 0)" filter="url(#glow)" style="fill: #fff" >lock_ok {}</text><text text-anchor="middle" x="500.0999900019995" y="-4" transform="rotate(180 500.0999900019995 0)" >lock_ok {}</text></g><g transform="translate(1100.0 1610.0) rotate(178.56790381583536) " ><rect x="0" y="-2.5" height="5" width="796.2499609497023" fill="#81BFFC" ><title >n1 → c5 {:msg_id 15, :in_reply_to 4, :type "unlock_ok"}</title></rect><use xlink:href="#ahead" x="800.2499609497023" y="0" /><text text-anchor="middle" x="400.12498047485116" y="-4" transform="rotate(180 400.12498047485116 0)" filter="url(#glow)" style="fill: #fff" >unlock_ok {}</text><text text-anchor="middle" x="400.12498047485116" y="-4" transform="rotate(180 400.12498047485116 0)" >unlock_ok {}</text></g><g transform="translate(500.0 1650.0) rotate(2.862405226111748) " ><rect x="0" y="-2.5" height="5" width="396.4996878900157" fill="#81BFFC" ><title >c6 → n0 {:type "lock", :msg_id 5}</title></rect><use xlink:href="#ahead" x="400.4996878900157" y="0" /><text text-anchor="middle" x="200.24984394500785" y="-4" transform="" filter="url(#glow)" style="fill: #fff" >lock {}</text><text text-anchor="middle" x="200.24984394500785" y="-4" transform="" >lock {}</text></g><g transform="translate(100.0 1690.0) rotate(1.1457628381751035) " ><rect x="0" y="-2.5" height="5" width="996.199980003999" fill="#81BFFC" ><title >c4 → n1 {:type "unlock", :msg_id 4}</title></rect><use xlink:href="#ahead" x="1000.199980003999" y="0" /><text text-anchor="middle" x="500.0999900019995" y="-4" transform="" filter="url(#glow)" style="fill: #fff" >unlock {}</text><text text-anchor="middle" x="500.0999900019995" y="-4" transform="" >unlock {}</text></g><g transform="translate(1100.0 1730.0) rotate(174.28940686250036) " ><rect x="0" y="-2.5" height="5" width="196.9975124224178" fill="#000" ><title >n1 → n0 {:msg_id 16, :type "release_lock", :timestamp 14}</title></rect><use xlink:href="#ahead" x="200.9975124224178" y="0" /><text text-anchor="middle" x="100.4987562112089" y="-4" transform="rotate(180 100.4987562112089 0)" filter="url(#glow)" style="fill: #fff" >release_lock {:timestamp 14}</text><text text-anchor="middle" x="100.4987562112089" y="-4" transform="rotate(180 100.4987562112089 0)" >release_lock {:timestamp 14}</text></g><g transform="translate(1100.0 1770.0) rotate(178.8542371618249) " ><rect x="0" y="-2.5" height="5" width="996.199980003999" fill="#81BFFC" ><title >n1 → c4 {:msg_id 17, :in_reply_to 4, :type "unlock_ok"}</title></rect><use xlink:href="#ahead" x="1000.199980003999" y="0" /><text text-anchor="middle" x="500.0999900019995" y="-4" transform="rotate(180 500.0999900019995 0)" filter="url(#glow)" style="fill: #fff" >unlock_ok {}</text><text text-anchor="middle" x="500.0999900019995" y="-4" transform="rotate(180 500.0999900019995 0)" >unlock_ok {}</text></g><g transform="translate(900.0 1810.0) rotate(174.28940686250036) " ><rect x="0" y="-2.5" height="5" width="196.9975124224178" fill="#81BFFC" ><title >n0 → c7 {:msg_id 14, :in_reply_to 3, :type "lock_ok"}</title></rect><use xlink:href="#ahead" x="200.9975124224178" y="0" /><text text-anchor="middle" x="100.4987562112089" y="-4" transform="rotate(180 100.4987562112089 0)" filter="url(#glow)" style="fill: #fff" >lock_ok {}</text><text text-anchor="middle" x="100.4987562112089" y="-4" transform="rotate(180 100.4987562112089 0)" >lock_ok {}</text></g><g transform="translate(900.0 1850.0) rotate(5.710593137499643) " ><rect x="0" y="-2.5" height="5" width="196.9975124224178" fill="#000" ><title >n0 → n1 {:msg_id 15, :type "request_lock", :timestamp 14, :client "c7"}</title></rect><use xlink:href="#ahead" x="200.9975124224178" y="0" /><text text-anchor="middle" x="100.4987562112089" y="-4" transform="" filter="url(#glow)" style="fill: #fff" >request_lock {:timestamp 14, :client "c7"}</text><text text-anchor="middle" x="100.4987562112089" y="-4" transform="" >request_lock {:timestamp 14, :client "c7"}</text></g><g transform="translate(1100.0 1890.0) rotate(174.28940686250036) " ><rect x="0" y="-2.5" height="5" width="196.9975124224178" fill="#000" ><title >n1 → n0 {:msg_id 18, :in_reply_to 15, :type "ack", :timestamp 15}</title></rect><use xlink:href="#ahead" x="200.9975124224178" y="0" /><text text-anchor="middle" x="100.4987562112089" y="-4" transform="rotate(180 100.4987562112089 0)" filter="url(#glow)" style="fill: #fff" >ack {:timestamp 15}</text><text text-anchor="middle" x="100.4987562112089" y="-4" transform="rotate(180 100.4987562112089 0)" >ack {:timestamp 15}</text></g><g transform="translate(700.0 1930.0) rotate(5.710593137499643) " ><rect x="0" y="-2.5" height="5" width="196.9975124224178" fill="#81BFFC" ><title >c7 → n0 {:type "unlock", :msg_id 4}</title></rect><use xlink:href="#ahead" x="200.9975124224178" y="0" /><text text-anchor="middle" x="100.4987562112089" y="-4" transform="" filter="url(#glow)" style="fill: #fff" >unlock {}</text><text text-anchor="middle" x="100.4987562112089" y="-4" transform="" >unlock {}</text></g><g transform="translate(900.0 1970.0) rotate(177.13759477388828) " ><rect x="0" y="-2.5" height="5" width="396.4996878900157" fill="#81BFFC" ><title >n0 → c6 {:msg_id 16, :in_reply_to 5, :type "lock_ok"}</title></rect><use xlink:href="#ahead" x="400.4996878900157" y="0" /><text text-anchor="middle" x="200.24984394500785" y="-4" transform="rotate(180 200.24984394500785 0)" filter="url(#glow)" style="fill: #fff" >lock_ok {}</text><text text-anchor="middle" x="200.24984394500785" y="-4" transform="rotate(180 200.24984394500785 0)" >lock_ok {}</text></g><g transform="translate(900.0 2010.0) rotate(174.28940686250036) " ><rect x="0" y="-2.5" height="5" width="196.9975124224178" fill="#81BFFC" ><title >n0 → c7 {:msg_id 17, :in_reply_to 4, :type "unlock_ok"}</title></rect><use xlink:href="#ahead" x="200.9975124224178" y="0" /><text text-anchor="middle" x="100.4987562112089" y="-4" transform="rotate(180 100.4987562112089 0)" filter="url(#glow)" style="fill: #fff" >unlock_ok {}</text><text text-anchor="middle" x="100.4987562112089" y="-4" transform="rotate(180 100.4987562112089 0)" >unlock_ok {}</text></g><g transform="translate(500.0 2050.0) rotate(2.862405226111748) " ><rect x="0" y="-2.5" height="5" width="396.4996878900157" fill="#81BFFC" ><title >c6 → n0 {:type "unlock", :msg_id 6}</title></rect><use xlink:href="#ahead" x="400.4996878900157" y="0" /><text text-anchor="middle" x="200.24984394500785" y="-4" transform="" filter="url(#glow)" style="fill: #fff" >unlock {}</text><text text-anchor="middle" x="200.24984394500785" y="-4" transform="" >unlock {}</text></g><g transform="translate(900.0 2090.0) rotate(5.710593137499643) " ><rect x="0" y="-2.5" height="5" width="196.9975124224178" fill="#000" ><title >n0 → n1 {:msg_id 18, :type "release_lock", :timestamp 19}</title></rect><use xlink:href="#ahead" x="200.9975124224178" y="0" /><text text-anchor="middle" x="100.4987562112089" y="-4" transform="" filter="url(#glow)" style="fill: #fff" >release_lock {:timestamp 19}</text><text text-anchor="middle" x="100.4987562112089" y="-4" transform="" >release_lock {:timestamp 19}</text></g><g transform="translate(900.0 2130.0) rotate(177.13759477388828) " ><rect x="0" y="-2.5" height="5" width="396.4996878900157" fill="#81BFFC" ><title >n0 → c6 {:msg_id 19, :in_reply_to 6, :type "unlock_ok"}</title></rect><use xlink:href="#ahead" x="400.4996878900157" y="0" /><text text-anchor="middle" x="200.24984394500785" y="-4" transform="rotate(180 200.24984394500785 0)" filter="url(#glow)" style="fill: #fff" >unlock_ok {}</text><text text-anchor="middle" x="200.24984394500785" y="-4" transform="rotate(180 200.24984394500785 0)" >unlock_ok {}</text></g><g transform="translate(300.0 2170.0) rotate(1.4320961841646465) " ><rect x="0" y="-2.5" height="5" width="796.2499609497023" fill="#81BFFC" ><title >c5 → n1 {:type "lock", :msg_id 5}</title></rect><use xlink:href="#ahead" x="800.2499609497023" y="0" /><text text-anchor="middle" x="400.12498047485116" y="-4" transform="" filter="url(#glow)" style="fill: #fff" >lock {}</text><text text-anchor="middle" x="400.12498047485116" y="-4" transform="" >lock {}</text></g><g transform="translate(1100.0 2210.0) rotate(174.28940686250036) " ><rect x="0" y="-2.5" height="5" width="196.9975124224178" fill="#000" ><title >n1 → n0 {:msg_id 19, :type "request_lock", :timestamp 17, :client "c5"}</title></rect><use xlink:href="#ahead" x="200.9975124224178" y="0" /><text text-anchor="middle" x="100.4987562112089" y="-4" transform="rotate(180 100.4987562112089 0)" filter="url(#glow)" style="fill: #fff" >request_lock {:timestamp 17, :client "c5"}</text><text text-anchor="middle" x="100.4987562112089" y="-4" transform="rotate(180 100.4987562112089 0)" >request_lock {:timestamp 17, :client "c5"}</text></g><g transform="translate(900.0 2250.0) rotate(5.710593137499643) " ><rect x="0" y="-2.5" height="5" width="196.9975124224178" fill="#000" ><title >n0 → n1 {:msg_id 20, :in_reply_to 19, :type "ack", :timestamp 20}</title></rect><use xlink:href="#ahead" x="200.9975124224178" y="0" /><text text-anchor="middle" x="100.4987562112089" y="-4" transform="" filter="url(#glow)" style="fill: #fff" >ack {:timestamp 20}</text><text text-anchor="middle" x="100.4987562112089" y="-4" transform="" >ack {:timestamp 20}</text></g><g transform="translate(1100.0 2290.0) rotate(178.56790381583536) " ><rect x="0" y="-2.5" height="5" width="796.2499609497023" fill="#81BFFC" ><title >n1 → c5 {:msg_id 20, :in_reply_to 5, :type "lock_ok"}</title></rect><use xlink:href="#ahead" x="800.2499609497023" y="0" /><text text-anchor="middle" x="400.12498047485116" y="-4" transform="rotate(180 400.12498047485116 0)" filter="url(#glow)" style="fill: #fff" >lock_ok {}</text><text text-anchor="middle" x="400.12498047485116" y="-4" transform="rotate(180 400.12498047485116 0)" >lock_ok {}</text></g><g transform="translate(500.0 2330.0) rotate(2.862405226111748) " ><rect x="0" y="-2.5" height="5" width="396.4996878900157" fill="#81BFFC" ><title >c6 → n0 {:type "lock", :msg_id 7}</title></rect><use xlink:href="#ahead" x="400.4996878900157" y="0" /><text text-anchor="middle" x="200.24984394500785" y="-4" transform="" filter="url(#glow)" style="fill: #fff" >lock {}</text><text text-anchor="middle" x="200.24984394500785" y="-4" transform="" >lock {}</text></g><g transform="translate(300.0 2370.0) rotate(1.4320961841646465) " ><rect x="0" y="-2.5" height="5" width="796.2499609497023" fill="#81BFFC" ><title >c5 → n1 {:type "unlock", :msg_id 6}</title></rect><use xlink:href="#ahead" x="800.2499609497023" y="0" /><text text-anchor="middle" x="400.12498047485116" y="-4" transform="" filter="url(#glow)" style="fill: #fff" >unlock {}</text><text text-anchor="middle" x="400.12498047485116" y="-4" transform="" >unlock {}</text></g><g transform="translate(1100.0 2410.0) rotate(174.28940686250036) " ><rect x="0" y="-2.5" height="5" width="196.9975124224178" fill="#000" ><title >n1 → n0 {:msg_id 21, :type "release_lock", :timestamp 19}</title></rect><use xlink:href="#ahead" x="200.9975124224178" y="0" /><text text-anchor="middle" x="100.4987562112089" y="-4" transform="rotate(180 100.4987562112089 0)" filter="url(#glow)" style="fill: #fff" >release_lock {:timestamp 19}</text><text text-anchor="middle" x="100.4987562112089" y="-4" transform="rotate(180 100.4987562112089 0)" >release_lock {:timestamp 19}</text></g><g transform="translate(1100.0 2450.0) rotate(178.56790381583536) " ><rect x="0" y="-2.5" height="5" width="796.2499609497023" fill="#81BFFC" ><title >n1 → c5 {:msg_id 22, :in_reply_to 6, :type "unlock_ok"}</title></rect><use xlink:href="#ahead" x="800.2499609497023" y="0" /><text text-anchor="middle" x="400.12498047485116" y="-4" transform="rotate(180 400.12498047485116 0)" filter="url(#glow)" style="fill: #fff" >unlock_ok {}</text><text text-anchor="middle" x="400.12498047485116" y="-4" transform="rotate(180 400.12498047485116 0)" >unlock_ok {}</text></g><g transform="translate(300.0 2490.0) rotate(1.4320961841646465) " ><rect x="0" y="-2.5" height="5" width="796.2499609497023" fill="#81BFFC" ><title >c5 → n1 {:type "lock", :msg_id 7}</title></rect><use xlink:href="#ahead" x="800.2499609497023" y="0" /><text text-anchor="middle" x="400.12498047485116" y="-4" transform="" filter="url(#glow)" style="fill: #fff" >lock {}</text><text text-anchor="middle" x="400.12498047485116" y="-4" transform="" >lock {}</text></g><g transform="translate(1100.0 2530.0) rotate(174.28940686250036) " ><rect x="0" y="-2.5" height="5" width="196.9975124224178" fill="#000" ><title >n1 → n0 {:msg_id 23, :type "request_lock", :timestamp 20, :client "c5"}</title></rect><use xlink:href="#ahead" x="200.9975124224178" y="0" /><text text-anchor="middle" x="100.4987562112089" y="-4" transform="rotate(180 100.4987562112089 0)" filter="url(#glow)" style="fill: #fff" >request_lock {:timestamp 20, :client "c5"}</text><text text-anchor="middle" x="100.4987562112089" y="-4" transform="rotate(180 100.4987562112089 0)" >request_lock {:timestamp 20, :client "c5"}</text></g><g transform="translate(900.0 2570.0) rotate(5.710593137499643) " ><rect x="0" y="-2.5" height="5" width="196.9975124224178" fill="#000" ><title >n0 → n1 {:msg_id 21, :in_reply_to 23, :type "ack", :timestamp 23}</title></rect><use xlink:href="#ahead" x="200.9975124224178" y="0" /><text text-anchor="middle" x="100.4987562112089" y="-4" transform="" filter="url(#glow)" style="fill: #fff" >ack {:timestamp 23}</text><text text-anchor="middle" x="100.4987562112089" y="-4" transform="" >ack {:timestamp 23}</text></g><g transform="translate(1100.0 2610.0) rotate(178.56790381583536) " ><rect x="0" y="-2.5" height="5" width="796.2499609497023" fill="#81BFFC" ><title >n1 → c5 {:msg_id 24, :in_reply_to 7, :type "lock_ok"}</title></rect><use xlink:href="#ahead" x="800.2499609497023" y="0" /><text text-anchor="middle" x="400.12498047485116" y="-4" transform="rotate(180 400.12498047485116 0)" filter="url(#glow)" style="fill: #fff" >lock_ok {}</text><text text-anchor="middle" x="400.12498047485116" y="-4" transform="rotate(180 400.12498047485116 0)" >lock_ok {}</text></g><g transform="translate(700.0 2650.0) rotate(5.710593137499643) " ><rect x="0" y="-2.5" height="5" width="196.9975124224178" fill="#81BFFC" ><title >c7 → n0 {:type "lock", :msg_id 5}</title></rect><use xlink:href="#ahead" x="200.9975124224178" y="0" /><text text-anchor="middle" x="100.4987562112089" y="-4" transform="" filter="url(#glow)" style="fill: #fff" >lock {}</text><text text-anchor="middle" x="100.4987562112089" y="-4" transform="" >lock {}</text></g><g transform="translate(100.0 2690.0) rotate(1.1457628381751035) " ><rect x="0" y="-2.5" height="5" width="996.199980003999" fill="#81BFFC" ><title >c4 → n1 {:type "lock", :msg_id 5}</title></rect><use xlink:href="#ahead" x="1000.199980003999" y="0" /><text text-anchor="middle" x="500.0999900019995" y="-4" transform="" filter="url(#glow)" style="fill: #fff" >lock {}</text><text text-anchor="middle" x="500.0999900019995" y="-4" transform="" >lock {}</text></g><g transform="translate(300.0 2730.0) rotate(1.4320961841646465) " ><rect x="0" y="-2.5" height="5" width="796.2499609497023" fill="#81BFFC" ><title >c5 → n1 {:type "unlock", :msg_id 8}</title></rect><use xlink:href="#ahead" x="800.2499609497023" y="0" /><text text-anchor="middle" x="400.12498047485116" y="-4" transform="" filter="url(#glow)" style="fill: #fff" >unlock {}</text><text text-anchor="middle" x="400.12498047485116" y="-4" transform="" >unlock {}</text></g><g transform="translate(1100.0 2770.0) rotate(178.8542371618249) " ><rect x="0" y="-2.5" height="5" width="996.199980003999" fill="#81BFFC" ><title >n1 → c4 {:msg_id 25, :in_reply_to 5, :type "lock_ok"}</title></rect><use xlink:href="#ahead" x="1000.199980003999" y="0" /><text text-anchor="middle" x="500.0999900019995" y="-4" transform="rotate(180 500.0999900019995 0)" filter="url(#glow)" style="fill: #fff" >lock_ok {}</text><text text-anchor="middle" x="500.0999900019995" y="-4" transform="rotate(180 500.0999900019995 0)" >lock_ok {}</text></g><g transform="translate(1100.0 2810.0) rotate(178.56790381583536) " ><rect x="0" y="-2.5" height="5" width="796.2499609497023" fill="#81BFFC" ><title >n1 → c5 {:msg_id 26, :in_reply_to 8, :type "unlock_ok"}</title></rect><use xlink:href="#ahead" x="800.2499609497023" y="0" /><text text-anchor="middle" x="400.12498047485116" y="-4" transform="rotate(180 400.12498047485116 0)" filter="url(#glow)" style="fill: #fff" >unlock_ok {}</text><text text-anchor="middle" x="400.12498047485116" y="-4" transform="rotate(180 400.12498047485116 0)" >unlock_ok {}</text></g><g transform="translate(300.0 2850.0) rotate(1.4320961841646465) " ><rect x="0" y="-2.5" height="5" width="796.2499609497023" fill="#81BFFC" ><title >c5 → n1 {:type "lock", :msg_id 9}</title></rect><use xlink:href="#ahead" x="800.2499609497023" y="0" /><text text-anchor="middle" x="400.12498047485116" y="-4" transform="" filter="url(#glow)" style="fill: #fff" >lock {}</text><text text-anchor="middle" x="400.12498047485116" y="-4" transform="" >lock {}</text></g></g></svg>