<?xml version="1.0" encoding="UTF-8"?><svg xmlns:svg="http://www.w3.org/2000/svg" xmlns="http://www.w3.org/2000/svg" xmlns:xlink="http://www.w3.org/1999/xlink" version="2.0" width="1200" height="380" ><style >
svg {
  font-family: Helvetica, Arial, sans-serif;
  font-size: 11px;
}
rect {
  stroke-linecap: butt;
  stroke-width: 3;
  stroke: #fff;
/*  stroke-opacity: 1; */
}
rect:hover {
  stroke: #fff;
/*  stroke-opacity: 1; /*
}
polygon { fill: #000; }</style><defs ><polygon id="ahead" points="0 0, -12 4, -12 -4" /><filter id="glow" x="0" y="0" ><feGaussianBlur in="SourceAlpha" stdDeviation="2" result="blurred" /><feFlood flood-color="#fff" /><feComposite operator="in" in2="blurred" /><feComponentTransfer ><feFuncA type="linear" slope="10" intercept="0" /></feComponentTransfer><feMerge ><feMergeNode /><feMergeNode in="SourceGraphic" /></feMerge></filter></defs><g ><text x="66.666664" y="20.0" text-anchor="middle" alignment-baseline="middle" fill="#000" >c6</text><text x="200.0" y="20.0" text-anchor="middle" alignment-baseline="middle" fill="#000" >c7</text><text x="333.33334" y="20.0" text-anchor="middle" alignment-baseline="middle" fill="#000" >c8</text><text x="466.66666" y="20.0" text-anchor="middle" alignment-baseline="middle" fill="#000" >c9</text><text x="600.0" y="20.0" text-anchor="middle" alignment-baseline="middle" fill="#000" >c10</text><text x="733.3333" y="20.0" text-anchor="middle" alignment-baseline="middle" fill="#000" >c11</text><text x="866.6667" y="20.0" text-anchor="middle" alignment-baseline="middle" fill="#000" >n0</text><text x="1000.0" y="20.0" text-anchor="middle" alignment-baseline="middle" fill="#000" >n1</text><text x="1133.3334" y="20.0" text-anchor="middle" alignment-baseline="middle" fill="#000" >n2</text></g><g ><line stroke="#ccc" x1="66.666664" y1="30.0" x2="66.666664" y2="290.0" /><line stroke="#ccc" x1="200.0" y1="30.0" x2="200.0" y2="290.0" /><line stroke="#ccc" x1="333.33334" y1="30.0" x2="333.33334" y2="290.0" /><line stroke="#ccc" x1="466.66666" y1="30.0" x2="466.66666" y2="290.0" /><line stroke="#ccc" x1="600.0" y1="30.0" x2="600.0" y2="290.0" /><line stroke="#ccc" x1="733.3333" y1="30.0" x2="733.3333" y2="290.0" /><line stroke="#ccc" x1="866.6667" y1="30.0" x2="866.6667" y2="290.0" /><line stroke="#ccc" x1="1000.0" y1="30.0" x2="1000.0" y2="290.0" /><line stroke="#ccc" x1="1133.3334" y1="30.0" x2="1133.3334" y2="290.0" /></g><g ><g transform="translate(66.666664 50.0) rotate(1.074169954845469) " ><rect x="0" y="-2.5" height="5" width="1062.8541934157088" fill="#81BFFC" ><title >c6 → n2 {:element 0, :type "remove", :msg_id 1}</title></rect><use xlink:href="#ahead" x="1066.8541934157088" y="0" /><text text-anchor="middle" x="533.4270967078544" y="-4" transform="" filter="url(#glow)" style="fill: #fff" >remove {:element 0}</text><text text-anchor="middle" x="533.4270967078544" y="-4" transform="" >remove {:element 0}</text></g><g transform="translate(200.0 90.0) rotate(1.718357949246774) " ><rect x="0" y="-2.5" height="5" width="662.9666195329276" fill="#81BFFC" ><title >c7 → n0 {:type "read", :msg_id 1}</title></rect><use xlink:href="#ahead" x="666.9666195329276" y="0" /><text text-anchor="middle" x="333.4833097664638" y="-4" transform="" filter="url(#glow)" style="fill: #fff" >read {}</text><text text-anchor="middle" x="333.4833097664638" y="-4" transform="" >read {}</text></g><g transform="translate(333.33334 130.0) rotate(1.7183580278598) " ><rect x="0" y="-2.5" height="5" width="662.9665890290731" fill="#81BFFC" ><title >c8 → n1 {:element 0, :type "add", :msg_id 1}</title></rect><use xlink:href="#ahead" x="666.9665890290731" y="0" /><text text-anchor="middle" x="333.48329451453657" y="-4" transform="" filter="url(#glow)" style="fill: #fff" >add {:element 0}</text><text text-anchor="middle" x="333.48329451453657" y="-4" transform="" >add {:element 0}</text></g><g transform="translate(466.66666 170.0) rotate(4.28915324731521) " ><rect x="0" y="-2.5" height="5" width="530.8312400142114" fill="#81BFFC" ><title >c9 → n1 {:type "read", :msg_id 1}</title></rect><use xlink:href="#ahead" x="534.8312400142114" y="0" /><text text-anchor="middle" x="267.4156200071057" y="-4" transform="" filter="url(#glow)" style="fill: #fff" >read {}</text><text text-anchor="middle" x="267.4156200071057" y="-4" transform="" >read {}</text></g><g transform="translate(600.0 190.0) rotate(4.289153002803799) " ><rect x="0" y="-2.5" height="5" width="530.8312704463192" fill="#81BFFC" ><title >c10 → n2 {:type "read", :msg_id 1}</title></rect><use xlink:href="#ahead" x="534.8312704463192" y="0" /><text text-anchor="middle" x="267.4156352231596" y="-4" transform="" filter="url(#glow)" style="fill: #fff" >read {}</text><text text-anchor="middle" x="267.4156352231596" y="-4" transform="" >read {}</text></g><g transform="translate(733.3333 250.0) rotate(8.53076304487052) " ><rect x="0" y="-2.5" height="5" width="130.8250296809679" fill="#81BFFC" ><title >c11 → n0 {:type "read", :msg_id 1}</title></rect><use xlink:href="#ahead" x="134.8250296809679" y="0" /><text text-anchor="middle" x="67.41251484048395" y="-4" transform="" filter="url(#glow)" style="fill: #fff" >read {}</text><text text-anchor="middle" x="67.41251484048395" y="-4" transform="" >read {}</text></g></g></svg>