<?xml version="1.0" encoding="UTF-8"?><svg xmlns:svg="http://www.w3.org/2000/svg" xmlns="http://www.w3.org/2000/svg" xmlns:xlink="http://www.w3.org/1999/xlink" version="2.0" width="1200" height="820" ><style >
svg {
  font-family: Helvetica, Arial, sans-serif;
  font-size: 11px;
}
rect {
  stroke-linecap: butt;
  stroke-width: 3;
  stroke: #fff;
/*  stroke-opacity: 1; */
}
rect:hover {
  stroke: #fff;
/*  stroke-opacity: 1; /*
}
polygon { fill: #000; }</style><defs ><polygon id="ahead" points="0 0, -12 4, -12 -4" /><filter id="glow" x="0" y="0" ><feGaussianBlur in="SourceAlpha" stdDeviation="2" result="blurred" /><feFlood flood-color="#fff" /><feComposite operator="in" in2="blurred" /><feComponentTransfer ><feFuncA type="linear" slope="10" intercept="0" /></feComponentTransfer><feMerge ><feMergeNode /><feMergeNode in="SourceGraphic" /></feMerge></filter></defs><g ><text x="100.0" y="20.0" text-anchor="middle" alignment-baseline="middle" fill="#000" >c4</text><text x="300.0" y="20.0" text-anchor="middle" alignment-baseline="middle" fill="#000" >c5</text><text x="500.0" y="20.0" text-anchor="middle" alignment-baseline="middle" fill="#000" >c6</text><text x="700.0" y="20.0" text-anchor="middle" alignment-baseline="middle" fill="#000" >c7</text><text x="900.0" y="20.0" text-anchor="middle" alignment-baseline="middle" fill="#000" >n0</text><text x="1100.0" y="20.0" text-anchor="middle" alignment-baseline="middle" fill="#000" >n1</text></g><g ><line stroke="#ccc" x1="100.0" y1="30.0" x2="100.0" y2="730.0" /><line stroke="#ccc" x1="300.0" y1="30.0" x2="300.0" y2="730.0" /><line stroke="#ccc" x1="500.0" y1="30.0" x2="500.0" y2="730.0" /><line stroke="#ccc" x1="700.0" y1="30.0" x2="700.0" y2="730.0" /><line stroke="#ccc" x1="900.0" y1="30.0" x2="900.0" y2="730.0" /><line stroke="#ccc" x1="1100.0" y1="30.0" x2="1100.0" y2="730.0" /></g><g ><g transform="translate(100.0 50.0) rotate(1.1457628381751035) " ><rect x="0" y="-2.5" height="5" width="996.199980003999" fill="#81BFFC" ><title >c4 → n1 {:type "lock", :msg_id 1}</title></rect><use xlink:href="#ahead" x="1000.199980003999" y="0" /><text text-anchor="middle" x="500.0999900019995" y="-4" transform="" filter="url(#glow)" style="fill: #fff" >lock {}</text><text text-anchor="middle" x="500.0999900019995" y="-4" transform="" >lock {}</text></g><g transform="translate(1100.0 90.0) rotate(174.28940686250036) " ><rect x="0" y="-2.5" height="5" width="196.9975124224178" fill="#000" ><title >n1 → n0 {:msg_id 2, :type "request_lock", :timestamp 1}</title></rect><use xlink:href="#ahead" x="200.9975124224178" y="0" /><text text-anchor="middle" x="100.4987562112089" y="-4" transform="rotate(180 100.4987562112089 0)" filter="url(#glow)" style="fill: #fff" >request_lock {:timestamp 1}</text><text text-anchor="middle" x="100.4987562112089" y="-4" transform="rotate(180 100.4987562112089 0)" >request_lock {:timestamp 1}</text></g><g transform="translate(1100.0 130.0) rotate(90.0) " ><rect x="0" y="-2.5" height="5" width="16.0" fill="#000" ><title >n1 → n1 {:msg_id 3, :type "request_lock", :timestamp 1}</title></rect><use xlink:href="#ahead" x="20.0" y="0" /><text text-anchor="middle" x="10.0" y="-4" transform="rotate(180 10.0 0)" filter="url(#glow)" style="fill: #fff" >request_lock {:timestamp 1}</text><text text-anchor="middle" x="10.0" y="-4" transform="rotate(180 10.0 0)" >request_lock {:timestamp 1}</text></g><g transform="translate(900.0 170.0) rotate(11.309932474020215) " ><rect x="0" y="-2.5" height="5" width="199.9607805437114" fill="#000" ><title >n0 → n1 {:msg_id 2, :in_reply_to 2, :type "ack", :timestamp 1}</title></rect><use xlink:href="#ahead" x="203.9607805437114" y="0" /><text text-anchor="middle" x="101.9803902718557" y="-4" transform="" filter="url(#glow)" style="fill: #fff" >ack {:timestamp 1}</text><text text-anchor="middle" x="101.9803902718557" y="-4" transform="" >ack {:timestamp 1}</text></g><g transform="translate(1100.0 190.0) rotate(90.0) " ><rect x="0" y="-2.5" height="5" width="36.0" fill="#000" ><title >n1 → n1 {:msg_id 4, :in_reply_to 3, :type "ack", :timestamp 1}</title></rect><use xlink:href="#ahead" x="40.0" y="0" /><text text-anchor="middle" x="20.0" y="-4" transform="rotate(180 20.0 0)" filter="url(#glow)" style="fill: #fff" >ack {:timestamp 1}</text><text text-anchor="middle" x="20.0" y="-4" transform="rotate(180 20.0 0)" >ack {:timestamp 1}</text></g><g transform="translate(300.0 250.0) rotate(1.4320961841646465) " ><rect x="0" y="-2.5" height="5" width="796.2499609497023" fill="#81BFFC" ><title >c5 → n1 {:type "lock", :msg_id 1}</title></rect><use xlink:href="#ahead" x="800.2499609497023" y="0" /><text text-anchor="middle" x="400.12498047485116" y="-4" transform="" filter="url(#glow)" style="fill: #fff" >lock {}</text><text text-anchor="middle" x="400.12498047485116" y="-4" transform="" >lock {}</text></g><g transform="translate(1100.0 290.0) rotate(174.28940686250036) " ><rect x="0" y="-2.5" height="5" width="196.9975124224178" fill="#000" ><title >n1 → n0 {:msg_id 5, :type "request_lock", :timestamp 3}</title></rect><use xlink:href="#ahead" x="200.9975124224178" y="0" /><text text-anchor="middle" x="100.4987562112089" y="-4" transform="rotate(180 100.4987562112089 0)" filter="url(#glow)" style="fill: #fff" >request_lock {:timestamp 3}</text><text text-anchor="middle" x="100.4987562112089" y="-4" transform="rotate(180 100.4987562112089 0)" >request_lock {:timestamp 3}</text></g><g transform="translate(1100.0 330.0) rotate(90.0) " ><rect x="0" y="-2.5" height="5" width="16.0" fill="#000" ><title >n1 → n1 {:msg_id 6, :type "request_lock", :timestamp 3}</title></rect><use xlink:href="#ahead" x="20.0" y="0" /><text text-anchor="middle" x="10.0" y="-4" transform="rotate(180 10.0 0)" filter="url(#glow)" style="fill: #fff" >request_lock {:timestamp 3}</text><text text-anchor="middle" x="10.0" y="-4" transform="rotate(180 10.0 0)" >request_lock {:timestamp 3}</text></g><g transform="translate(900.0 370.0) rotate(5.710593137499643) " ><rect x="0" y="-2.5" height="5" width="196.9975124224178" fill="#000" ><title >n0 → n1 {:msg_id 3, :in_reply_to 5, :type "ack", :timestamp 2}</title></rect><use xlink:href="#ahead" x="200.9975124224178" y="0" /><text text-anchor="middle" x="100.4987562112089" y="-4" transform="" filter="url(#glow)" style="fill: #fff" >ack {:timestamp 2}</text><text text-anchor="middle" x="100.4987562112089" y="-4" transform="" >ack {:timestamp 2}</text></g><g transform="translate(1100.0 410.0) rotate(90.0) " ><rect x="0" y="-2.5" height="5" width="16.0" fill="#000" ><title >n1 → n1 {:msg_id 7, :in_reply_to 6, :type "ack", :timestamp 3}</title></rect><use xlink:href="#ahead" x="20.0" y="0" /><text text-anchor="middle" x="10.0" y="-4" transform="rotate(180 10.0 0)" filter="url(#glow)" style="fill: #fff" >ack {:timestamp 3}</text><text text-anchor="middle" x="10.0" y="-4" transform="rotate(180 10.0 0)" >ack {:timestamp 3}</text></g><g transform="translate(500.0 450.0) rotate(2.862405226111748) " ><rect x="0" y="-2.5" height="5" width="396.4996878900157" fill="#81BFFC" ><title >c6 → n0 {:type "lock", :msg_id 1}</title></rect><use xlink:href="#ahead" x="400.4996878900157" y="0" /><text text-anchor="middle" x="200.24984394500785" y="-4" transform="" filter="url(#glow)" style="fill: #fff" >lock {}</text><text text-anchor="middle" x="200.24984394500785" y="-4" transform="" >lock {}</text></g><g transform="translate(900.0 490.0) rotate(90.0) " ><rect x="0" y="-2.5" height="5" width="16.0" fill="#000" ><title >n0 → n0 {:msg_id 4, :type "request_lock", :timestamp 3}</title></rect><use xlink:href="#ahead" x="20.0" y="0" /><text text-anchor="middle" x="10.0" y="-4" transform="rotate(180 10.0 0)" filter="url(#glow)" style="fill: #fff" >request_lock {:timestamp 3}</text><text text-anchor="middle" x="10.0" y="-4" transform="rotate(180 10.0 0)" >request_lock {:timestamp 3}</text></g><g transform="translate(900.0 530.0) rotate(5.710593137499643) " ><rect x="0" y="-2.5" height="5" width="196.9975124224178" fill="#000" ><title >n0 → n1 {:msg_id 5, :type "request_lock", :timestamp 3}</title></rect><use xlink:href="#ahead" x="200.9975124224178" y="0" /><text text-anchor="middle" x="100.4987562112089" y="-4" transform="" filter="url(#glow)" style="fill: #fff" >request_lock {:timestamp 3}</text><text text-anchor="middle" x="100.4987562112089" y="-4" transform="" >request_lock {:timestamp 3}</text></g><g transform="translate(900.0 570.0) rotate(90.0) " ><rect x="0" y="-2.5" height="5" width="36.0" fill="#000" ><title >n0 → n0 {:msg_id 6, :in_reply_to 4, :type "ack", :timestamp 3}</title></rect><use xlink:href="#ahead" x="40.0" y="0" /><text text-anchor="middle" x="20.0" y="-4" transform="rotate(180 20.0 0)" filter="url(#glow)" style="fill: #fff" >ack {:timestamp 3}</text><text text-anchor="middle" x="20.0" y="-4" transform="rotate(180 20.0 0)" >ack {:timestamp 3}</text></g><g transform="translate(1100.0 590.0) rotate(168.69006752597983) " ><rect x="0" y="-2.5" height="5" width="199.9607805437114" fill="#000" ><title >n1 → n0 {:msg_id 8, :in_reply_to 5, :type "ack", :timestamp 5}</title></rect><use xlink:href="#ahead" x="203.9607805437114" y="0" /><text text-anchor="middle" x="101.9803902718557" y="-4" transform="rotate(180 101.9803902718557 0)" filter="url(#glow)" style="fill: #fff" >ack {:timestamp 5}</text><text text-anchor="middle" x="101.9803902718557" y="-4" transform="rotate(180 101.9803902718557 0)" >ack {:timestamp 5}</text></g><g transform="translate(900.0 650.0) rotate(5.710593137499643) " ><rect x="0" y="-2.5" height="5" width="196.9975124224178" fill="#000" ><title >n0 → n1 {:msg_id 7, :in_reply_to 8, :type "lock_ok"}</title></rect><use xlink:href="#ahead" x="200.9975124224178" y="0" /><text text-anchor="middle" x="100.4987562112089" y="-4" transform="" filter="url(#glow)" style="fill: #fff" >lock_ok {}</text><text text-anchor="middle" x="100.4987562112089" y="-4" transform="" >lock_ok {}</text></g><g transform="translate(700.0 690.0) rotate(5.710593137499643) " ><rect x="0" y="-2.5" height="5" width="196.9975124224178" fill="#81BFFC" ><title >c7 → n0 {:type "lock", :msg_id 1}</title></rect><use xlink:href="#ahead" x="200.9975124224178" y="0" /><text text-anchor="middle" x="100.4987562112089" y="-4" transform="" filter="url(#glow)" style="fill: #fff" >lock {}</text><text text-anchor="middle" x="100.4987562112089" y="-4" transform="" >lock {}</text></g></g></svg>