<?xml version="1.0" encoding="UTF-8"?><svg xmlns:svg="http://www.w3.org/2000/svg" xmlns="http://www.w3.org/2000/svg" xmlns:xlink="http://www.w3.org/1999/xlink" version="2.0" width="1200" height="860" ><style >
svg {
  font-family: Helvetica, Arial, sans-serif;
  font-size: 11px;
}
rect {
  stroke-linecap: butt;
  stroke-width: 3;
  stroke: #fff;
/*  stroke-opacity: 1; */
}
rect:hover {
  stroke: #fff;
/*  stroke-opacity: 1; /*
}
polygon { fill: #000; }</style><defs ><polygon id="ahead" points="0 0, -12 4, -12 -4" /><filter id="glow" x="0" y="0" ><feGaussianBlur in="SourceAlpha" stdDeviation="2" result="blurred" /><feFlood flood-color="#fff" /><feComposite operator="in" in2="blurred" /><feComponentTransfer ><feFuncA type="linear" slope="10" intercept="0" /></feComponentTransfer><feMerge ><feMergeNode /><feMergeNode in="SourceGraphic" /></feMerge></filter></defs><g ><text x="50.0" y="20.0" text-anchor="middle" alignment-baseline="middle" fill="#000" >c6</text><text x="150.0" y="20.0" text-anchor="middle" alignment-baseline="middle" fill="#000" >c7</text><text x="250.0" y="20.0" text-anchor="middle" alignment-baseline="middle" fill="#000" >c8</text><text x="350.0" y="20.0" text-anchor="middle" alignment-baseline="middle" fill="#000" >c9</text><text x="450.0" y="20.0" text-anchor="middle" alignment-baseline="middle" fill="#000" >c10</text><text x="550.0" y="20.0" text-anchor="middle" alignment-baseline="middle" fill="#000" >c11</text><text x="650.0" y="20.0" text-anchor="middle" alignment-baseline="middle" fill="#000" >c12</text><text x="750.0" y="20.0" text-anchor="middle" alignment-baseline="middle" fill="#000" >c13</text><text x="850.0" y="20.0" text-anchor="middle" alignment-baseline="middle" fill="#000" >c14</text><text x="950.0" y="20.0" text-anchor="middle" alignment-baseline="middle" fill="#000" >n0</text><text x="1050.0" y="20.0" text-anchor="middle" alignment-baseline="middle" fill="#000" >n1</text><text x="1150.0" y="20.0" text-anchor="middle" alignment-baseline="middle" fill="#000" >n2</text></g><g ><line stroke="#ccc" x1="50.0" y1="30.0" x2="50.0" y2="770.0" /><line stroke="#ccc" x1="150.0" y1="30.0" x2="150.0" y2="770.0" /><line stroke="#ccc" x1="250.0" y1="30.0" x2="250.0" y2="770.0" /><line stroke="#ccc" x1="350.0" y1="30.0" x2="350.0" y2="770.0" /><line stroke="#ccc" x1="450.0" y1="30.0" x2="450.0" y2="770.0" /><line stroke="#ccc" x1="550.0" y1="30.0" x2="550.0" y2="770.0" /><line stroke="#ccc" x1="650.0" y1="30.0" x2="650.0" y2="770.0" /><line stroke="#ccc" x1="750.0" y1="30.0" x2="750.0" y2="770.0" /><line stroke="#ccc" x1="850.0" y1="30.0" x2="850.0" y2="770.0" /><line stroke="#ccc" x1="950.0" y1="30.0" x2="950.0" y2="770.0" /><line stroke="#ccc" x1="1050.0" y1="30.0" x2="1050.0" y2="770.0" /><line stroke="#ccc" x1="1150.0" y1="30.0" x2="1150.0" y2="770.0" /></g><g ><g transform="translate(50.0 50.0) rotate(1.0416266760099742) " ><rect x="0" y="-2.5" height="5" width="1096.1818031580053" fill="#81BFFC" ><title >c6 → n2 {:element 0, :type "remove", :msg_id 1}</title></rect><use xlink:href="#ahead" x="1100.1818031580053" y="0" /><text text-anchor="middle" x="550.0909015790027" y="-4" transform="" filter="url(#glow)" style="fill: #fff" >remove {:element 0}</text><text text-anchor="middle" x="550.0909015790027" y="-4" transform="" >remove {:element 0}</text></g><g transform="translate(1150.0 90.0) rotate(178.95837332399006) " ><rect x="0" y="-2.5" height="5" width="1096.1818031580053" fill="#FF1E90" ><title >n2 → c6 {:msg_id 2, :in_reply_to 1, :type "error", :code 200, :message "element not in set"}</title></rect><use xlink:href="#ahead" x="1100.1818031580053" y="0" /><text text-anchor="middle" x="550.0909015790027" y="-4" transform="rotate(180 550.0909015790027 0)" filter="url(#glow)" style="fill: #fff" >error </text><text text-anchor="middle" x="550.0909015790027" y="-4" transform="rotate(180 550.0909015790027 0)" >error </text></g><g transform="translate(150.0 130.0) rotate(1.1457628381751035) " ><rect x="0" y="-2.5" height="5" width="996.199980003999" fill="#81BFFC" ><title >c7 → n2 {:type "read", :msg_id 1}</title></rect><use xlink:href="#ahead" x="1000.199980003999" y="0" /><text text-anchor="middle" x="500.0999900019995" y="-4" transform="" filter="url(#glow)" style="fill: #fff" >read {}</text><text text-anchor="middle" x="500.0999900019995" y="-4" transform="" >read {}</text></g><g transform="translate(1150.0 170.0) rotate(178.8542371618249) " ><rect x="0" y="-2.5" height="5" width="996.199980003999" fill="#81BFFC" ><title >n2 → c7 {:msg_id 3, :in_reply_to 1, :type "read_ok", :values {"0" []}}</title></rect><use xlink:href="#ahead" x="1000.199980003999" y="0" /><text text-anchor="middle" x="500.0999900019995" y="-4" transform="rotate(180 500.0999900019995 0)" filter="url(#glow)" style="fill: #fff" >read_ok {:values {"0" []}}</text><text text-anchor="middle" x="500.0999900019995" y="-4" transform="rotate(180 500.0999900019995 0)" >read_ok {:values {"0" []}}</text></g><g transform="translate(250.0 210.0) rotate(1.6365770416167182) " ><rect x="0" y="-2.5" height="5" width="696.2856560004639" fill="#81BFFC" ><title >c8 → n0 {:element 0, :type "add", :msg_id 1}</title></rect><use xlink:href="#ahead" x="700.2856560004639" y="0" /><text text-anchor="middle" x="350.14282800023193" y="-4" transform="" filter="url(#glow)" style="fill: #fff" >add {:element 0}</text><text text-anchor="middle" x="350.14282800023193" y="-4" transform="" >add {:element 0}</text></g><g transform="translate(950.0 250.0) rotate(11.309932474020215) " ><rect x="0" y="-2.5" height="5" width="97.9803902718557" fill="#000" ><title >n0 → n1 {:msg_id 2, :type "fwd_add", :element 0, :id ["n0" 1], :r [], :vv {"n0" 1, "n1" 0, "n2" 0}}</title></rect><use xlink:href="#ahead" x="101.9803902718557" y="0" /><text text-anchor="middle" x="50.99019513592785" y="-4" transform="" filter="url(#glow)" style="fill: #fff" >fwd_add {:element 0, :id ["n0" 1], :r [], :vv {…</text><text text-anchor="middle" x="50.99019513592785" y="-4" transform="" >fwd_add {:element 0, :id ["n0" 1], :r [], :vv {…</text></g><g transform="translate(950.0 290.0) rotate(5.710593137499643) " ><rect x="0" y="-2.5" height="5" width="196.9975124224178" fill="#000" ><title >n0 → n2 {:msg_id 3, :type "fwd_add", :element 0, :id ["n0" 1], :r [], :vv {"n0" 1, "n1" 0, "n2" 0}}</title></rect><use xlink:href="#ahead" x="200.9975124224178" y="0" /><text text-anchor="middle" x="100.4987562112089" y="-4" transform="" filter="url(#glow)" style="fill: #fff" >fwd_add {:element 0, :id ["n0" 1], :r [], :vv {…</text><text text-anchor="middle" x="100.4987562112089" y="-4" transform="" >fwd_add {:element 0, :id ["n0" 1], :r [], :vv {…</text></g><g transform="translate(350.0 330.0) rotate(1.4320961841646465) " ><rect x="0" y="-2.5" height="5" width="796.2499609497023" fill="#81BFFC" ><title >c9 → n2 {:type "read", :msg_id 1}</title></rect><use xlink:href="#ahead" x="800.2499609497023" y="0" /><text text-anchor="middle" x="400.12498047485116" y="-4" transform="" filter="url(#glow)" style="fill: #fff" >read {}</text><text text-anchor="middle" x="400.12498047485116" y="-4" transform="" >read {}</text></g><g transform="translate(1150.0 370.0) rotate(178.56790381583536) " ><rect x="0" y="-2.5" height="5" width="796.2499609497023" fill="#81BFFC" ><title >n2 → c9 {:msg_id 4, :in_reply_to 1, :type "read_ok", :values {"0" [["n0" 1]]}}</title></rect><use xlink:href="#ahead" x="800.2499609497023" y="0" /><text text-anchor="middle" x="400.12498047485116" y="-4" transform="rotate(180 400.12498047485116 0)" filter="url(#glow)" style="fill: #fff" >read_ok {:values {"0" [["n0" 1]]}}</text><text text-anchor="middle" x="400.12498047485116" y="-4" transform="rotate(180 400.12498047485116 0)" >read_ok {:values {"0" [["n0" 1]]}}</text></g><g transform="translate(450.0 410.0) rotate(1.9091524329963763) " ><rect x="0" y="-2.5" height="5" width="596.3332407921454" fill="#81BFFC" ><title >c10 → n1 {:element 0, :type "remove", :msg_id 1}</title></rect><use xlink:href="#ahead" x="600.3332407921454" y="0" /><text text-anchor="middle" x="300.1666203960727" y="-4" transform="" filter="url(#glow)" style="fill: #fff" >remove {:element 0}</text><text text-anchor="middle" x="300.1666203960727" y="-4" transform="" >remove {:element 0}</text></g><g transform="translate(550.0 450.0) rotate(1.9091524329963763) " ><rect x="0" y="-2.5" height="5" width="596.3332407921454" fill="#81BFFC" ><title >c11 → n2 {:element 1, :type "add", :msg_id 1}</title></rect><use xlink:href="#ahead" x="600.3332407921454" y="0" /><text text-anchor="middle" x="300.1666203960727" y="-4" transform="" filter="url(#glow)" style="fill: #fff" >add {:element 1}</text><text text-anchor="middle" x="300.1666203960727" y="-4" transform="" >add {:element 1}</text></g><g transform="translate(1150.0 490.0) rotate(168.69006752597983) " ><rect x="0" y="-2.5" height="5" width="199.9607805437114" fill="#000" ><title >n2 → n0 {:msg_id 5, :type "fwd_add", :element 1, :id ["n2" 1], :r [], :vv {"n0" 1, "n1" 0, "n2" 2}}</title></rect><use xlink:href="#ahead" x="203.9607805437114" y="0" /><text text-anchor="middle" x="101.9803902718557" y="-4" transform="rotate(180 101.9803902718557 0)" filter="url(#glow)" style="fill: #fff" >fwd_add {:element 1, :id ["n2" 1], :r [], :vv {…</text><text text-anchor="middle" x="101.9803902718557" y="-4" transform="rotate(180 101.9803902718557 0)" >fwd_add {:element 1, :id ["n2" 1], :r [], :vv {…</text></g><g transform="translate(1150.0 510.0) rotate(158.19859051364818) " ><rect x="0" y="-2.5" height="5" width="103.70329614269008" fill="#000" ><title >n2 → n1 {:msg_id 6, :type "fwd_add", :element 1, :id ["n2" 1], :r [], :vv {"n0" 1, "n1" 0, "n2" 2}}</title></rect><use xlink:href="#ahead" x="107.70329614269008" y="0" /><text text-anchor="middle" x="53.85164807134504" y="-4" transform="rotate(180 53.85164807134504 0)" filter="url(#glow)" style="fill: #fff" >fwd_add {:element 1, :id ["n2" 1], :r [], :vv {…</text><text text-anchor="middle" x="53.85164807134504" y="-4" transform="rotate(180 53.85164807134504 0)" >fwd_add {:element 1, :id ["n2" 1], :r [], :vv {…</text></g><g transform="translate(650.0 570.0) rotate(8.530765609948133) " ><rect x="0" y="-2.5" height="5" width="400.4749683231337" fill="#81BFFC" ><title >c12 → n1 {:type "read", :msg_id 1}</title></rect><use xlink:href="#ahead" x="404.4749683231337" y="0" /><text text-anchor="middle" x="202.23748416156684" y="-4" transform="" filter="url(#glow)" style="fill: #fff" >read {}</text><text text-anchor="middle" x="202.23748416156684" y="-4" transform="" >read {}</text></g><g transform="translate(850.0 610.0) rotate(7.594643368591445) " ><rect x="0" y="-2.5" height="5" width="298.65491900843114" fill="#81BFFC" ><title >c14 → n2 {:type "read", :msg_id 1}</title></rect><use xlink:href="#ahead" x="302.65491900843114" y="0" /><text text-anchor="middle" x="151.32745950421557" y="-4" transform="" filter="url(#glow)" style="fill: #fff" >read {}</text><text text-anchor="middle" x="151.32745950421557" y="-4" transform="" >read {}</text></g><g transform="translate(750.0 590.0) rotate(21.801409486351815) " ><rect x="0" y="-2.5" height="5" width="211.40659228538016" fill="#81BFFC" ><title >c13 → n0 {:type "read", :msg_id 1}</title></rect><use xlink:href="#ahead" x="215.40659228538016" y="0" /><text text-anchor="middle" x="107.70329614269008" y="-4" transform="" filter="url(#glow)" style="fill: #fff" >read {}</text><text text-anchor="middle" x="107.70329614269008" y="-4" transform="" >read {}</text></g><g transform="translate(950.0 690.0) rotate(168.69006752597983) " ><rect x="0" y="-2.5" height="5" width="199.9607805437114" fill="#81BFFC" ><title >n0 → c13 {:msg_id 4, :in_reply_to 1, :type "read_ok", :values {"0" ["n0" 1]}}</title></rect><use xlink:href="#ahead" x="203.9607805437114" y="0" /><text text-anchor="middle" x="101.9803902718557" y="-4" transform="rotate(180 101.9803902718557 0)" filter="url(#glow)" style="fill: #fff" >read_ok {:values {"0" ["n0" 1]}}</text><text text-anchor="middle" x="101.9803902718557" y="-4" transform="rotate(180 101.9803902718557 0)" >read_ok {:values {"0" ["n0" 1]}}</text></g><g transform="translate(1150.0 710.0) rotate(172.40535663140858) " ><rect x="0" y="-2.5" height="5" width="298.65491900843114" fill="#81BFFC" ><title >n2 → c14 {:msg_id 7, :in_reply_to 1, :type "read_ok", :values {"0" [["n0" 1]], "1" ["n2" 1]}}</title></rect><use xlink:href="#ahead" x="302.65491900843114" y="0" /><text text-anchor="middle" x="151.32745950421557" y="-4" transform="rotate(180 151.32745950421557 0)" filter="url(#glow)" style="fill: #fff" >read_ok {:values {"0" [["n0" 1]], "1" ["n2" 1]}}</text><text text-anchor="middle" x="151.32745950421557" y="-4" transform="rotate(180 151.32745950421557 0)" >read_ok {:values {"0" [["n0" 1]], "1" ["n2" 1]}}</text></g></g></svg>