<?xml version="1.0" encoding="UTF-8"?><svg xmlns:svg="http://www.w3.org/2000/svg" xmlns="http://www.w3.org/2000/svg" xmlns:xlink="http://www.w3.org/1999/xlink" version="2.0" width="1200" height="260" ><style >
svg {
  font-family: Helvetica, Arial, sans-serif;
  font-size: 11px;
}
rect {
  stroke-linecap: butt;
  stroke-width: 3;
  stroke: #fff;
/*  stroke-opacity: 1; */
}
rect:hover {
  stroke: #fff;
/*  stroke-opacity: 1; /*
}
polygon { fill: #000; }</style><defs ><polygon id="ahead" points="0 0, -12 4, -12 -4" /><filter id="glow" x="0" y="0" ><feGaussianBlur in="SourceAlpha" stdDeviation="2" result="blurred" /><feFlood flood-color="#fff" /><feComposite operator="in" in2="blurred" /><feComponentTransfer ><feFuncA type="linear" slope="10" intercept="0" /></feComponentTransfer><feMerge ><feMergeNode /><feMergeNode in="SourceGraphic" /></feMerge></filter></defs><g ><text x="100.0" y="20.0" text-anchor="middle" alignment-baseline="middle" fill="#000" >c6</text><text x="300.0" y="20.0" text-anchor="middle" alignment-baseline="middle" fill="#000" >c7</text><text x="500.0" y="20.0" text-anchor="middle" alignment-baseline="middle" fill="#000" >c8</text><text x="700.0" y="20.0" text-anchor="middle" alignment-baseline="middle" fill="#000" >n0</text><text x="900.0" y="20.0" text-anchor="middle" alignment-baseline="middle" fill="#000" >n1</text><text x="1100.0" y="20.0" text-anchor="middle" alignment-baseline="middle" fill="#000" >n2</text></g><g ><line stroke="#ccc" x1="100.0" y1="30.0" x2="100.0" y2="170.0" /><line stroke="#ccc" x1="300.0" y1="30.0" x2="300.0" y2="170.0" /><line stroke="#ccc" x1="500.0" y1="30.0" x2="500.0" y2="170.0" /><line stroke="#ccc" x1="700.0" y1="30.0" x2="700.0" y2="170.0" /><line stroke="#ccc" x1="900.0" y1="30.0" x2="900.0" y2="170.0" /><line stroke="#ccc" x1="1100.0" y1="30.0" x2="1100.0" y2="170.0" /></g><g ><g transform="translate(100.0 50.0) rotate(1.1457628381751035) " ><rect x="0" y="-2.5" height="5" width="996.199980003999" fill="#81BFFC" ><title >c6 → n2 {:type "cbcast", :message 1, :msg_id 1}</title></rect><use xlink:href="#ahead" x="1000.199980003999" y="0" /><text text-anchor="middle" x="500.0999900019995" y="-4" transform="" filter="url(#glow)" style="fill: #fff" >cbcast {:message 1}</text><text text-anchor="middle" x="500.0999900019995" y="-4" transform="" >cbcast {:message 1}</text></g><g transform="translate(300.0 90.0) rotate(2.862405226111748) " ><rect x="0" y="-2.5" height="5" width="396.4996878900157" fill="#81BFFC" ><title >c7 → n0 {:type "cbcast", :message 2, :msg_id 1}</title></rect><use xlink:href="#ahead" x="400.4996878900157" y="0" /><text text-anchor="middle" x="200.24984394500785" y="-4" transform="" filter="url(#glow)" style="fill: #fff" >cbcast {:message 2}</text><text text-anchor="middle" x="200.24984394500785" y="-4" transform="" >cbcast {:message 2}</text></g><g transform="translate(500.0 130.0) rotate(2.862405226111748) " ><rect x="0" y="-2.5" height="5" width="396.4996878900157" fill="#81BFFC" ><title >c8 → n1 {:type "cbcast", :message 3, :msg_id 1}</title></rect><use xlink:href="#ahead" x="400.4996878900157" y="0" /><text text-anchor="middle" x="200.24984394500785" y="-4" transform="" filter="url(#glow)" style="fill: #fff" >cbcast {:message 3}</text><text text-anchor="middle" x="200.24984394500785" y="-4" transform="" >cbcast {:message 3}</text></g></g></svg>