<?xml version="1.0" encoding="UTF-8"?><svg xmlns:svg="http://www.w3.org/2000/svg" xmlns="http://www.w3.org/2000/svg" xmlns:xlink="http://www.w3.org/1999/xlink" version="2.0" width="1200" height="620" ><style >
svg {
  font-family: Helvetica, Arial, sans-serif;
  font-size: 11px;
}
rect {
  stroke-linecap: butt;
  stroke-width: 3;
  stroke: #fff;
/*  stroke-opacity: 1; */
}
rect:hover {
  stroke: #fff;
/*  stroke-opacity: 1; /*
}
polygon { fill: #000; }</style><defs ><polygon id="ahead" points="0 0, -12 4, -12 -4" /><filter id="glow" x="0" y="0" ><feGaussianBlur in="SourceAlpha" stdDeviation="2" result="blurred" /><feFlood flood-color="#fff" /><feComposite operator="in" in2="blurred" /><feComponentTransfer ><feFuncA type="linear" slope="10" intercept="0" /></feComponentTransfer><feMerge ><feMergeNode /><feMergeNode in="SourceGraphic" /></feMerge></filter></defs><g ><text x="66.666664" y="20.0" text-anchor="middle" alignment-baseline="middle" fill="#000" >c6</text><text x="200.0" y="20.0" text-anchor="middle" alignment-baseline="middle" fill="#000" >c7</text><text x="333.33334" y="20.0" text-anchor="middle" alignment-baseline="middle" fill="#000" >c8</text><text x="466.66666" y="20.0" text-anchor="middle" alignment-baseline="middle" fill="#000" >c9</text><text x="600.0" y="20.0" text-anchor="middle" alignment-baseline="middle" fill="#000" >c10</text><text x="733.3333" y="20.0" text-anchor="middle" alignment-baseline="middle" fill="#000" >c11</text><text x="866.6667" y="20.0" text-anchor="middle" alignment-baseline="middle" fill="#000" >n0</text><text x="1000.0" y="20.0" text-anchor="middle" alignment-baseline="middle" fill="#000" >n1</text><text x="1133.3334" y="20.0" text-anchor="middle" alignment-baseline="middle" fill="#000" >n2</text></g><g ><line stroke="#ccc" x1="66.666664" y1="30.0" x2="66.666664" y2="530.0" /><line stroke="#ccc" x1="200.0" y1="30.0" x2="200.0" y2="530.0" /><line stroke="#ccc" x1="333.33334" y1="30.0" x2="333.33334" y2="530.0" /><line stroke="#ccc" x1="466.66666" y1="30.0" x2="466.66666" y2="530.0" /><line stroke="#ccc" x1="600.0" y1="30.0" x2="600.0" y2="530.0" /><line stroke="#ccc" x1="733.3333" y1="30.0" x2="733.3333" y2="530.0" /><line stroke="#ccc" x1="866.6667" y1="30.0" x2="866.6667" y2="530.0" /><line stroke="#ccc" x1="1000.0" y1="30.0" x2="1000.0" y2="530.0" /><line stroke="#ccc" x1="1133.3334" y1="30.0" x2="1133.3334" y2="530.0" /></g><g ><g transform="translate(66.666664 50.0) rotate(1.4320961432091097) " ><rect x="0" y="-2.5" height="5" width="796.2499838307366" fill="#81BFFC" ><title >c6 → n0 {:element 0, :type "add", :msg_id 1}</title></rect><use xlink:href="#ahead" x="800.2499838307366" y="0" /><text text-anchor="middle" x="400.1249919153683" y="-4" transform="" filter="url(#glow)" style="fill: #fff" >add {:element 0}</text><text text-anchor="middle" x="400.1249919153683" y="-4" transform="" >add {:element 0}</text></g><g transform="translate(866.6667 90.0) rotate(8.530766892487513) " ><rect x="0" y="-2.5" height="5" width="130.824969321083" fill="#000" ><title >n0 → n1 {:msg_id 2, :type "fwd_add", :element 0, :id ["n0" 1], :r [], :vv {"n0" 1, "n1" 0, "n2" 0}}</title></rect><use xlink:href="#ahead" x="134.824969321083" y="0" /><text text-anchor="middle" x="67.4124846605415" y="-4" transform="" filter="url(#glow)" style="fill: #fff" >fwd_add {:element 0, :id ["n0" 1], :r [], :vv {…</text><text text-anchor="middle" x="67.4124846605415" y="-4" transform="" >fwd_add {:element 0, :id ["n0" 1], :r [], :vv {…</text></g><g transform="translate(866.6667 130.0) rotate(4.289153002803799) " ><rect x="0" y="-2.5" height="5" width="263.4156352231596" fill="#000" ><title >n0 → n2 {:msg_id 3, :type "fwd_add", :element 0, :id ["n0" 1], :r [], :vv {"n0" 1, "n1" 0, "n2" 0}}</title></rect><use xlink:href="#ahead" x="267.4156352231596" y="0" /><text text-anchor="middle" x="133.7078176115798" y="-4" transform="" filter="url(#glow)" style="fill: #fff" >fwd_add {:element 0, :id ["n0" 1], :r [], :vv {…</text><text text-anchor="middle" x="133.7078176115798" y="-4" transform="" >fwd_add {:element 0, :id ["n0" 1], :r [], :vv {…</text></g><g transform="translate(200.0 170.0) rotate(1.4320961841646465) " ><rect x="0" y="-2.5" height="5" width="796.2499609497023" fill="#81BFFC" ><title >c7 → n1 {:element 0, :type "remove", :msg_id 1}</title></rect><use xlink:href="#ahead" x="800.2499609497023" y="0" /><text text-anchor="middle" x="400.12498047485116" y="-4" transform="" filter="url(#glow)" style="fill: #fff" >remove {:element 0}</text><text text-anchor="middle" x="400.12498047485116" y="-4" transform="" >remove {:element 0}</text></g><g transform="translate(333.33334 210.0) rotate(1.4320961295572647) " ><rect x="0" y="-2.5" height="5" width="796.2499914577481" fill="#81BFFC" ><title >c8 → n2 {:element 1, :type "add", :msg_id 1}</title></rect><use xlink:href="#ahead" x="800.2499914577481" y="0" /><text text-anchor="middle" x="400.12499572887407" y="-4" transform="" filter="url(#glow)" style="fill: #fff" >add {:element 1}</text><text text-anchor="middle" x="400.12499572887407" y="-4" transform="" >add {:element 1}</text></g><g transform="translate(1133.3334 250.0) rotate(175.7108469971962) " ><rect x="0" y="-2.5" height="5" width="263.4156352231596" fill="#000" ><title >n2 → n0 {:msg_id 2, :type "fwd_add", :element 1, :id ["n2" 1], :r [], :vv {"n0" 1, "n1" 0, "n2" 1}}</title></rect><use xlink:href="#ahead" x="267.4156352231596" y="0" /><text text-anchor="middle" x="133.7078176115798" y="-4" transform="rotate(180 133.7078176115798 0)" filter="url(#glow)" style="fill: #fff" >fwd_add {:element 1, :id ["n2" 1], :r [], :vv {…</text><text text-anchor="middle" x="133.7078176115798" y="-4" transform="rotate(180 133.7078176115798 0)" >fwd_add {:element 1, :id ["n2" 1], :r [], :vv {…</text></g><g transform="translate(1133.3334 290.0) rotate(171.46923695512947) " ><rect x="0" y="-2.5" height="5" width="130.8250296809679" fill="#000" ><title >n2 → n1 {:msg_id 3, :type "fwd_add", :element 1, :id ["n2" 1], :r [], :vv {"n0" 1, "n1" 0, "n2" 1}}</title></rect><use xlink:href="#ahead" x="134.8250296809679" y="0" /><text text-anchor="middle" x="67.41251484048395" y="-4" transform="rotate(180 67.41251484048395 0)" filter="url(#glow)" style="fill: #fff" >fwd_add {:element 1, :id ["n2" 1], :r [], :vv {…</text><text text-anchor="middle" x="67.41251484048395" y="-4" transform="rotate(180 67.41251484048395 0)" >fwd_add {:element 1, :id ["n2" 1], :r [], :vv {…</text></g><g transform="translate(733.3333 350.0) rotate(5.710592271891642) " ><rect x="0" y="-2.5" height="5" width="397.99508557708606" fill="#81BFFC" ><title >c11 → n2 {:type "read", :msg_id 1}</title></rect><use xlink:href="#ahead" x="401.99508557708606" y="0" /><text text-anchor="middle" x="200.99754278854303" y="-4" transform="" filter="url(#glow)" style="fill: #fff" >read {}</text><text text-anchor="middle" x="200.99754278854303" y="-4" transform="" >read {}</text></g><g transform="translate(466.66666 330.0) rotate(8.530765449630737) " ><rect x="0" y="-2.5" height="5" width="535.299967824159" fill="#81BFFC" ><title >c9 → n1 {:type "read", :msg_id 1}</title></rect><use xlink:href="#ahead" x="539.299967824159" y="0" /><text text-anchor="middle" x="269.6499839120795" y="-4" transform="" filter="url(#glow)" style="fill: #fff" >read {}</text><text text-anchor="middle" x="269.6499839120795" y="-4" transform="" >read {}</text></g><g transform="translate(600.0 370.0) rotate(12.680382555665464) " ><rect x="0" y="-2.5" height="5" width="269.3333531821647" fill="#81BFFC" ><title >c10 → n0 {:type "read", :msg_id 1}</title></rect><use xlink:href="#ahead" x="273.3333531821647" y="0" /><text text-anchor="middle" x="136.66667659108234" y="-4" transform="" filter="url(#glow)" style="fill: #fff" >read {}</text><text text-anchor="middle" x="136.66667659108234" y="-4" transform="" >read {}</text></g><g transform="translate(1133.3334 450.0) rotate(174.28940772810836) " ><rect x="0" y="-2.5" height="5" width="397.99508557708606" fill="#81BFFC" ><title >n2 → c11 {:msg_id 4, :in_reply_to 1, :type "read_ok", :values {"0" [["n0" 1]], "1" ["n2" 1]}}</title></rect><use xlink:href="#ahead" x="401.99508557708606" y="0" /><text text-anchor="middle" x="200.99754278854303" y="-4" transform="rotate(180 200.99754278854303 0)" filter="url(#glow)" style="fill: #fff" >read_ok {:values {"0" [["n0" 1]], "1" ["n2" 1]}}</text><text text-anchor="middle" x="200.99754278854303" y="-4" transform="rotate(180 200.99754278854303 0)" >read_ok {:values {"0" [["n0" 1]], "1" ["n2" 1]}}</text></g><g transform="translate(866.6667 470.0) rotate(171.4692350313214) " ><rect x="0" y="-2.5" height="5" width="265.6499990020507" fill="#81BFFC" ><title >n0 → c10 {:msg_id 4, :in_reply_to 1, :type "read_ok", :values {"0" ["n0" 1], "1" [["n2" 1]]}}</title></rect><use xlink:href="#ahead" x="269.6499990020507" y="0" /><text text-anchor="middle" x="134.82499950102536" y="-4" transform="rotate(180 134.82499950102536 0)" filter="url(#glow)" style="fill: #fff" >read_ok {:values {"0" ["n0" 1], "1" [["n2" 1]]}}</text><text text-anchor="middle" x="134.82499950102536" y="-4" transform="rotate(180 134.82499950102536 0)" >read_ok {:values {"0" ["n0" 1], "1" [["n2" 1]]}}</text></g></g></svg>