<?xml version="1.0" encoding="UTF-8"?><svg xmlns:svg="http://www.w3.org/2000/svg" xmlns="http://www.w3.org/2000/svg" xmlns:xlink="http://www.w3.org/1999/xlink" version="2.0" width="1200" height="1140" ><style >
svg {
  font-family: Helvetica, Arial, sans-serif;
  font-size: 11px;
}
rect {
  stroke-linecap: butt;
  stroke-width: 3;
  stroke: #fff;
/*  stroke-opacity: 1; */
}
rect:hover {
  stroke: #fff;
/*  stroke-opacity: 1; /*
}
polygon { fill: #000; }</style><defs ><polygon id="ahead" points="0 0, -12 4, -12 -4" /><filter id="glow" x="0" y="0" ><feGaussianBlur in="SourceAlpha" stdDeviation="2" result="blurred" /><feFlood flood-color="#fff" /><feComposite operator="in" in2="blurred" /><feComponentTransfer ><feFuncA type="linear" slope="10" intercept="0" /></feComponentTransfer><feMerge ><feMergeNode /><feMergeNode in="SourceGraphic" /></feMerge></filter></defs><g ><text x="42.857143" y="20.0" text-anchor="middle" alignment-baseline="middle" fill="#000" >c6</text><text x="128.57143" y="20.0" text-anchor="middle" alignment-baseline="middle" fill="#000" >c7</text><text x="214.28572" y="20.0" text-anchor="middle" alignment-baseline="middle" fill="#000" >c8</text><text x="300.0" y="20.0" text-anchor="middle" alignment-baseline="middle" fill="#000" >c9</text><text x="385.7143" y="20.0" text-anchor="middle" alignment-baseline="middle" fill="#000" >c10</text><text x="471.42856" y="20.0" text-anchor="middle" alignment-baseline="middle" fill="#000" >c11</text><text x="557.1429" y="20.0" text-anchor="middle" alignment-baseline="middle" fill="#000" >c12</text><text x="642.8571" y="20.0" text-anchor="middle" alignment-baseline="middle" fill="#000" >c13</text><text x="728.5714" y="20.0" text-anchor="middle" alignment-baseline="middle" fill="#000" >c14</text><text x="814.2857" y="20.0" text-anchor="middle" alignment-baseline="middle" fill="#000" >c15</text><text x="900.0" y="20.0" text-anchor="middle" alignment-baseline="middle" fill="#000" >c16</text><text x="985.7143" y="20.0" text-anchor="middle" alignment-baseline="middle" fill="#000" >n0</text><text x="1071.4286" y="20.0" text-anchor="middle" alignment-baseline="middle" fill="#000" >n1</text><text x="1157.1428" y="20.0" text-anchor="middle" alignment-baseline="middle" fill="#000" >n2</text></g><g ><line stroke="#ccc" x1="42.857143" y1="30.0" x2="42.857143" y2="1050.0" /><line stroke="#ccc" x1="128.57143" y1="30.0" x2="128.57143" y2="1050.0" /><line stroke="#ccc" x1="214.28572" y1="30.0" x2="214.28572" y2="1050.0" /><line stroke="#ccc" x1="300.0" y1="30.0" x2="300.0" y2="1050.0" /><line stroke="#ccc" x1="385.7143" y1="30.0" x2="385.7143" y2="1050.0" /><line stroke="#ccc" x1="471.42856" y1="30.0" x2="471.42856" y2="1050.0" /><line stroke="#ccc" x1="557.1429" y1="30.0" x2="557.1429" y2="1050.0" /><line stroke="#ccc" x1="642.8571" y1="30.0" x2="642.8571" y2="1050.0" /><line stroke="#ccc" x1="728.5714" y1="30.0" x2="728.5714" y2="1050.0" /><line stroke="#ccc" x1="814.2857" y1="30.0" x2="814.2857" y2="1050.0" /><line stroke="#ccc" x1="900.0" y1="30.0" x2="900.0" y2="1050.0" /><line stroke="#ccc" x1="985.7143" y1="30.0" x2="985.7143" y2="1050.0" /><line stroke="#ccc" x1="1071.4286" y1="30.0" x2="1071.4286" y2="1050.0" /><line stroke="#ccc" x1="1157.1428" y1="30.0" x2="1157.1428" y2="1050.0" /></g><g ><g transform="translate(42.857143 50.0) rotate(1.2151827724863415) " ><rect x="0" y="-2.5" height="5" width="939.069248385942" fill="#81BFFC" ><title >c6 → n0 {:element 0, :type "add", :msg_id 1}</title></rect><use xlink:href="#ahead" x="943.069248385942" y="0" /><text text-anchor="middle" x="471.534624192971" y="-4" transform="" filter="url(#glow)" style="fill: #fff" >add {:element 0}</text><text text-anchor="middle" x="471.534624192971" y="-4" transform="" >add {:element 0}</text></g><g transform="translate(985.7143 90.0) rotate(13.13402101664945) " ><rect x="0" y="-2.5" height="5" width="84.01670449550359" fill="#000" ><title >n0 → n1 {:msg_id 2, :type "fwd_add", :element 0, :id ["n0" 1], :r [], :vv {"n0" 1, "n1" 0, "n2" 0}}</title></rect><use xlink:href="#ahead" x="88.01670449550359" y="0" /><text text-anchor="middle" x="44.008352247751795" y="-4" transform="" filter="url(#glow)" style="fill: #fff" >fwd_add {:element 0, :id ["n0" 1], :r [], :vv {…</text><text text-anchor="middle" x="44.008352247751795" y="-4" transform="" >fwd_add {:element 0, :id ["n0" 1], :r [], :vv {…</text></g><g transform="translate(985.7143 130.0) rotate(6.654426723137599) " ><rect x="0" y="-2.5" height="5" width="168.5912516747518" fill="#000" ><title >n0 → n2 {:msg_id 3, :type "fwd_add", :element 0, :id ["n0" 1], :r [], :vv {"n0" 1, "n1" 0, "n2" 0}}</title></rect><use xlink:href="#ahead" x="172.5912516747518" y="0" /><text text-anchor="middle" x="86.2956258373759" y="-4" transform="" filter="url(#glow)" style="fill: #fff" >fwd_add {:element 0, :id ["n0" 1], :r [], :vv {…</text><text text-anchor="middle" x="86.2956258373759" y="-4" transform="" >fwd_add {:element 0, :id ["n0" 1], :r [], :vv {…</text></g><g transform="translate(128.57143 170.0) rotate(1.2151827577412735) " ><rect x="0" y="-2.5" height="5" width="939.0692598274601" fill="#81BFFC" ><title >c7 → n1 {:type "read", :msg_id 1}</title></rect><use xlink:href="#ahead" x="943.0692598274601" y="0" /><text text-anchor="middle" x="471.53462991373004" y="-4" transform="" filter="url(#glow)" style="fill: #fff" >read {}</text><text text-anchor="middle" x="471.53462991373004" y="-4" transform="" >read {}</text></g><g transform="translate(1071.4286 210.0) rotate(178.78481724225873) " ><rect x="0" y="-2.5" height="5" width="939.0692598274601" fill="#81BFFC" ><title >n1 → c7 {:msg_id 2, :in_reply_to 1, :type "read_ok", :values {"0" [["n0" 1]]}}</title></rect><use xlink:href="#ahead" x="943.0692598274601" y="0" /><text text-anchor="middle" x="471.53462991373004" y="-4" transform="rotate(180 471.53462991373004 0)" filter="url(#glow)" style="fill: #fff" >read_ok {:values {"0" [["n0" 1]]}}</text><text text-anchor="middle" x="471.53462991373004" y="-4" transform="rotate(180 471.53462991373004 0)" >read_ok {:values {"0" [["n0" 1]]}}</text></g><g transform="translate(300.0 270.0) rotate(1.4851134201185896) " ><rect x="0" y="-2.5" height="5" width="767.6878045697108" fill="#81BFFC" ><title >c9 → n1 {:type "read", :msg_id 1}</title></rect><use xlink:href="#ahead" x="771.6878045697108" y="0" /><text text-anchor="middle" x="385.8439022848554" y="-4" transform="" filter="url(#glow)" style="fill: #fff" >read {}</text><text text-anchor="middle" x="385.8439022848554" y="-4" transform="" >read {}</text></g><g transform="translate(214.28572 250.0) rotate(3.641185417416728) " ><rect x="0" y="-2.5" height="5" width="940.7642635793591" fill="#81BFFC" ><title >c8 → n2 {:type "read", :msg_id 1}</title></rect><use xlink:href="#ahead" x="944.7642635793591" y="0" /><text text-anchor="middle" x="472.38213178967953" y="-4" transform="" filter="url(#glow)" style="fill: #fff" >read {}</text><text text-anchor="middle" x="472.38213178967953" y="-4" transform="" >read {}</text></g><g transform="translate(1071.4286 330.0) rotate(178.51488657988142) " ><rect x="0" y="-2.5" height="5" width="767.6878045697108" fill="#81BFFC" ><title >n1 → c9 {:msg_id 3, :in_reply_to 1, :type "read_ok", :values {"0" [["n0" 1]]}}</title></rect><use xlink:href="#ahead" x="771.6878045697108" y="0" /><text text-anchor="middle" x="385.8439022848554" y="-4" transform="rotate(180 385.8439022848554 0)" filter="url(#glow)" style="fill: #fff" >read_ok {:values {"0" [["n0" 1]]}}</text><text text-anchor="middle" x="385.8439022848554" y="-4" transform="rotate(180 385.8439022848554 0)" >read_ok {:values {"0" [["n0" 1]]}}</text></g><g transform="translate(1157.1428 370.0) rotate(178.78481716361836) " ><rect x="0" y="-2.5" height="5" width="939.0691988060307" fill="#81BFFC" ><title >n2 → c8 {:msg_id 2, :in_reply_to 1, :type "read_ok", :values {"0" [["n0" 1]]}}</title></rect><use xlink:href="#ahead" x="943.0691988060307" y="0" /><text text-anchor="middle" x="471.53459940301536" y="-4" transform="rotate(180 471.53459940301536 0)" filter="url(#glow)" style="fill: #fff" >read_ok {:values {"0" [["n0" 1]]}}</text><text text-anchor="middle" x="471.53459940301536" y="-4" transform="rotate(180 471.53459940301536 0)" >read_ok {:values {"0" [["n0" 1]]}}</text></g><g transform="translate(385.7143 410.0) rotate(1.4851135375676237) " ><rect x="0" y="-2.5" height="5" width="767.6877435550567" fill="#81BFFC" ><title >c10 → n2 {:element 1, :type "add", :msg_id 1}</title></rect><use xlink:href="#ahead" x="771.6877435550567" y="0" /><text text-anchor="middle" x="385.84387177752836" y="-4" transform="" filter="url(#glow)" style="fill: #fff" >add {:element 1}</text><text text-anchor="middle" x="385.84387177752836" y="-4" transform="" >add {:element 1}</text></g><g transform="translate(1157.1428 450.0) rotate(173.3455732768624) " ><rect x="0" y="-2.5" height="5" width="168.5912516747518" fill="#000" ><title >n2 → n0 {:msg_id 3, :type "fwd_add", :element 1, :id ["n2" 1], :r [], :vv {"n0" 1, "n1" 0, "n2" 1}}</title></rect><use xlink:href="#ahead" x="172.5912516747518" y="0" /><text text-anchor="middle" x="86.2956258373759" y="-4" transform="rotate(180 86.2956258373759 0)" filter="url(#glow)" style="fill: #fff" >fwd_add {:element 1, :id ["n2" 1], :r [], :vv {…</text><text text-anchor="middle" x="86.2956258373759" y="-4" transform="rotate(180 86.2956258373759 0)" >fwd_add {:element 1, :id ["n2" 1], :r [], :vv {…</text></g><g transform="translate(1157.1428 490.0) rotate(166.86596995511724) " ><rect x="0" y="-2.5" height="5" width="84.01664505695396" fill="#000" ><title >n2 → n1 {:msg_id 4, :type "fwd_add", :element 1, :id ["n2" 1], :r [], :vv {"n0" 1, "n1" 0, "n2" 1}}</title></rect><use xlink:href="#ahead" x="88.01664505695396" y="0" /><text text-anchor="middle" x="44.00832252847698" y="-4" transform="rotate(180 44.00832252847698 0)" filter="url(#glow)" style="fill: #fff" >fwd_add {:element 1, :id ["n2" 1], :r [], :vv {…</text><text text-anchor="middle" x="44.00832252847698" y="-4" transform="rotate(180 44.00832252847698 0)" >fwd_add {:element 1, :id ["n2" 1], :r [], :vv {…</text></g><g transform="translate(471.42856 530.0) rotate(1.9091523359637268) " ><rect x="0" y="-2.5" height="5" width="596.3332712927834" fill="#81BFFC" ><title >c11 → n1 {:type "read", :msg_id 1}</title></rect><use xlink:href="#ahead" x="600.3332712927834" y="0" /><text text-anchor="middle" x="300.1666356463917" y="-4" transform="" filter="url(#glow)" style="fill: #fff" >read {}</text><text text-anchor="middle" x="300.1666356463917" y="-4" transform="" >read {}</text></g><g transform="translate(1071.4286 570.0) rotate(178.0908476640363) " ><rect x="0" y="-2.5" height="5" width="596.3332712927834" fill="#81BFFC" ><title >n1 → c11 {:msg_id 4, :in_reply_to 1, :type "read_ok", :values {"0" [["n0" 1]], "1" [["n2" 1]]}}</title></rect><use xlink:href="#ahead" x="600.3332712927834" y="0" /><text text-anchor="middle" x="300.1666356463917" y="-4" transform="rotate(180 300.1666356463917 0)" filter="url(#glow)" style="fill: #fff" >read_ok {:values {"0" [["n0" 1]], "1" [["n2" 1]…</text><text text-anchor="middle" x="300.1666356463917" y="-4" transform="rotate(180 300.1666356463917 0)" >read_ok {:values {"0" [["n0" 1]], "1" [["n2" 1]…</text></g><g transform="translate(557.1429 610.0) rotate(2.227047005133379) " ><rect x="0" y="-2.5" height="5" width="510.67444753935115" fill="#81BFFC" ><title >c12 → n1 {:type "read", :msg_id 1}</title></rect><use xlink:href="#ahead" x="514.6744475393511" y="0" /><text text-anchor="middle" x="257.3372237696756" y="-4" transform="" filter="url(#glow)" style="fill: #fff" >read {}</text><text text-anchor="middle" x="257.3372237696756" y="-4" transform="" >read {}</text></g><g transform="translate(1071.4286 650.0) rotate(177.7729529948666) " ><rect x="0" y="-2.5" height="5" width="510.67444753935115" fill="#81BFFC" ><title >n1 → c12 {:msg_id 5, :in_reply_to 1, :type "read_ok", :values {"0" [["n0" 1]], "1" [["n2" 1]]}}</title></rect><use xlink:href="#ahead" x="514.6744475393511" y="0" /><text text-anchor="middle" x="257.3372237696756" y="-4" transform="rotate(180 257.3372237696756 0)" filter="url(#glow)" style="fill: #fff" >read_ok {:values {"0" [["n0" 1]], "1" [["n2" 1]…</text><text text-anchor="middle" x="257.3372237696756" y="-4" transform="rotate(180 257.3372237696756 0)" >read_ok {:values {"0" [["n0" 1]], "1" [["n2" 1]…</text></g><g transform="translate(642.8571 690.0) rotate(2.6718643218703586) " ><rect x="0" y="-2.5" height="5" width="425.0378849894494" fill="#81BFFC" ><title >c13 → n1 {:element 2, :type "add", :msg_id 1}</title></rect><use xlink:href="#ahead" x="429.0378849894494" y="0" /><text text-anchor="middle" x="214.5189424947247" y="-4" transform="" filter="url(#glow)" style="fill: #fff" >add {:element 2}</text><text text-anchor="middle" x="214.5189424947247" y="-4" transform="" >add {:element 2}</text></g><g transform="translate(1071.4286 730.0) rotate(166.86597898335057) " ><rect x="0" y="-2.5" height="5" width="84.01670449550359" fill="#000" ><title >n1 → n0 {:msg_id 6, :type "fwd_add", :element 2, :id ["n1" 1], :r [], :vv {"n0" 1, "n1" 1, "n2" 1}}</title></rect><use xlink:href="#ahead" x="88.01670449550359" y="0" /><text text-anchor="middle" x="44.008352247751795" y="-4" transform="rotate(180 44.008352247751795 0)" filter="url(#glow)" style="fill: #fff" >fwd_add {:element 2, :id ["n1" 1], :r [], :vv {…</text><text text-anchor="middle" x="44.008352247751795" y="-4" transform="rotate(180 44.008352247751795 0)" >fwd_add {:element 2, :id ["n1" 1], :r [], :vv {…</text></g><g transform="translate(1071.4286 770.0) rotate(13.13403004488278) " ><rect x="0" y="-2.5" height="5" width="84.01664505695396" fill="#000" ><title >n1 → n2 {:msg_id 7, :type "fwd_add", :element 2, :id ["n1" 1], :r [], :vv {"n0" 1, "n1" 1, "n2" 1}}</title></rect><use xlink:href="#ahead" x="88.01664505695396" y="0" /><text text-anchor="middle" x="44.00832252847698" y="-4" transform="" filter="url(#glow)" style="fill: #fff" >fwd_add {:element 2, :id ["n1" 1], :r [], :vv {…</text><text text-anchor="middle" x="44.00832252847698" y="-4" transform="" >fwd_add {:element 2, :id ["n1" 1], :r [], :vv {…</text></g><g transform="translate(728.5714 810.0) rotate(13.13402101664945) " ><rect x="0" y="-2.5" height="5" width="260.0501134865107" fill="#81BFFC" ><title >c14 → n0 {:type "read", :msg_id 1}</title></rect><use xlink:href="#ahead" x="264.0501134865107" y="0" /><text text-anchor="middle" x="132.02505674325536" y="-4" transform="" filter="url(#glow)" style="fill: #fff" >read {}</text><text text-anchor="middle" x="132.02505674325536" y="-4" transform="" >read {}</text></g><g transform="translate(814.2857 830.0) rotate(9.926246248901547) " ><rect x="0" y="-2.5" height="5" width="344.06752573502416" fill="#81BFFC" ><title >c15 → n2 {:type "read", :msg_id 1}</title></rect><use xlink:href="#ahead" x="348.06752573502416" y="0" /><text text-anchor="middle" x="174.03376286751208" y="-4" transform="" filter="url(#glow)" style="fill: #fff" >read {}</text><text text-anchor="middle" x="174.03376286751208" y="-4" transform="" >read {}</text></g><g transform="translate(900.0 850.0) rotate(19.290044401861653) " ><rect x="0" y="-2.5" height="5" width="177.6253316060158" fill="#81BFFC" ><title >c16 → n1 {:type "read", :msg_id 1}</title></rect><use xlink:href="#ahead" x="181.6253316060158" y="0" /><text text-anchor="middle" x="90.8126658030079" y="-4" transform="" filter="url(#glow)" style="fill: #fff" >read {}</text><text text-anchor="middle" x="90.8126658030079" y="-4" transform="" >read {}</text></g><g transform="translate(1071.4286 950.0) rotate(166.86597898335057) " ><rect x="0" y="-2.5" height="5" width="172.03340899100718" fill="#81BFFC" ><title >n1 → c16 {:msg_id 8, :in_reply_to 1, :type "read_ok", :values {"0" [["n0" 1]], "1" [["n2" 1]], "2" [["n1" 1]]}}</title></rect><use xlink:href="#ahead" x="176.03340899100718" y="0" /><text text-anchor="middle" x="88.01670449550359" y="-4" transform="rotate(180 88.01670449550359 0)" filter="url(#glow)" style="fill: #fff" >read_ok {:values {"0" [["n0" 1]], "1" [["n2" 1]…</text><text text-anchor="middle" x="88.01670449550359" y="-4" transform="rotate(180 88.01670449550359 0)" >read_ok {:values {"0" [["n0" 1]], "1" [["n2" 1]…</text></g><g transform="translate(1157.1428 970.0) rotate(173.3455744508542) " ><rect x="0" y="-2.5" height="5" width="341.1825639734743" fill="#81BFFC" ><title >n2 → c15 {:msg_id 5, :in_reply_to 1, :type "read_ok", :values {"0" [["n0" 1]], "1" [["n2" 1]], "2" [["n1" 1]]}}</title></rect><use xlink:href="#ahead" x="345.1825639734743" y="0" /><text text-anchor="middle" x="172.59128198673716" y="-4" transform="rotate(180 172.59128198673716 0)" filter="url(#glow)" style="fill: #fff" >read_ok {:values {"0" [["n0" 1]], "1" [["n2" 1]…</text><text text-anchor="middle" x="172.59128198673716" y="-4" transform="rotate(180 172.59128198673716 0)" >read_ok {:values {"0" [["n0" 1]], "1" [["n2" 1]…</text></g><g transform="translate(985.7143 930.0) rotate(158.749496461719) " ><rect x="0" y="-2.5" height="5" width="271.90299460542144" fill="#81BFFC" ><title >n0 → c14 {:msg_id 4, :in_reply_to 1, :type "read_ok", :values {"0" [["n0" 1]], "1" [["n2" 1]], "2" [["n1" 1]]}}</title></rect><use xlink:href="#ahead" x="275.90299460542144" y="0" /><text text-anchor="middle" x="137.95149730271072" y="-4" transform="rotate(180 137.95149730271072 0)" filter="url(#glow)" style="fill: #fff" >read_ok {:values {"0" [["n0" 1]], "1" [["n2" 1]…</text><text text-anchor="middle" x="137.95149730271072" y="-4" transform="rotate(180 137.95149730271072 0)" >read_ok {:values {"0" [["n0" 1]], "1" [["n2" 1]…</text></g></g></svg>