<?xml version="1.0" encoding="UTF-8"?><svg xmlns:svg="http://www.w3.org/2000/svg" xmlns="http://www.w3.org/2000/svg" xmlns:xlink="http://www.w3.org/1999/xlink" version="2.0" width="1200" height="3300" ><style >
svg {
  font-family: Helvetica, Arial, sans-serif;
  font-size: 11px;
}
rect {
  stroke-linecap: butt;
  stroke-width: 3;
  stroke: #fff;
/*  stroke-opacity: 1; */
}
rect:hover {
  stroke: #fff;
/*  stroke-opacity: 1; /*
}
polygon { fill: #000; }</style><defs ><polygon id="ahead" points="0 0, -12 4, -12 -4" /><filter id="glow" x="0" y="0" ><feGaussianBlur in="SourceAlpha" stdDeviation="2" result="blurred" /><feFlood flood-color="#fff" /><feComposite operator="in" in2="blurred" /><feComponentTransfer ><feFuncA type="linear" slope="10" intercept="0" /></feComponentTransfer><feMerge ><feMergeNode /><feMergeNode in="SourceGraphic" /></feMerge></filter></defs><g ><text x="100.0" y="20.0" text-anchor="middle" alignment-baseline="middle" fill="#000" >c6</text><text x="100.0" y="1020.0" text-anchor="middle" alignment-baseline="middle" fill="#aaa" >c6</text><text x="100.0" y="2020.0" text-anchor="middle" alignment-baseline="middle" fill="#aaa" >c6</text><text x="100.0" y="3020.0" text-anchor="middle" alignment-baseline="middle" fill="#aaa" >c6</text><text x="300.0" y="20.0" text-anchor="middle" alignment-baseline="middle" fill="#000" >c7</text><text x="300.0" y="1020.0" text-anchor="middle" alignment-baseline="middle" fill="#aaa" >c7</text><text x="300.0" y="2020.0" text-anchor="middle" alignment-baseline="middle" fill="#aaa" >c7</text><text x="300.0" y="3020.0" text-anchor="middle" alignment-baseline="middle" fill="#aaa" >c7</text><text x="500.0" y="20.0" text-anchor="middle" alignment-baseline="middle" fill="#000" >c8</text><text x="500.0" y="1020.0" text-anchor="middle" alignment-baseline="middle" fill="#aaa" >c8</text><text x="500.0" y="2020.0" text-anchor="middle" alignment-baseline="middle" fill="#aaa" >c8</text><text x="500.0" y="3020.0" text-anchor="middle" alignment-baseline="middle" fill="#aaa" >c8</text><text x="700.0" y="20.0" text-anchor="middle" alignment-baseline="middle" fill="#000" >n0</text><text x="700.0" y="1020.0" text-anchor="middle" alignment-baseline="middle" fill="#aaa" >n0</text><text x="700.0" y="2020.0" text-anchor="middle" alignment-baseline="middle" fill="#aaa" >n0</text><text x="700.0" y="3020.0" text-anchor="middle" alignment-baseline="middle" fill="#aaa" >n0</text><text x="900.0" y="20.0" text-anchor="middle" alignment-baseline="middle" fill="#000" >n1</text><text x="900.0" y="1020.0" text-anchor="middle" alignment-baseline="middle" fill="#aaa" >n1</text><text x="900.0" y="2020.0" text-anchor="middle" alignment-baseline="middle" fill="#aaa" >n1</text><text x="900.0" y="3020.0" text-anchor="middle" alignment-baseline="middle" fill="#aaa" >n1</text><text x="1100.0" y="20.0" text-anchor="middle" alignment-baseline="middle" fill="#000" >n2</text><text x="1100.0" y="1020.0" text-anchor="middle" alignment-baseline="middle" fill="#aaa" >n2</text><text x="1100.0" y="2020.0" text-anchor="middle" alignment-baseline="middle" fill="#aaa" >n2</text><text x="1100.0" y="3020.0" text-anchor="middle" alignment-baseline="middle" fill="#aaa" >n2</text></g><g ><line stroke="#ccc" x1="100.0" y1="30.0" x2="100.0" y2="3210.0" /><line stroke="#ccc" x1="300.0" y1="30.0" x2="300.0" y2="3210.0" /><line stroke="#ccc" x1="500.0" y1="30.0" x2="500.0" y2="3210.0" /><line stroke="#ccc" x1="700.0" y1="30.0" x2="700.0" y2="3210.0" /><line stroke="#ccc" x1="900.0" y1="30.0" x2="900.0" y2="3210.0" /><line stroke="#ccc" x1="1100.0" y1="30.0" x2="1100.0" y2="3210.0" /></g><g ><g transform="translate(100.0 50.0) rotate(1.1457628381751035) " ><rect x="0" y="-2.5" height="5" width="996.199980003999" fill="#81BFFC" ><title >c6 → n2 {:type "cbcast", :message 1, :msg_id 1}</title></rect><use xlink:href="#ahead" x="1000.199980003999" y="0" /><text text-anchor="middle" x="500.0999900019995" y="-4" transform="" filter="url(#glow)" style="fill: #fff" >cbcast {:message 1}</text><text text-anchor="middle" x="500.0999900019995" y="-4" transform="" >cbcast {:message 1}</text></g><g transform="translate(1100.0 90.0) rotate(178.8542371618249) " ><rect x="0" y="-2.5" height="5" width="996.199980003999" fill="#81BFFC" ><title >n2 → c6 {:msg_id 2, :in_reply_to 1, :type "cbcast_ok", :messages []}</title></rect><use xlink:href="#ahead" x="1000.199980003999" y="0" /><text text-anchor="middle" x="500.0999900019995" y="-4" transform="rotate(180 500.0999900019995 0)" filter="url(#glow)" style="fill: #fff" >cbcast_ok {:messages []}</text><text text-anchor="middle" x="500.0999900019995" y="-4" transform="rotate(180 500.0999900019995 0)" >cbcast_ok {:messages []}</text></g><g transform="translate(1100.0 150.0) rotate(174.28940686250036) " ><rect x="0" y="-2.5" height="5" width="196.9975124224178" fill="#000" ><title >n2 → n1 {:msg_id 4, :type "fwd_msg", :vv {"n0" 0, "n1" 0, "n2" 1}, :message 1}</title></rect><use xlink:href="#ahead" x="200.9975124224178" y="0" /><text text-anchor="middle" x="100.4987562112089" y="-4" transform="rotate(180 100.4987562112089 0)" filter="url(#glow)" style="fill: #fff" >fwd_msg {:vv {"n0" 0, "n1" 0, "n2" 1}, :message…</text><text text-anchor="middle" x="100.4987562112089" y="-4" transform="rotate(180 100.4987562112089 0)" >fwd_msg {:vv {"n0" 0, "n1" 0, "n2" 1}, :message…</text></g><g transform="translate(1100.0 130.0) rotate(168.69006752597983) " ><rect x="0" y="-2.5" height="5" width="403.9215610874228" fill="#000" ><title >n2 → n0 {:msg_id 3, :type "fwd_msg", :vv {"n0" 0, "n1" 0, "n2" 1}, :message 1}</title></rect><use xlink:href="#ahead" x="407.9215610874228" y="0" /><text text-anchor="middle" x="203.9607805437114" y="-4" transform="rotate(180 203.9607805437114 0)" filter="url(#glow)" style="fill: #fff" >fwd_msg {:vv {"n0" 0, "n1" 0, "n2" 1}, :message…</text><text text-anchor="middle" x="203.9607805437114" y="-4" transform="rotate(180 203.9607805437114 0)" >fwd_msg {:vv {"n0" 0, "n1" 0, "n2" 1}, :message…</text></g><g transform="translate(300.0 190.0) rotate(5.710593137499643) " ><rect x="0" y="-2.5" height="5" width="397.9950248448356" fill="#81BFFC" ><title >c7 → n0 {:type "cbcast", :message 2, :msg_id 1}</title></rect><use xlink:href="#ahead" x="401.9950248448356" y="0" /><text text-anchor="middle" x="200.9975124224178" y="-4" transform="" filter="url(#glow)" style="fill: #fff" >cbcast {:message 2}</text><text text-anchor="middle" x="200.9975124224178" y="-4" transform="" >cbcast {:message 2}</text></g><g transform="translate(700.0 250.0) rotate(177.13759477388828) " ><rect x="0" y="-2.5" height="5" width="396.4996878900157" fill="#81BFFC" ><title >n0 → c7 {:msg_id 2, :in_reply_to 1, :type "cbcast_ok", :messages [1]}</title></rect><use xlink:href="#ahead" x="400.4996878900157" y="0" /><text text-anchor="middle" x="200.24984394500785" y="-4" transform="rotate(180 200.24984394500785 0)" filter="url(#glow)" style="fill: #fff" >cbcast_ok {:messages [1]}</text><text text-anchor="middle" x="200.24984394500785" y="-4" transform="rotate(180 200.24984394500785 0)" >cbcast_ok {:messages [1]}</text></g><g transform="translate(700.0 290.0) rotate(16.69924423399362) " ><rect x="0" y="-2.5" height="5" width="204.806130178211" fill="#000" ><title >n0 → n1 {:msg_id 3, :type "fwd_msg", :vv {"n0" 1, "n1" 0, "n2" 1}, :message 2}</title></rect><use xlink:href="#ahead" x="208.806130178211" y="0" /><text text-anchor="middle" x="104.4030650891055" y="-4" transform="" filter="url(#glow)" style="fill: #fff" >fwd_msg {:vv {"n0" 1, "n1" 0, "n2" 1}, :message…</text><text text-anchor="middle" x="104.4030650891055" y="-4" transform="" >fwd_msg {:vv {"n0" 1, "n1" 0, "n2" 1}, :message…</text></g><g transform="translate(500.0 330.0) rotate(5.710593137499643) " ><rect x="0" y="-2.5" height="5" width="397.9950248448356" fill="#81BFFC" ><title >c8 → n1 {:type "cbcast", :message 3, :msg_id 1}</title></rect><use xlink:href="#ahead" x="401.9950248448356" y="0" /><text text-anchor="middle" x="200.9975124224178" y="-4" transform="" filter="url(#glow)" style="fill: #fff" >cbcast {:message 3}</text><text text-anchor="middle" x="200.9975124224178" y="-4" transform="" >cbcast {:message 3}</text></g><g transform="translate(900.0 390.0) rotate(177.13759477388828) " ><rect x="0" y="-2.5" height="5" width="396.4996878900157" fill="#81BFFC" ><title >n1 → c8 {:msg_id 2, :in_reply_to 1, :type "cbcast_ok", :messages [1 2]}</title></rect><use xlink:href="#ahead" x="400.4996878900157" y="0" /><text text-anchor="middle" x="200.24984394500785" y="-4" transform="rotate(180 200.24984394500785 0)" filter="url(#glow)" style="fill: #fff" >cbcast_ok {:messages [1 2]}</text><text text-anchor="middle" x="200.24984394500785" y="-4" transform="rotate(180 200.24984394500785 0)" >cbcast_ok {:messages [1 2]}</text></g><g transform="translate(500.0 470.0) rotate(2.862405226111748) " ><rect x="0" y="-2.5" height="5" width="396.4996878900157" fill="#81BFFC" ><title >c8 → n1 {:type "cbcast", :message 4, :msg_id 2}</title></rect><use xlink:href="#ahead" x="400.4996878900157" y="0" /><text text-anchor="middle" x="200.24984394500785" y="-4" transform="" filter="url(#glow)" style="fill: #fff" >cbcast {:message 4}</text><text text-anchor="middle" x="200.24984394500785" y="-4" transform="" >cbcast {:message 4}</text></g><g transform="translate(900.0 510.0) rotate(177.13759477388828) " ><rect x="0" y="-2.5" height="5" width="396.4996878900157" fill="#81BFFC" ><title >n1 → c8 {:msg_id 5, :in_reply_to 2, :type "cbcast_ok", :messages []}</title></rect><use xlink:href="#ahead" x="400.4996878900157" y="0" /><text text-anchor="middle" x="200.24984394500785" y="-4" transform="rotate(180 200.24984394500785 0)" filter="url(#glow)" style="fill: #fff" >cbcast_ok {:messages []}</text><text text-anchor="middle" x="200.24984394500785" y="-4" transform="rotate(180 200.24984394500785 0)" >cbcast_ok {:messages []}</text></g><g transform="translate(700.0 310.0) rotate(38.659808254090095) " ><rect x="0" y="-2.5" height="5" width="508.2499389946279" fill="#000" ><title >n0 → n2 {:msg_id 4, :type "fwd_msg", :vv {"n0" 1, "n1" 0, "n2" 1}, :message 2}</title></rect><use xlink:href="#ahead" x="512.2499389946279" y="0" /><text text-anchor="middle" x="256.12496949731394" y="-4" transform="" filter="url(#glow)" style="fill: #fff" >fwd_msg {:vv {"n0" 1, "n1" 0, "n2" 1}, :message…</text><text text-anchor="middle" x="256.12496949731394" y="-4" transform="" >fwd_msg {:vv {"n0" 1, "n1" 0, "n2" 1}, :message…</text></g><g transform="translate(900.0 450.0) rotate(45.0) " ><rect x="0" y="-2.5" height="5" width="278.842712474619" fill="#000" ><title >n1 → n2 {:msg_id 4, :type "fwd_msg", :vv {"n0" 1, "n1" 1, "n2" 1}, :message 3}</title></rect><use xlink:href="#ahead" x="282.842712474619" y="0" /><text text-anchor="middle" x="141.4213562373095" y="-4" transform="" filter="url(#glow)" style="fill: #fff" >fwd_msg {:vv {"n0" 1, "n1" 1, "n2" 1}, :message…</text><text text-anchor="middle" x="141.4213562373095" y="-4" transform="" >fwd_msg {:vv {"n0" 1, "n1" 1, "n2" 1}, :message…</text></g><g transform="translate(100.0 610.0) rotate(3.4336303624505224) " ><rect x="0" y="-2.5" height="5" width="997.7983829094555" fill="#81BFFC" ><title >c6 → n2 {:type "cbcast", :message 6, :msg_id 2}</title></rect><use xlink:href="#ahead" x="1001.7983829094555" y="0" /><text text-anchor="middle" x="500.89919145472777" y="-4" transform="" filter="url(#glow)" style="fill: #fff" >cbcast {:message 6}</text><text text-anchor="middle" x="500.89919145472777" y="-4" transform="" >cbcast {:message 6}</text></g><g transform="translate(1100.0 690.0) rotate(178.8542371618249) " ><rect x="0" y="-2.5" height="5" width="996.199980003999" fill="#81BFFC" ><title >n2 → c6 {:msg_id 5, :in_reply_to 2, :type "cbcast_ok", :messages [2 3]}</title></rect><use xlink:href="#ahead" x="1000.199980003999" y="0" /><text text-anchor="middle" x="500.0999900019995" y="-4" transform="rotate(180 500.0999900019995 0)" filter="url(#glow)" style="fill: #fff" >cbcast_ok {:messages [2 3]}</text><text text-anchor="middle" x="500.0999900019995" y="-4" transform="rotate(180 500.0999900019995 0)" >cbcast_ok {:messages [2 3]}</text></g><g transform="translate(900.0 570.0) rotate(45.0) " ><rect x="0" y="-2.5" height="5" width="278.842712474619" fill="#000" ><title >n1 → n2 {:msg_id 7, :type "fwd_msg", :vv {"n0" 1, "n1" 2, "n2" 1}, :message 4}</title></rect><use xlink:href="#ahead" x="282.842712474619" y="0" /><text text-anchor="middle" x="141.4213562373095" y="-4" transform="" filter="url(#glow)" style="fill: #fff" >fwd_msg {:vv {"n0" 1, "n1" 2, "n2" 1}, :message…</text><text text-anchor="middle" x="141.4213562373095" y="-4" transform="" >fwd_msg {:vv {"n0" 1, "n1" 2, "n2" 1}, :message…</text></g><g transform="translate(900.0 430.0) rotate(117.75854060106003) " ><rect x="0" y="-2.5" height="5" width="425.4182110716778" fill="#000" ><title >n1 → n0 {:msg_id 3, :type "fwd_msg", :vv {"n0" 1, "n1" 1, "n2" 1}, :message 3}</title></rect><use xlink:href="#ahead" x="429.4182110716778" y="0" /><text text-anchor="middle" x="214.7091055358389" y="-4" transform="rotate(180 214.7091055358389 0)" filter="url(#glow)" style="fill: #fff" >fwd_msg {:vv {"n0" 1, "n1" 1, "n2" 1}, :message…</text><text text-anchor="middle" x="214.7091055358389" y="-4" transform="rotate(180 214.7091055358389 0)" >fwd_msg {:vv {"n0" 1, "n1" 1, "n2" 1}, :message…</text></g><g transform="translate(300.0 590.0) rotate(30.963756532073525) " ><rect x="0" y="-2.5" height="5" width="462.47615158762403" fill="#81BFFC" ><title >c7 → n0 {:type "cbcast", :message 5, :msg_id 2}</title></rect><use xlink:href="#ahead" x="466.47615158762403" y="0" /><text text-anchor="middle" x="233.23807579381202" y="-4" transform="" filter="url(#glow)" style="fill: #fff" >cbcast {:message 5}</text><text text-anchor="middle" x="233.23807579381202" y="-4" transform="" >cbcast {:message 5}</text></g><g transform="translate(1100.0 730.0) rotate(163.3007557660064) " ><rect x="0" y="-2.5" height="5" width="413.612260356422" fill="#000" ><title >n2 → n0 {:msg_id 6, :type "fwd_msg", :vv {"n0" 1, "n1" 1, "n2" 2}, :message 6}</title></rect><use xlink:href="#ahead" x="417.612260356422" y="0" /><text text-anchor="middle" x="208.806130178211" y="-4" transform="rotate(180 208.806130178211 0)" filter="url(#glow)" style="fill: #fff" >fwd_msg {:vv {"n0" 1, "n1" 1, "n2" 2}, :message…</text><text text-anchor="middle" x="208.806130178211" y="-4" transform="rotate(180 208.806130178211 0)" >fwd_msg {:vv {"n0" 1, "n1" 1, "n2" 2}, :message…</text></g><g transform="translate(700.0 870.0) rotate(177.13759477388828) " ><rect x="0" y="-2.5" height="5" width="396.4996878900157" fill="#81BFFC" ><title >n0 → c7 {:msg_id 5, :in_reply_to 2, :type "cbcast_ok", :messages [3]}</title></rect><use xlink:href="#ahead" x="400.4996878900157" y="0" /><text text-anchor="middle" x="200.24984394500785" y="-4" transform="rotate(180 200.24984394500785 0)" filter="url(#glow)" style="fill: #fff" >cbcast_ok {:messages [3]}</text><text text-anchor="middle" x="200.24984394500785" y="-4" transform="rotate(180 200.24984394500785 0)" >cbcast_ok {:messages [3]}</text></g><g transform="translate(900.0 550.0) rotate(116.56505117707799) " ><rect x="0" y="-2.5" height="5" width="443.21359549995793" fill="#000" ><title >n1 → n0 {:msg_id 6, :type "fwd_msg", :vv {"n0" 1, "n1" 2, "n2" 1}, :message 4}</title></rect><use xlink:href="#ahead" x="447.21359549995793" y="0" /><text text-anchor="middle" x="223.60679774997897" y="-4" transform="rotate(180 223.60679774997897 0)" filter="url(#glow)" style="fill: #fff" >fwd_msg {:vv {"n0" 1, "n1" 2, "n2" 1}, :message…</text><text text-anchor="middle" x="223.60679774997897" y="-4" transform="rotate(180 223.60679774997897 0)" >fwd_msg {:vv {"n0" 1, "n1" 2, "n2" 1}, :message…</text></g><g transform="translate(1100.0 750.0) rotate(132.27368900609375) " ><rect x="0" y="-2.5" height="5" width="293.3213749463701" fill="#000" ><title >n2 → n1 {:msg_id 7, :type "fwd_msg", :vv {"n0" 1, "n1" 1, "n2" 2}, :message 6}</title></rect><use xlink:href="#ahead" x="297.3213749463701" y="0" /><text text-anchor="middle" x="148.66068747318505" y="-4" transform="rotate(180 148.66068747318505 0)" filter="url(#glow)" style="fill: #fff" >fwd_msg {:vv {"n0" 1, "n1" 1, "n2" 2}, :message…</text><text text-anchor="middle" x="148.66068747318505" y="-4" transform="rotate(180 148.66068747318505 0)" >fwd_msg {:vv {"n0" 1, "n1" 1, "n2" 2}, :message…</text></g><g transform="translate(500.0 790.0) rotate(26.565051177077986) " ><rect x="0" y="-2.5" height="5" width="443.21359549995793" fill="#81BFFC" ><title >c8 → n1 {:type "cbcast", :message 7, :msg_id 3}</title></rect><use xlink:href="#ahead" x="447.21359549995793" y="0" /><text text-anchor="middle" x="223.60679774997897" y="-4" transform="" filter="url(#glow)" style="fill: #fff" >cbcast {:message 7}</text><text text-anchor="middle" x="223.60679774997897" y="-4" transform="" >cbcast {:message 7}</text></g><g transform="translate(900.0 1010.0) rotate(177.13759477388828) " ><rect x="0" y="-2.5" height="5" width="396.4996878900157" fill="#81BFFC" ><title >n1 → c8 {:msg_id 8, :in_reply_to 3, :type "cbcast_ok", :messages [6]}</title></rect><use xlink:href="#ahead" x="400.4996878900157" y="0" /><text text-anchor="middle" x="200.24984394500785" y="-4" transform="rotate(180 200.24984394500785 0)" filter="url(#glow)" style="fill: #fff" >cbcast_ok {:messages [6]}</text><text text-anchor="middle" x="200.24984394500785" y="-4" transform="rotate(180 200.24984394500785 0)" >cbcast_ok {:messages [6]}</text></g><g transform="translate(700.0 930.0) rotate(24.22774531795417) " ><rect x="0" y="-2.5" height="5" width="434.63424398922615" fill="#000" ><title >n0 → n2 {:msg_id 7, :type "fwd_msg", :vv {"n0" 2, "n1" 1, "n2" 1}, :message 5}</title></rect><use xlink:href="#ahead" x="438.63424398922615" y="0" /><text text-anchor="middle" x="219.31712199461307" y="-4" transform="" filter="url(#glow)" style="fill: #fff" >fwd_msg {:vv {"n0" 2, "n1" 1, "n2" 1}, :message…</text><text text-anchor="middle" x="219.31712199461307" y="-4" transform="" >fwd_msg {:vv {"n0" 2, "n1" 1, "n2" 1}, :message…</text></g><g transform="translate(900.0 1050.0) rotate(158.19859051364818) " ><rect x="0" y="-2.5" height="5" width="211.40659228538016" fill="#000" ><title >n1 → n0 {:msg_id 9, :type "fwd_msg", :vv {"n0" 1, "n1" 3, "n2" 2}, :message 7}</title></rect><use xlink:href="#ahead" x="215.40659228538016" y="0" /><text text-anchor="middle" x="107.70329614269008" y="-4" transform="rotate(180 107.70329614269008 0)" filter="url(#glow)" style="fill: #fff" >fwd_msg {:vv {"n0" 1, "n1" 3, "n2" 2}, :message…</text><text text-anchor="middle" x="107.70329614269008" y="-4" transform="rotate(180 107.70329614269008 0)" >fwd_msg {:vv {"n0" 1, "n1" 3, "n2" 2}, :message…</text></g><g transform="translate(300.0 1090.0) rotate(8.530765609948133) " ><rect x="0" y="-2.5" height="5" width="400.4749683231337" fill="#81BFFC" ><title >c7 → n0 {:type "cbcast", :message 8, :msg_id 3}</title></rect><use xlink:href="#ahead" x="404.4749683231337" y="0" /><text text-anchor="middle" x="202.23748416156684" y="-4" transform="" filter="url(#glow)" style="fill: #fff" >cbcast {:message 8}</text><text text-anchor="middle" x="202.23748416156684" y="-4" transform="" >cbcast {:message 8}</text></g><g transform="translate(700.0 1170.0) rotate(177.13759477388828) " ><rect x="0" y="-2.5" height="5" width="396.4996878900157" fill="#81BFFC" ><title >n0 → c7 {:msg_id 8, :in_reply_to 3, :type "cbcast_ok", :messages [6 7 4]}</title></rect><use xlink:href="#ahead" x="400.4996878900157" y="0" /><text text-anchor="middle" x="200.24984394500785" y="-4" transform="rotate(180 200.24984394500785 0)" filter="url(#glow)" style="fill: #fff" >cbcast_ok {:messages [6 7 4]}</text><text text-anchor="middle" x="200.24984394500785" y="-4" transform="rotate(180 200.24984394500785 0)" >cbcast_ok {:messages [6 7 4]}</text></g><g transform="translate(300.0 1250.0) rotate(2.862405226111748) " ><rect x="0" y="-2.5" height="5" width="396.4996878900157" fill="#81BFFC" ><title >c7 → n0 {:type "cbcast", :message 9, :msg_id 4}</title></rect><use xlink:href="#ahead" x="400.4996878900157" y="0" /><text text-anchor="middle" x="200.24984394500785" y="-4" transform="" filter="url(#glow)" style="fill: #fff" >cbcast {:message 9}</text><text text-anchor="middle" x="200.24984394500785" y="-4" transform="" >cbcast {:message 9}</text></g><g transform="translate(700.0 1290.0) rotate(177.13759477388828) " ><rect x="0" y="-2.5" height="5" width="396.4996878900157" fill="#81BFFC" ><title >n0 → c7 {:msg_id 11, :in_reply_to 4, :type "cbcast_ok", :messages []}</title></rect><use xlink:href="#ahead" x="400.4996878900157" y="0" /><text text-anchor="middle" x="200.24984394500785" y="-4" transform="rotate(180 200.24984394500785 0)" filter="url(#glow)" style="fill: #fff" >cbcast_ok {:messages []}</text><text text-anchor="middle" x="200.24984394500785" y="-4" transform="rotate(180 200.24984394500785 0)" >cbcast_ok {:messages []}</text></g><g transform="translate(700.0 910.0) rotate(66.5014343240479) " ><rect x="0" y="-2.5" height="5" width="497.5974481593781" fill="#000" ><title >n0 → n1 {:msg_id 6, :type "fwd_msg", :vv {"n0" 2, "n1" 1, "n2" 1}, :message 5}</title></rect><use xlink:href="#ahead" x="501.5974481593781" y="0" /><text text-anchor="middle" x="250.79872407968904" y="-4" transform="" filter="url(#glow)" style="fill: #fff" >fwd_msg {:vv {"n0" 2, "n1" 1, "n2" 1}, :message…</text><text text-anchor="middle" x="250.79872407968904" y="-4" transform="" >fwd_msg {:vv {"n0" 2, "n1" 1, "n2" 1}, :message…</text></g><g transform="translate(900.0 1070.0) rotate(59.53445508054012) " ><rect x="0" y="-2.5" height="5" width="390.4616584663204" fill="#000" ><title >n1 → n2 {:msg_id 10, :type "fwd_msg", :vv {"n0" 1, "n1" 3, "n2" 2}, :message 7}</title></rect><use xlink:href="#ahead" x="394.4616584663204" y="0" /><text text-anchor="middle" x="197.2308292331602" y="-4" transform="" filter="url(#glow)" style="fill: #fff" >fwd_msg {:vv {"n0" 1, "n1" 3, "n2" 2}, :message…</text><text text-anchor="middle" x="197.2308292331602" y="-4" transform="" >fwd_msg {:vv {"n0" 1, "n1" 3, "n2" 2}, :message…</text></g><g transform="translate(100.0 1390.0) rotate(2.29061004263853) " ><rect x="0" y="-2.5" height="5" width="996.7996802557443" fill="#81BFFC" ><title >c6 → n2 {:type "cbcast", :message 10, :msg_id 3}</title></rect><use xlink:href="#ahead" x="1000.7996802557443" y="0" /><text text-anchor="middle" x="500.39984012787215" y="-4" transform="" filter="url(#glow)" style="fill: #fff" >cbcast {:message 10}</text><text text-anchor="middle" x="500.39984012787215" y="-4" transform="" >cbcast {:message 10}</text></g><g transform="translate(1100.0 1450.0) rotate(178.8542371618249) " ><rect x="0" y="-2.5" height="5" width="996.199980003999" fill="#81BFFC" ><title >n2 → c6 {:msg_id 8, :in_reply_to 3, :type "cbcast_ok", :messages [4 7]}</title></rect><use xlink:href="#ahead" x="1000.199980003999" y="0" /><text text-anchor="middle" x="500.0999900019995" y="-4" transform="rotate(180 500.0999900019995 0)" filter="url(#glow)" style="fill: #fff" >cbcast_ok {:messages [4 7]}</text><text text-anchor="middle" x="500.0999900019995" y="-4" transform="rotate(180 500.0999900019995 0)" >cbcast_ok {:messages [4 7]}</text></g><g transform="translate(700.0 1210.0) rotate(57.994616791916506) " ><rect x="0" y="-2.5" height="5" width="373.35924528226417" fill="#000" ><title >n0 → n1 {:msg_id 9, :type "fwd_msg", :vv {"n0" 3, "n1" 3, "n2" 2}, :message 8}</title></rect><use xlink:href="#ahead" x="377.35924528226417" y="0" /><text text-anchor="middle" x="188.67962264113208" y="-4" transform="" filter="url(#glow)" style="fill: #fff" >fwd_msg {:vv {"n0" 3, "n1" 3, "n2" 2}, :message…</text><text text-anchor="middle" x="188.67962264113208" y="-4" transform="" >fwd_msg {:vv {"n0" 3, "n1" 3, "n2" 2}, :message…</text></g><g transform="translate(700.0 1230.0) rotate(38.659808254090095) " ><rect x="0" y="-2.5" height="5" width="508.2499389946279" fill="#000" ><title >n0 → n2 {:msg_id 10, :type "fwd_msg", :vv {"n0" 3, "n1" 3, "n2" 2}, :message 8}</title></rect><use xlink:href="#ahead" x="512.2499389946279" y="0" /><text text-anchor="middle" x="256.12496949731394" y="-4" transform="" filter="url(#glow)" style="fill: #fff" >fwd_msg {:vv {"n0" 3, "n1" 3, "n2" 2}, :message…</text><text text-anchor="middle" x="256.12496949731394" y="-4" transform="" >fwd_msg {:vv {"n0" 3, "n1" 3, "n2" 2}, :message…</text></g><g transform="translate(700.0 1330.0) rotate(50.1944289077348) " ><rect x="0" y="-2.5" height="5" width="308.40998703626616" fill="#000" ><title >n0 → n1 {:msg_id 12, :type "fwd_msg", :vv {"n0" 4, "n1" 3, "n2" 2}, :message 9}</title></rect><use xlink:href="#ahead" x="312.40998703626616" y="0" /><text text-anchor="middle" x="156.20499351813308" y="-4" transform="" filter="url(#glow)" style="fill: #fff" >fwd_msg {:vv {"n0" 4, "n1" 3, "n2" 2}, :message…</text><text text-anchor="middle" x="156.20499351813308" y="-4" transform="" >fwd_msg {:vv {"n0" 4, "n1" 3, "n2" 2}, :message…</text></g><g transform="translate(1100.0 1510.0) rotate(158.19859051364818) " ><rect x="0" y="-2.5" height="5" width="211.40659228538016" fill="#000" ><title >n2 → n1 {:msg_id 10, :type "fwd_msg", :vv {"n0" 1, "n1" 3, "n2" 3}, :message 10}</title></rect><use xlink:href="#ahead" x="215.40659228538016" y="0" /><text text-anchor="middle" x="107.70329614269008" y="-4" transform="rotate(180 107.70329614269008 0)" filter="url(#glow)" style="fill: #fff" >fwd_msg {:vv {"n0" 1, "n1" 3, "n2" 3}, :message…</text><text text-anchor="middle" x="107.70329614269008" y="-4" transform="rotate(180 107.70329614269008 0)" >fwd_msg {:vv {"n0" 1, "n1" 3, "n2" 3}, :message…</text></g><g transform="translate(500.0 1610.0) rotate(2.862405226111748) " ><rect x="0" y="-2.5" height="5" width="396.4996878900157" fill="#81BFFC" ><title >c8 → n1 {:type "cbcast", :message 11, :msg_id 4}</title></rect><use xlink:href="#ahead" x="400.4996878900157" y="0" /><text text-anchor="middle" x="200.24984394500785" y="-4" transform="" filter="url(#glow)" style="fill: #fff" >cbcast {:message 11}</text><text text-anchor="middle" x="200.24984394500785" y="-4" transform="" >cbcast {:message 11}</text></g><g transform="translate(900.0 1650.0) rotate(177.13759477388828) " ><rect x="0" y="-2.5" height="5" width="396.4996878900157" fill="#81BFFC" ><title >n1 → c8 {:msg_id 11, :in_reply_to 4, :type "cbcast_ok", :messages [8 5 9]}</title></rect><use xlink:href="#ahead" x="400.4996878900157" y="0" /><text text-anchor="middle" x="200.24984394500785" y="-4" transform="rotate(180 200.24984394500785 0)" filter="url(#glow)" style="fill: #fff" >cbcast_ok {:messages [8 5 9]}</text><text text-anchor="middle" x="200.24984394500785" y="-4" transform="rotate(180 200.24984394500785 0)" >cbcast_ok {:messages [8 5 9]}</text></g><g transform="translate(700.0 1350.0) rotate(45.0) " ><rect x="0" y="-2.5" height="5" width="561.685424949238" fill="#000" ><title >n0 → n2 {:msg_id 13, :type "fwd_msg", :vv {"n0" 4, "n1" 3, "n2" 2}, :message 9}</title></rect><use xlink:href="#ahead" x="565.685424949238" y="0" /><text text-anchor="middle" x="282.842712474619" y="-4" transform="" filter="url(#glow)" style="fill: #fff" >fwd_msg {:vv {"n0" 4, "n1" 3, "n2" 2}, :message…</text><text text-anchor="middle" x="282.842712474619" y="-4" transform="" >fwd_msg {:vv {"n0" 4, "n1" 3, "n2" 2}, :message…</text></g><g transform="translate(1100.0 1490.0) rotate(143.13010235415598) " ><rect x="0" y="-2.5" height="5" width="496.0" fill="#000" ><title >n2 → n0 {:msg_id 9, :type "fwd_msg", :vv {"n0" 1, "n1" 3, "n2" 3}, :message 10}</title></rect><use xlink:href="#ahead" x="500.0" y="0" /><text text-anchor="middle" x="250.0" y="-4" transform="rotate(180 250.0 0)" filter="url(#glow)" style="fill: #fff" >fwd_msg {:vv {"n0" 1, "n1" 3, "n2" 3}, :message…</text><text text-anchor="middle" x="250.0" y="-4" transform="rotate(180 250.0 0)" >fwd_msg {:vv {"n0" 1, "n1" 3, "n2" 3}, :message…</text></g><g transform="translate(300.0 1730.0) rotate(11.309932474020215) " ><rect x="0" y="-2.5" height="5" width="403.9215610874228" fill="#81BFFC" ><title >c7 → n0 {:type "cbcast", :message 12, :msg_id 5}</title></rect><use xlink:href="#ahead" x="407.9215610874228" y="0" /><text text-anchor="middle" x="203.9607805437114" y="-4" transform="" filter="url(#glow)" style="fill: #fff" >cbcast {:message 12}</text><text text-anchor="middle" x="203.9607805437114" y="-4" transform="" >cbcast {:message 12}</text></g><g transform="translate(700.0 1830.0) rotate(177.13759477388828) " ><rect x="0" y="-2.5" height="5" width="396.4996878900157" fill="#81BFFC" ><title >n0 → c7 {:msg_id 14, :in_reply_to 5, :type "cbcast_ok", :messages [10]}</title></rect><use xlink:href="#ahead" x="400.4996878900157" y="0" /><text text-anchor="middle" x="200.24984394500785" y="-4" transform="rotate(180 200.24984394500785 0)" filter="url(#glow)" style="fill: #fff" >cbcast_ok {:messages [10]}</text><text text-anchor="middle" x="200.24984394500785" y="-4" transform="rotate(180 200.24984394500785 0)" >cbcast_ok {:messages [10]}</text></g><g transform="translate(700.0 1870.0) rotate(16.69924423399362) " ><rect x="0" y="-2.5" height="5" width="204.806130178211" fill="#000" ><title >n0 → n1 {:msg_id 15, :type "fwd_msg", :vv {"n0" 5, "n1" 3, "n2" 3}, :message 12}</title></rect><use xlink:href="#ahead" x="208.806130178211" y="0" /><text text-anchor="middle" x="104.4030650891055" y="-4" transform="" filter="url(#glow)" style="fill: #fff" >fwd_msg {:vv {"n0" 5, "n1" 3, "n2" 3}, :message…</text><text text-anchor="middle" x="104.4030650891055" y="-4" transform="" >fwd_msg {:vv {"n0" 5, "n1" 3, "n2" 3}, :message…</text></g><g transform="translate(500.0 1910.0) rotate(5.710593137499643) " ><rect x="0" y="-2.5" height="5" width="397.9950248448356" fill="#81BFFC" ><title >c8 → n1 {:type "cbcast", :message 14, :msg_id 5}</title></rect><use xlink:href="#ahead" x="401.9950248448356" y="0" /><text text-anchor="middle" x="200.9975124224178" y="-4" transform="" filter="url(#glow)" style="fill: #fff" >cbcast {:message 14}</text><text text-anchor="middle" x="200.9975124224178" y="-4" transform="" >cbcast {:message 14}</text></g><g transform="translate(900.0 1970.0) rotate(177.13759477388828) " ><rect x="0" y="-2.5" height="5" width="396.4996878900157" fill="#81BFFC" ><title >n1 → c8 {:msg_id 14, :in_reply_to 5, :type "cbcast_ok", :messages [12]}</title></rect><use xlink:href="#ahead" x="400.4996878900157" y="0" /><text text-anchor="middle" x="200.24984394500785" y="-4" transform="rotate(180 200.24984394500785 0)" filter="url(#glow)" style="fill: #fff" >cbcast_ok {:messages [12]}</text><text text-anchor="middle" x="200.24984394500785" y="-4" transform="rotate(180 200.24984394500785 0)" >cbcast_ok {:messages [12]}</text></g><g transform="translate(900.0 1710.0) rotate(59.53445508054012) " ><rect x="0" y="-2.5" height="5" width="390.4616584663204" fill="#000" ><title >n1 → n2 {:msg_id 13, :type "fwd_msg", :vv {"n0" 4, "n1" 4, "n2" 2}, :message 11}</title></rect><use xlink:href="#ahead" x="394.4616584663204" y="0" /><text text-anchor="middle" x="197.2308292331602" y="-4" transform="" filter="url(#glow)" style="fill: #fff" >fwd_msg {:vv {"n0" 4, "n1" 4, "n2" 2}, :message…</text><text text-anchor="middle" x="197.2308292331602" y="-4" transform="" >fwd_msg {:vv {"n0" 4, "n1" 4, "n2" 2}, :message…</text></g><g transform="translate(100.0 1770.0) rotate(16.69924423399362) " ><rect x="0" y="-2.5" height="5" width="1040.030650891055" fill="#81BFFC" ><title >c6 → n2 {:type "cbcast", :message 13, :msg_id 4}</title></rect><use xlink:href="#ahead" x="1044.030650891055" y="0" /><text text-anchor="middle" x="522.0153254455275" y="-4" transform="" filter="url(#glow)" style="fill: #fff" >cbcast {:message 13}</text><text text-anchor="middle" x="522.0153254455275" y="-4" transform="" >cbcast {:message 13}</text></g><g transform="translate(700.0 1890.0) rotate(26.565051177077986) " ><rect x="0" y="-2.5" height="5" width="443.21359549995793" fill="#000" ><title >n0 → n2 {:msg_id 16, :type "fwd_msg", :vv {"n0" 5, "n1" 3, "n2" 3}, :message 12}</title></rect><use xlink:href="#ahead" x="447.21359549995793" y="0" /><text text-anchor="middle" x="223.60679774997897" y="-4" transform="" filter="url(#glow)" style="fill: #fff" >fwd_msg {:vv {"n0" 5, "n1" 3, "n2" 3}, :message…</text><text text-anchor="middle" x="223.60679774997897" y="-4" transform="" >fwd_msg {:vv {"n0" 5, "n1" 3, "n2" 3}, :message…</text></g><g transform="translate(1100.0 2110.0) rotate(178.8542371618249) " ><rect x="0" y="-2.5" height="5" width="996.199980003999" fill="#81BFFC" ><title >n2 → c6 {:msg_id 11, :in_reply_to 4, :type "cbcast_ok", :messages [8 5 9 11]}</title></rect><use xlink:href="#ahead" x="1000.199980003999" y="0" /><text text-anchor="middle" x="500.0999900019995" y="-4" transform="rotate(180 500.0999900019995 0)" filter="url(#glow)" style="fill: #fff" >cbcast_ok {:messages [8 5 9 11]}</text><text text-anchor="middle" x="500.0999900019995" y="-4" transform="rotate(180 500.0999900019995 0)" >cbcast_ok {:messages [8 5 9 11]}</text></g><g transform="translate(1100.0 2170.0) rotate(174.28940686250036) " ><rect x="0" y="-2.5" height="5" width="196.9975124224178" fill="#000" ><title >n2 → n1 {:msg_id 13, :type "fwd_msg", :vv {"n0" 4, "n1" 4, "n2" 4}, :message 13}</title></rect><use xlink:href="#ahead" x="200.9975124224178" y="0" /><text text-anchor="middle" x="100.4987562112089" y="-4" transform="rotate(180 100.4987562112089 0)" filter="url(#glow)" style="fill: #fff" >fwd_msg {:vv {"n0" 4, "n1" 4, "n2" 4}, :message…</text><text text-anchor="middle" x="100.4987562112089" y="-4" transform="rotate(180 100.4987562112089 0)" >fwd_msg {:vv {"n0" 4, "n1" 4, "n2" 4}, :message…</text></g><g transform="translate(900.0 1690.0) rotate(111.03751102542182) " ><rect x="0" y="-2.5" height="5" width="553.1355310873648" fill="#000" ><title >n1 → n0 {:msg_id 12, :type "fwd_msg", :vv {"n0" 4, "n1" 4, "n2" 2}, :message 11}</title></rect><use xlink:href="#ahead" x="557.1355310873648" y="0" /><text text-anchor="middle" x="278.5677655436824" y="-4" transform="rotate(180 278.5677655436824 0)" filter="url(#glow)" style="fill: #fff" >fwd_msg {:vv {"n0" 4, "n1" 4, "n2" 2}, :message…</text><text text-anchor="middle" x="278.5677655436824" y="-4" transform="rotate(180 278.5677655436824 0)" >fwd_msg {:vv {"n0" 4, "n1" 4, "n2" 2}, :message…</text></g><g transform="translate(1100.0 2150.0) rotate(168.69006752597983) " ><rect x="0" y="-2.5" height="5" width="403.9215610874228" fill="#000" ><title >n2 → n0 {:msg_id 12, :type "fwd_msg", :vv {"n0" 4, "n1" 4, "n2" 4}, :message 13}</title></rect><use xlink:href="#ahead" x="407.9215610874228" y="0" /><text text-anchor="middle" x="203.9607805437114" y="-4" transform="rotate(180 203.9607805437114 0)" filter="url(#glow)" style="fill: #fff" >fwd_msg {:vv {"n0" 4, "n1" 4, "n2" 4}, :message…</text><text text-anchor="middle" x="203.9607805437114" y="-4" transform="rotate(180 203.9607805437114 0)" >fwd_msg {:vv {"n0" 4, "n1" 4, "n2" 4}, :message…</text></g><g transform="translate(500.0 2250.0) rotate(2.862405226111748) " ><rect x="0" y="-2.5" height="5" width="396.4996878900157" fill="#81BFFC" ><title >c8 → n1 {:type "cbcast", :message 15, :msg_id 6}</title></rect><use xlink:href="#ahead" x="400.4996878900157" y="0" /><text text-anchor="middle" x="200.24984394500785" y="-4" transform="" filter="url(#glow)" style="fill: #fff" >cbcast {:message 15}</text><text text-anchor="middle" x="200.24984394500785" y="-4" transform="" >cbcast {:message 15}</text></g><g transform="translate(900.0 2290.0) rotate(177.13759477388828) " ><rect x="0" y="-2.5" height="5" width="396.4996878900157" fill="#81BFFC" ><title >n1 → c8 {:msg_id 17, :in_reply_to 6, :type "cbcast_ok", :messages [13 10]}</title></rect><use xlink:href="#ahead" x="400.4996878900157" y="0" /><text text-anchor="middle" x="200.24984394500785" y="-4" transform="rotate(180 200.24984394500785 0)" filter="url(#glow)" style="fill: #fff" >cbcast_ok {:messages [13 10]}</text><text text-anchor="middle" x="200.24984394500785" y="-4" transform="rotate(180 200.24984394500785 0)" >cbcast_ok {:messages [13 10]}</text></g><g transform="translate(900.0 2030.0) rotate(59.53445508054012) " ><rect x="0" y="-2.5" height="5" width="390.4616584663204" fill="#000" ><title >n1 → n2 {:msg_id 16, :type "fwd_msg", :vv {"n0" 5, "n1" 5, "n2" 2}, :message 14}</title></rect><use xlink:href="#ahead" x="394.4616584663204" y="0" /><text text-anchor="middle" x="197.2308292331602" y="-4" transform="" filter="url(#glow)" style="fill: #fff" >fwd_msg {:vv {"n0" 5, "n1" 5, "n2" 2}, :message…</text><text text-anchor="middle" x="197.2308292331602" y="-4" transform="" >fwd_msg {:vv {"n0" 5, "n1" 5, "n2" 2}, :message…</text></g><g transform="translate(900.0 2010.0) rotate(117.75854060106003) " ><rect x="0" y="-2.5" height="5" width="425.4182110716778" fill="#000" ><title >n1 → n0 {:msg_id 15, :type "fwd_msg", :vv {"n0" 5, "n1" 5, "n2" 2}, :message 14}</title></rect><use xlink:href="#ahead" x="429.4182110716778" y="0" /><text text-anchor="middle" x="214.7091055358389" y="-4" transform="rotate(180 214.7091055358389 0)" filter="url(#glow)" style="fill: #fff" >fwd_msg {:vv {"n0" 5, "n1" 5, "n2" 2}, :message…</text><text text-anchor="middle" x="214.7091055358389" y="-4" transform="rotate(180 214.7091055358389 0)" >fwd_msg {:vv {"n0" 5, "n1" 5, "n2" 2}, :message…</text></g><g transform="translate(900.0 2330.0) rotate(158.19859051364818) " ><rect x="0" y="-2.5" height="5" width="211.40659228538016" fill="#000" ><title >n1 → n0 {:msg_id 18, :type "fwd_msg", :vv {"n0" 5, "n1" 6, "n2" 4}, :message 15}</title></rect><use xlink:href="#ahead" x="215.40659228538016" y="0" /><text text-anchor="middle" x="107.70329614269008" y="-4" transform="rotate(180 107.70329614269008 0)" filter="url(#glow)" style="fill: #fff" >fwd_msg {:vv {"n0" 5, "n1" 6, "n2" 4}, :message…</text><text text-anchor="middle" x="107.70329614269008" y="-4" transform="rotate(180 107.70329614269008 0)" >fwd_msg {:vv {"n0" 5, "n1" 6, "n2" 4}, :message…</text></g><g transform="translate(900.0 2350.0) rotate(21.801409486351815) " ><rect x="0" y="-2.5" height="5" width="211.40659228538016" fill="#000" ><title >n1 → n2 {:msg_id 19, :type "fwd_msg", :vv {"n0" 5, "n1" 6, "n2" 4}, :message 15}</title></rect><use xlink:href="#ahead" x="215.40659228538016" y="0" /><text text-anchor="middle" x="107.70329614269008" y="-4" transform="" filter="url(#glow)" style="fill: #fff" >fwd_msg {:vv {"n0" 5, "n1" 6, "n2" 4}, :message…</text><text text-anchor="middle" x="107.70329614269008" y="-4" transform="" >fwd_msg {:vv {"n0" 5, "n1" 6, "n2" 4}, :message…</text></g><g transform="translate(100.0 2450.0) rotate(1.1457628381751035) " ><rect x="0" y="-2.5" height="5" width="996.199980003999" fill="#81BFFC" ><title >c6 → n2 {:type "cbcast", :message 16, :msg_id 5}</title></rect><use xlink:href="#ahead" x="1000.199980003999" y="0" /><text text-anchor="middle" x="500.0999900019995" y="-4" transform="" filter="url(#glow)" style="fill: #fff" >cbcast {:message 16}</text><text text-anchor="middle" x="500.0999900019995" y="-4" transform="" >cbcast {:message 16}</text></g><g transform="translate(1100.0 2490.0) rotate(178.8542371618249) " ><rect x="0" y="-2.5" height="5" width="996.199980003999" fill="#81BFFC" ><title >n2 → c6 {:msg_id 14, :in_reply_to 5, :type "cbcast_ok", :messages [14 15]}</title></rect><use xlink:href="#ahead" x="1000.199980003999" y="0" /><text text-anchor="middle" x="500.0999900019995" y="-4" transform="rotate(180 500.0999900019995 0)" filter="url(#glow)" style="fill: #fff" >cbcast_ok {:messages [14 15]}</text><text text-anchor="middle" x="500.0999900019995" y="-4" transform="rotate(180 500.0999900019995 0)" >cbcast_ok {:messages [14 15]}</text></g><g transform="translate(1100.0 2530.0) rotate(174.28940686250036) " ><rect x="0" y="-2.5" height="5" width="397.9950248448356" fill="#000" ><title >n2 → n0 {:msg_id 15, :type "fwd_msg", :vv {"n0" 4, "n1" 6, "n2" 5}, :message 16}</title></rect><use xlink:href="#ahead" x="401.9950248448356" y="0" /><text text-anchor="middle" x="200.9975124224178" y="-4" transform="rotate(180 200.9975124224178 0)" filter="url(#glow)" style="fill: #fff" >fwd_msg {:vv {"n0" 4, "n1" 6, "n2" 5}, :message…</text><text text-anchor="middle" x="200.9975124224178" y="-4" transform="rotate(180 200.9975124224178 0)" >fwd_msg {:vv {"n0" 4, "n1" 6, "n2" 5}, :message…</text></g><g transform="translate(300.0 2590.0) rotate(2.862405226111748) " ><rect x="0" y="-2.5" height="5" width="396.4996878900157" fill="#81BFFC" ><title >c7 → n0 {:type "cbcast", :message 17, :msg_id 6}</title></rect><use xlink:href="#ahead" x="400.4996878900157" y="0" /><text text-anchor="middle" x="200.24984394500785" y="-4" transform="" filter="url(#glow)" style="fill: #fff" >cbcast {:message 17}</text><text text-anchor="middle" x="200.24984394500785" y="-4" transform="" >cbcast {:message 17}</text></g><g transform="translate(700.0 2630.0) rotate(177.13759477388828) " ><rect x="0" y="-2.5" height="5" width="396.4996878900157" fill="#81BFFC" ><title >n0 → c7 {:msg_id 17, :in_reply_to 6, :type "cbcast_ok", :messages [13 14 11 15 16]}</title></rect><use xlink:href="#ahead" x="400.4996878900157" y="0" /><text text-anchor="middle" x="200.24984394500785" y="-4" transform="rotate(180 200.24984394500785 0)" filter="url(#glow)" style="fill: #fff" >cbcast_ok {:messages [13 14 11 15 16]}</text><text text-anchor="middle" x="200.24984394500785" y="-4" transform="rotate(180 200.24984394500785 0)" >cbcast_ok {:messages [13 14 11 15 16]}</text></g><g transform="translate(700.0 2690.0) rotate(2.862405226111748) " ><rect x="0" y="-2.5" height="5" width="396.4996878900157" fill="#000" ><title >n0 → n2 {:msg_id 19, :type "fwd_msg", :vv {"n0" 6, "n1" 6, "n2" 5}, :message 17}</title></rect><use xlink:href="#ahead" x="400.4996878900157" y="0" /><text text-anchor="middle" x="200.24984394500785" y="-4" transform="" filter="url(#glow)" style="fill: #fff" >fwd_msg {:vv {"n0" 6, "n1" 6, "n2" 5}, :message…</text><text text-anchor="middle" x="200.24984394500785" y="-4" transform="" >fwd_msg {:vv {"n0" 6, "n1" 6, "n2" 5}, :message…</text></g><g transform="translate(100.0 2730.0) rotate(1.1457628381751035) " ><rect x="0" y="-2.5" height="5" width="996.199980003999" fill="#81BFFC" ><title >c6 → n2 {:type "cbcast", :message 18, :msg_id 6}</title></rect><use xlink:href="#ahead" x="1000.199980003999" y="0" /><text text-anchor="middle" x="500.0999900019995" y="-4" transform="" filter="url(#glow)" style="fill: #fff" >cbcast {:message 18}</text><text text-anchor="middle" x="500.0999900019995" y="-4" transform="" >cbcast {:message 18}</text></g><g transform="translate(1100.0 2770.0) rotate(178.8542371618249) " ><rect x="0" y="-2.5" height="5" width="996.199980003999" fill="#81BFFC" ><title >n2 → c6 {:msg_id 17, :in_reply_to 6, :type "cbcast_ok", :messages [17 12]}</title></rect><use xlink:href="#ahead" x="1000.199980003999" y="0" /><text text-anchor="middle" x="500.0999900019995" y="-4" transform="rotate(180 500.0999900019995 0)" filter="url(#glow)" style="fill: #fff" >cbcast_ok {:messages [17 12]}</text><text text-anchor="middle" x="500.0999900019995" y="-4" transform="rotate(180 500.0999900019995 0)" >cbcast_ok {:messages [17 12]}</text></g><g transform="translate(1100.0 2810.0) rotate(174.28940686250036) " ><rect x="0" y="-2.5" height="5" width="397.9950248448356" fill="#000" ><title >n2 → n0 {:msg_id 18, :type "fwd_msg", :vv {"n0" 6, "n1" 6, "n2" 6}, :message 18}</title></rect><use xlink:href="#ahead" x="401.9950248448356" y="0" /><text text-anchor="middle" x="200.9975124224178" y="-4" transform="rotate(180 200.9975124224178 0)" filter="url(#glow)" style="fill: #fff" >fwd_msg {:vv {"n0" 6, "n1" 6, "n2" 6}, :message…</text><text text-anchor="middle" x="200.9975124224178" y="-4" transform="rotate(180 200.9975124224178 0)" >fwd_msg {:vv {"n0" 6, "n1" 6, "n2" 6}, :message…</text></g><g transform="translate(1100.0 2550.0) rotate(122.00538320808353) " ><rect x="0" y="-2.5" height="5" width="373.35924528226417" fill="#000" ><title >n2 → n1 {:msg_id 16, :type "fwd_msg", :vv {"n0" 4, "n1" 6, "n2" 5}, :message 16}</title></rect><use xlink:href="#ahead" x="377.35924528226417" y="0" /><text text-anchor="middle" x="188.67962264113208" y="-4" transform="rotate(180 188.67962264113208 0)" filter="url(#glow)" style="fill: #fff" >fwd_msg {:vv {"n0" 4, "n1" 6, "n2" 5}, :message…</text><text text-anchor="middle" x="188.67962264113208" y="-4" transform="rotate(180 188.67962264113208 0)" >fwd_msg {:vv {"n0" 4, "n1" 6, "n2" 5}, :message…</text></g><g transform="translate(700.0 2670.0) rotate(47.72631099390627) " ><rect x="0" y="-2.5" height="5" width="293.3213749463701" fill="#000" ><title >n0 → n1 {:msg_id 18, :type "fwd_msg", :vv {"n0" 6, "n1" 6, "n2" 5}, :message 17}</title></rect><use xlink:href="#ahead" x="297.3213749463701" y="0" /><text text-anchor="middle" x="148.66068747318505" y="-4" transform="" filter="url(#glow)" style="fill: #fff" >fwd_msg {:vv {"n0" 6, "n1" 6, "n2" 5}, :message…</text><text text-anchor="middle" x="148.66068747318505" y="-4" transform="" >fwd_msg {:vv {"n0" 6, "n1" 6, "n2" 5}, :message…</text></g><g transform="translate(300.0 2910.0) rotate(2.862405226111748) " ><rect x="0" y="-2.5" height="5" width="396.4996878900157" fill="#81BFFC" ><title >c7 → n0 {:type "cbcast", :message 19, :msg_id 7}</title></rect><use xlink:href="#ahead" x="400.4996878900157" y="0" /><text text-anchor="middle" x="200.24984394500785" y="-4" transform="" filter="url(#glow)" style="fill: #fff" >cbcast {:message 19}</text><text text-anchor="middle" x="200.24984394500785" y="-4" transform="" >cbcast {:message 19}</text></g><g transform="translate(700.0 2950.0) rotate(177.13759477388828) " ><rect x="0" y="-2.5" height="5" width="396.4996878900157" fill="#81BFFC" ><title >n0 → c7 {:msg_id 20, :in_reply_to 7, :type "cbcast_ok", :messages [18]}</title></rect><use xlink:href="#ahead" x="400.4996878900157" y="0" /><text text-anchor="middle" x="200.24984394500785" y="-4" transform="rotate(180 200.24984394500785 0)" filter="url(#glow)" style="fill: #fff" >cbcast_ok {:messages [18]}</text><text text-anchor="middle" x="200.24984394500785" y="-4" transform="rotate(180 200.24984394500785 0)" >cbcast_ok {:messages [18]}</text></g><g transform="translate(700.0 3010.0) rotate(2.862405226111748) " ><rect x="0" y="-2.5" height="5" width="396.4996878900157" fill="#000" ><title >n0 → n2 {:msg_id 22, :type "fwd_msg", :vv {"n0" 7, "n1" 6, "n2" 6}, :message 19}</title></rect><use xlink:href="#ahead" x="400.4996878900157" y="0" /><text text-anchor="middle" x="200.24984394500785" y="-4" transform="" filter="url(#glow)" style="fill: #fff" >fwd_msg {:vv {"n0" 7, "n1" 6, "n2" 6}, :message…</text><text text-anchor="middle" x="200.24984394500785" y="-4" transform="" >fwd_msg {:vv {"n0" 7, "n1" 6, "n2" 6}, :message…</text></g><g transform="translate(100.0 3050.0) rotate(1.1457628381751035) " ><rect x="0" y="-2.5" height="5" width="996.199980003999" fill="#81BFFC" ><title >c6 → n2 {:type "cbcast", :message 20, :msg_id 7}</title></rect><use xlink:href="#ahead" x="1000.199980003999" y="0" /><text text-anchor="middle" x="500.0999900019995" y="-4" transform="" filter="url(#glow)" style="fill: #fff" >cbcast {:message 20}</text><text text-anchor="middle" x="500.0999900019995" y="-4" transform="" >cbcast {:message 20}</text></g><g transform="translate(1100.0 3090.0) rotate(178.8542371618249) " ><rect x="0" y="-2.5" height="5" width="996.199980003999" fill="#81BFFC" ><title >n2 → c6 {:msg_id 20, :in_reply_to 7, :type "cbcast_ok", :messages [19]}</title></rect><use xlink:href="#ahead" x="1000.199980003999" y="0" /><text text-anchor="middle" x="500.0999900019995" y="-4" transform="rotate(180 500.0999900019995 0)" filter="url(#glow)" style="fill: #fff" >cbcast_ok {:messages [19]}</text><text text-anchor="middle" x="500.0999900019995" y="-4" transform="rotate(180 500.0999900019995 0)" >cbcast_ok {:messages [19]}</text></g><g transform="translate(1100.0 3130.0) rotate(174.28940686250036) " ><rect x="0" y="-2.5" height="5" width="397.9950248448356" fill="#000" ><title >n2 → n0 {:msg_id 21, :type "fwd_msg", :vv {"n0" 7, "n1" 6, "n2" 7}, :message 20}</title></rect><use xlink:href="#ahead" x="401.9950248448356" y="0" /><text text-anchor="middle" x="200.9975124224178" y="-4" transform="rotate(180 200.9975124224178 0)" filter="url(#glow)" style="fill: #fff" >fwd_msg {:vv {"n0" 7, "n1" 6, "n2" 7}, :message…</text><text text-anchor="middle" x="200.9975124224178" y="-4" transform="rotate(180 200.9975124224178 0)" >fwd_msg {:vv {"n0" 7, "n1" 6, "n2" 7}, :message…</text></g><g transform="translate(1100.0 2830.0) rotate(119.05460409907714) " ><rect x="0" y="-2.5" height="5" width="407.82520563948003" fill="#000" ><title >n2 → n1 {:msg_id 19, :type "fwd_msg", :vv {"n0" 6, "n1" 6, "n2" 6}, :message 18}</title></rect><use xlink:href="#ahead" x="411.82520563948003" y="0" /><text text-anchor="middle" x="205.91260281974002" y="-4" transform="rotate(180 205.91260281974002 0)" filter="url(#glow)" style="fill: #fff" >fwd_msg {:vv {"n0" 6, "n1" 6, "n2" 6}, :message…</text><text text-anchor="middle" x="205.91260281974002" y="-4" transform="rotate(180 205.91260281974002 0)" >fwd_msg {:vv {"n0" 6, "n1" 6, "n2" 6}, :message…</text></g></g></svg>