<?xml version="1.0" encoding="UTF-8"?><svg xmlns:svg="http://www.w3.org/2000/svg" xmlns="http://www.w3.org/2000/svg" xmlns:xlink="http://www.w3.org/1999/xlink" version="2.0" width="1200" height="1420" ><style >
svg {
  font-family: Helvetica, Arial, sans-serif;
  font-size: 11px;
}
rect {
  stroke-linecap: butt;
  stroke-width: 3;
  stroke: #fff;
/*  stroke-opacity: 1; */
}
rect:hover {
  stroke: #fff;
/*  stroke-opacity: 1; /*
}
polygon { fill: #000; }</style><defs ><polygon id="ahead" points="0 0, -12 4, -12 -4" /><filter id="glow" x="0" y="0" ><feGaussianBlur in="SourceAlpha" stdDeviation="2" result="blurred" /><feFlood flood-color="#fff" /><feComposite operator="in" in2="blurred" /><feComponentTransfer ><feFuncA type="linear" slope="10" intercept="0" /></feComponentTransfer><feMerge ><feMergeNode /><feMergeNode in="SourceGraphic" /></feMerge></filter></defs><g ><text x="37.5" y="20.0" text-anchor="middle" alignment-baseline="middle" fill="#000" >c6</text><text x="37.5" y="1020.0" text-anchor="middle" alignment-baseline="middle" fill="#aaa" >c6</text><text x="112.5" y="20.0" text-anchor="middle" alignment-baseline="middle" fill="#000" >c7</text><text x="112.5" y="1020.0" text-anchor="middle" alignment-baseline="middle" fill="#aaa" >c7</text><text x="187.5" y="20.0" text-anchor="middle" alignment-baseline="middle" fill="#000" >c8</text><text x="187.5" y="1020.0" text-anchor="middle" alignment-baseline="middle" fill="#aaa" >c8</text><text x="262.5" y="20.0" text-anchor="middle" alignment-baseline="middle" fill="#000" >c9</text><text x="262.5" y="1020.0" text-anchor="middle" alignment-baseline="middle" fill="#aaa" >c9</text><text x="337.5" y="20.0" text-anchor="middle" alignment-baseline="middle" fill="#000" >c10</text><text x="337.5" y="1020.0" text-anchor="middle" alignment-baseline="middle" fill="#aaa" >c10</text><text x="412.5" y="20.0" text-anchor="middle" alignment-baseline="middle" fill="#000" >c11</text><text x="412.5" y="1020.0" text-anchor="middle" alignment-baseline="middle" fill="#aaa" >c11</text><text x="487.5" y="20.0" text-anchor="middle" alignment-baseline="middle" fill="#000" >c12</text><text x="487.5" y="1020.0" text-anchor="middle" alignment-baseline="middle" fill="#aaa" >c12</text><text x="562.5" y="20.0" text-anchor="middle" alignment-baseline="middle" fill="#000" >c13</text><text x="562.5" y="1020.0" text-anchor="middle" alignment-baseline="middle" fill="#aaa" >c13</text><text x="637.5" y="20.0" text-anchor="middle" alignment-baseline="middle" fill="#000" >c14</text><text x="637.5" y="1020.0" text-anchor="middle" alignment-baseline="middle" fill="#aaa" >c14</text><text x="712.5" y="20.0" text-anchor="middle" alignment-baseline="middle" fill="#000" >c15</text><text x="712.5" y="1020.0" text-anchor="middle" alignment-baseline="middle" fill="#aaa" >c15</text><text x="787.5" y="20.0" text-anchor="middle" alignment-baseline="middle" fill="#000" >c16</text><text x="787.5" y="1020.0" text-anchor="middle" alignment-baseline="middle" fill="#aaa" >c16</text><text x="862.5" y="20.0" text-anchor="middle" alignment-baseline="middle" fill="#000" >c17</text><text x="862.5" y="1020.0" text-anchor="middle" alignment-baseline="middle" fill="#aaa" >c17</text><text x="937.5" y="20.0" text-anchor="middle" alignment-baseline="middle" fill="#000" >c18</text><text x="937.5" y="1020.0" text-anchor="middle" alignment-baseline="middle" fill="#aaa" >c18</text><text x="1012.5" y="20.0" text-anchor="middle" alignment-baseline="middle" fill="#000" >n0</text><text x="1012.5" y="1020.0" text-anchor="middle" alignment-baseline="middle" fill="#aaa" >n0</text><text x="1087.5" y="20.0" text-anchor="middle" alignment-baseline="middle" fill="#000" >n1</text><text x="1087.5" y="1020.0" text-anchor="middle" alignment-baseline="middle" fill="#aaa" >n1</text><text x="1162.5" y="20.0" text-anchor="middle" alignment-baseline="middle" fill="#000" >n2</text><text x="1162.5" y="1020.0" text-anchor="middle" alignment-baseline="middle" fill="#aaa" >n2</text></g><g ><line stroke="#ccc" x1="37.5" y1="30.0" x2="37.5" y2="1330.0" /><line stroke="#ccc" x1="112.5" y1="30.0" x2="112.5" y2="1330.0" /><line stroke="#ccc" x1="187.5" y1="30.0" x2="187.5" y2="1330.0" /><line stroke="#ccc" x1="262.5" y1="30.0" x2="262.5" y2="1330.0" /><line stroke="#ccc" x1="337.5" y1="30.0" x2="337.5" y2="1330.0" /><line stroke="#ccc" x1="412.5" y1="30.0" x2="412.5" y2="1330.0" /><line stroke="#ccc" x1="487.5" y1="30.0" x2="487.5" y2="1330.0" /><line stroke="#ccc" x1="562.5" y1="30.0" x2="562.5" y2="1330.0" /><line stroke="#ccc" x1="637.5" y1="30.0" x2="637.5" y2="1330.0" /><line stroke="#ccc" x1="712.5" y1="30.0" x2="712.5" y2="1330.0" /><line stroke="#ccc" x1="787.5" y1="30.0" x2="787.5" y2="1330.0" /><line stroke="#ccc" x1="862.5" y1="30.0" x2="862.5" y2="1330.0" /><line stroke="#ccc" x1="937.5" y1="30.0" x2="937.5" y2="1330.0" /><line stroke="#ccc" x1="1012.5" y1="30.0" x2="1012.5" y2="1330.0" /><line stroke="#ccc" x1="1087.5" y1="30.0" x2="1087.5" y2="1330.0" /><line stroke="#ccc" x1="1162.5" y1="30.0" x2="1162.5" y2="1330.0" /></g><g ><g transform="translate(37.5 50.0) rotate(1.0184843477131498) " ><rect x="0" y="-2.5" height="5" width="1121.1777637333578" fill="#81BFFC" ><title >c6 → n2 {:element 0, :type "remove", :msg_id 1}</title></rect><use xlink:href="#ahead" x="1125.1777637333578" y="0" /><text text-anchor="middle" x="562.5888818666789" y="-4" transform="" filter="url(#glow)" style="fill: #fff" >remove {:element 0}</text><text text-anchor="middle" x="562.5888818666789" y="-4" transform="" >remove {:element 0}</text></g><g transform="translate(1162.5 90.0) rotate(178.98151565228684) " ><rect x="0" y="-2.5" height="5" width="1121.1777637333578" fill="#FF1E90" ><title >n2 → c6 {:msg_id 2, :in_reply_to 1, :type "error", :code 20, :message "element not in set"}</title></rect><use xlink:href="#ahead" x="1125.1777637333578" y="0" /><text text-anchor="middle" x="562.5888818666789" y="-4" transform="rotate(180 562.5888818666789 0)" filter="url(#glow)" style="fill: #fff" >error </text><text text-anchor="middle" x="562.5888818666789" y="-4" transform="rotate(180 562.5888818666789 0)" >error </text></g><g transform="translate(112.5 130.0) rotate(1.1751332372393644) " ><rect x="0" y="-2.5" height="5" width="971.2051066314203" fill="#81BFFC" ><title >c7 → n1 {:element 0, :type "add", :msg_id 1}</title></rect><use xlink:href="#ahead" x="975.2051066314203" y="0" /><text text-anchor="middle" x="487.60255331571017" y="-4" transform="" filter="url(#glow)" style="fill: #fff" >add {:element 0}</text><text text-anchor="middle" x="487.60255331571017" y="-4" transform="" >add {:element 0}</text></g><g transform="translate(1087.5 170.0) rotate(165.06858282186246) " ><rect x="0" y="-2.5" height="5" width="73.62087348130012" fill="#000" ><title >n1 → n0 {:msg_id 2, :type "fwd_add", :element 0, :id ["n1" 1], :r [], :vv {"n0" 0, "n1" 1, "n2" 0}}</title></rect><use xlink:href="#ahead" x="77.62087348130012" y="0" /><text text-anchor="middle" x="38.81043674065006" y="-4" transform="rotate(180 38.81043674065006 0)" filter="url(#glow)" style="fill: #fff" >fwd_add {:element 0, :id ["n1" 1], :r [], :vv {…</text><text text-anchor="middle" x="38.81043674065006" y="-4" transform="rotate(180 38.81043674065006 0)" >fwd_add {:element 0, :id ["n1" 1], :r [], :vv {…</text></g><g transform="translate(1087.5 210.0) rotate(14.931417178137552) " ><rect x="0" y="-2.5" height="5" width="73.62087348130012" fill="#000" ><title >n1 → n2 {:msg_id 3, :type "fwd_add", :element 0, :id ["n1" 1], :r [], :vv {"n0" 0, "n1" 1, "n2" 0}}</title></rect><use xlink:href="#ahead" x="77.62087348130012" y="0" /><text text-anchor="middle" x="38.81043674065006" y="-4" transform="" filter="url(#glow)" style="fill: #fff" >fwd_add {:element 0, :id ["n1" 1], :r [], :vv {…</text><text text-anchor="middle" x="38.81043674065006" y="-4" transform="" >fwd_add {:element 0, :id ["n1" 1], :r [], :vv {…</text></g><g transform="translate(187.5 250.0) rotate(1.3887165895513243) " ><rect x="0" y="-2.5" height="5" width="821.2423886349998" fill="#81BFFC" ><title >c8 → n0 {:element 1, :type "add", :msg_id 1}</title></rect><use xlink:href="#ahead" x="825.2423886349998" y="0" /><text text-anchor="middle" x="412.6211943174999" y="-4" transform="" filter="url(#glow)" style="fill: #fff" >add {:element 1}</text><text text-anchor="middle" x="412.6211943174999" y="-4" transform="" >add {:element 1}</text></g><g transform="translate(1012.5 290.0) rotate(14.931417178137552) " ><rect x="0" y="-2.5" height="5" width="73.62087348130012" fill="#000" ><title >n0 → n1 {:msg_id 2, :type "fwd_add", :element 1, :id ["n0" 1], :r [], :vv {"n0" 1, "n1" 1, "n2" 0}}</title></rect><use xlink:href="#ahead" x="77.62087348130012" y="0" /><text text-anchor="middle" x="38.81043674065006" y="-4" transform="" filter="url(#glow)" style="fill: #fff" >fwd_add {:element 1, :id ["n0" 1], :r [], :vv {…</text><text text-anchor="middle" x="38.81043674065006" y="-4" transform="" >fwd_add {:element 1, :id ["n0" 1], :r [], :vv {…</text></g><g transform="translate(1012.5 330.0) rotate(7.594643368591445) " ><rect x="0" y="-2.5" height="5" width="147.32745950421557" fill="#000" ><title >n0 → n2 {:msg_id 3, :type "fwd_add", :element 1, :id ["n0" 1], :r [], :vv {"n0" 1, "n1" 1, "n2" 0}}</title></rect><use xlink:href="#ahead" x="151.32745950421557" y="0" /><text text-anchor="middle" x="75.66372975210778" y="-4" transform="" filter="url(#glow)" style="fill: #fff" >fwd_add {:element 1, :id ["n0" 1], :r [], :vv {…</text><text text-anchor="middle" x="75.66372975210778" y="-4" transform="" >fwd_add {:element 1, :id ["n0" 1], :r [], :vv {…</text></g><g transform="translate(262.5 370.0) rotate(1.2730300200567113) " ><rect x="0" y="-2.5" height="5" width="896.222194794152" fill="#81BFFC" ><title >c9 → n2 {:type "read", :msg_id 1}</title></rect><use xlink:href="#ahead" x="900.222194794152" y="0" /><text text-anchor="middle" x="450.111097397076" y="-4" transform="" filter="url(#glow)" style="fill: #fff" >read {}</text><text text-anchor="middle" x="450.111097397076" y="-4" transform="" >read {}</text></g><g transform="translate(1162.5 410.0) rotate(178.7269699799433) " ><rect x="0" y="-2.5" height="5" width="896.222194794152" fill="#81BFFC" ><title >n2 → c9 {:msg_id 3, :in_reply_to 1, :type "read_ok", :value [0 1]}</title></rect><use xlink:href="#ahead" x="900.222194794152" y="0" /><text text-anchor="middle" x="450.111097397076" y="-4" transform="rotate(180 450.111097397076 0)" filter="url(#glow)" style="fill: #fff" >read_ok {:value [0 1]}</text><text text-anchor="middle" x="450.111097397076" y="-4" transform="rotate(180 450.111097397076 0)" >read_ok {:value [0 1]}</text></g><g transform="translate(262.5 450.0) rotate(1.2730300200567113) " ><rect x="0" y="-2.5" height="5" width="896.222194794152" fill="#81BFFC" ><title >c9 → n2 {:type "read", :msg_id 2}</title></rect><use xlink:href="#ahead" x="900.222194794152" y="0" /><text text-anchor="middle" x="450.111097397076" y="-4" transform="" filter="url(#glow)" style="fill: #fff" >read {}</text><text text-anchor="middle" x="450.111097397076" y="-4" transform="" >read {}</text></g><g transform="translate(1162.5 490.0) rotate(178.7269699799433) " ><rect x="0" y="-2.5" height="5" width="896.222194794152" fill="#81BFFC" ><title >n2 → c9 {:msg_id 4, :in_reply_to 2, :type "read_ok", :value [0 1]}</title></rect><use xlink:href="#ahead" x="900.222194794152" y="0" /><text text-anchor="middle" x="450.111097397076" y="-4" transform="rotate(180 450.111097397076 0)" filter="url(#glow)" style="fill: #fff" >read_ok {:value [0 1]}</text><text text-anchor="middle" x="450.111097397076" y="-4" transform="rotate(180 450.111097397076 0)" >read_ok {:value [0 1]}</text></g><g transform="translate(262.5 530.0) rotate(1.2730300200567113) " ><rect x="0" y="-2.5" height="5" width="896.222194794152" fill="#81BFFC" ><title >c9 → n2 {:element 0, :type "remove", :msg_id 3}</title></rect><use xlink:href="#ahead" x="900.222194794152" y="0" /><text text-anchor="middle" x="450.111097397076" y="-4" transform="" filter="url(#glow)" style="fill: #fff" >remove {:element 0}</text><text text-anchor="middle" x="450.111097397076" y="-4" transform="" >remove {:element 0}</text></g><g transform="translate(337.5 570.0) rotate(1.527525442212927) " ><rect x="0" y="-2.5" height="5" width="746.2666192761077" fill="#81BFFC" ><title >c10 → n1 {:element 2, :type "add", :msg_id 1}</title></rect><use xlink:href="#ahead" x="750.2666192761077" y="0" /><text text-anchor="middle" x="375.13330963805384" y="-4" transform="" filter="url(#glow)" style="fill: #fff" >add {:element 2}</text><text text-anchor="middle" x="375.13330963805384" y="-4" transform="" >add {:element 2}</text></g><g transform="translate(1087.5 610.0) rotate(165.06858282186246) " ><rect x="0" y="-2.5" height="5" width="73.62087348130012" fill="#000" ><title >n1 → n0 {:msg_id 4, :type "fwd_add", :element 2, :id ["n1" 2], :r [], :vv {"n0" 1, "n1" 2, "n2" 0}}</title></rect><use xlink:href="#ahead" x="77.62087348130012" y="0" /><text text-anchor="middle" x="38.81043674065006" y="-4" transform="rotate(180 38.81043674065006 0)" filter="url(#glow)" style="fill: #fff" >fwd_add {:element 2, :id ["n1" 2], :r [], :vv {…</text><text text-anchor="middle" x="38.81043674065006" y="-4" transform="rotate(180 38.81043674065006 0)" >fwd_add {:element 2, :id ["n1" 2], :r [], :vv {…</text></g><g transform="translate(1087.5 650.0) rotate(14.931417178137552) " ><rect x="0" y="-2.5" height="5" width="73.62087348130012" fill="#000" ><title >n1 → n2 {:msg_id 5, :type "fwd_add", :element 2, :id ["n1" 2], :r [], :vv {"n0" 1, "n1" 2, "n2" 0}}</title></rect><use xlink:href="#ahead" x="77.62087348130012" y="0" /><text text-anchor="middle" x="38.81043674065006" y="-4" transform="" filter="url(#glow)" style="fill: #fff" >fwd_add {:element 2, :id ["n1" 2], :r [], :vv {…</text><text text-anchor="middle" x="38.81043674065006" y="-4" transform="" >fwd_add {:element 2, :id ["n1" 2], :r [], :vv {…</text></g><g transform="translate(412.5 690.0) rotate(1.9091524329963763) " ><rect x="0" y="-2.5" height="5" width="596.3332407921454" fill="#81BFFC" ><title >c11 → n0 {:type "read", :msg_id 1}</title></rect><use xlink:href="#ahead" x="600.3332407921454" y="0" /><text text-anchor="middle" x="300.1666203960727" y="-4" transform="" filter="url(#glow)" style="fill: #fff" >read {}</text><text text-anchor="middle" x="300.1666203960727" y="-4" transform="" >read {}</text></g><g transform="translate(1012.5 730.0) rotate(178.0908475670036) " ><rect x="0" y="-2.5" height="5" width="596.3332407921454" fill="#81BFFC" ><title >n0 → c11 {:msg_id 4, :in_reply_to 1, :type "read_ok", :value [0 1 2]}</title></rect><use xlink:href="#ahead" x="600.3332407921454" y="0" /><text text-anchor="middle" x="300.1666203960727" y="-4" transform="rotate(180 300.1666203960727 0)" filter="url(#glow)" style="fill: #fff" >read_ok {:value [0 1 2]}</text><text text-anchor="middle" x="300.1666203960727" y="-4" transform="rotate(180 300.1666203960727 0)" >read_ok {:value [0 1 2]}</text></g><g transform="translate(412.5 770.0) rotate(1.9091524329963763) " ><rect x="0" y="-2.5" height="5" width="596.3332407921454" fill="#81BFFC" ><title >c11 → n0 {:type "read", :msg_id 2}</title></rect><use xlink:href="#ahead" x="600.3332407921454" y="0" /><text text-anchor="middle" x="300.1666203960727" y="-4" transform="" filter="url(#glow)" style="fill: #fff" >read {}</text><text text-anchor="middle" x="300.1666203960727" y="-4" transform="" >read {}</text></g><g transform="translate(1012.5 810.0) rotate(178.0908475670036) " ><rect x="0" y="-2.5" height="5" width="596.3332407921454" fill="#81BFFC" ><title >n0 → c11 {:msg_id 5, :in_reply_to 2, :type "read_ok", :value [0 1 2]}</title></rect><use xlink:href="#ahead" x="600.3332407921454" y="0" /><text text-anchor="middle" x="300.1666203960727" y="-4" transform="rotate(180 300.1666203960727 0)" filter="url(#glow)" style="fill: #fff" >read_ok {:value [0 1 2]}</text><text text-anchor="middle" x="300.1666203960727" y="-4" transform="rotate(180 300.1666203960727 0)" >read_ok {:value [0 1 2]}</text></g><g transform="translate(412.5 850.0) rotate(1.9091524329963763) " ><rect x="0" y="-2.5" height="5" width="596.3332407921454" fill="#81BFFC" ><title >c11 → n0 {:element 3, :type "add", :msg_id 3}</title></rect><use xlink:href="#ahead" x="600.3332407921454" y="0" /><text text-anchor="middle" x="300.1666203960727" y="-4" transform="" filter="url(#glow)" style="fill: #fff" >add {:element 3}</text><text text-anchor="middle" x="300.1666203960727" y="-4" transform="" >add {:element 3}</text></g><g transform="translate(1012.5 890.0) rotate(14.931417178137552) " ><rect x="0" y="-2.5" height="5" width="73.62087348130012" fill="#000" ><title >n0 → n1 {:msg_id 6, :type "fwd_add", :element 3, :id ["n0" 2], :r [], :vv {"n0" 2, "n1" 2, "n2" 0}}</title></rect><use xlink:href="#ahead" x="77.62087348130012" y="0" /><text text-anchor="middle" x="38.81043674065006" y="-4" transform="" filter="url(#glow)" style="fill: #fff" >fwd_add {:element 3, :id ["n0" 2], :r [], :vv {…</text><text text-anchor="middle" x="38.81043674065006" y="-4" transform="" >fwd_add {:element 3, :id ["n0" 2], :r [], :vv {…</text></g><g transform="translate(1012.5 930.0) rotate(7.594643368591445) " ><rect x="0" y="-2.5" height="5" width="147.32745950421557" fill="#000" ><title >n0 → n2 {:msg_id 7, :type "fwd_add", :element 3, :id ["n0" 2], :r [], :vv {"n0" 2, "n1" 2, "n2" 0}}</title></rect><use xlink:href="#ahead" x="151.32745950421557" y="0" /><text text-anchor="middle" x="75.66372975210778" y="-4" transform="" filter="url(#glow)" style="fill: #fff" >fwd_add {:element 3, :id ["n0" 2], :r [], :vv {…</text><text text-anchor="middle" x="75.66372975210778" y="-4" transform="" >fwd_add {:element 3, :id ["n0" 2], :r [], :vv {…</text></g><g transform="translate(487.5 970.0) rotate(1.6971561896002842) " ><rect x="0" y="-2.5" height="5" width="671.2962312940892" fill="#81BFFC" ><title >c12 → n2 {:element 4, :type "add", :msg_id 1}</title></rect><use xlink:href="#ahead" x="675.2962312940892" y="0" /><text text-anchor="middle" x="337.6481156470446" y="-4" transform="" filter="url(#glow)" style="fill: #fff" >add {:element 4}</text><text text-anchor="middle" x="337.6481156470446" y="-4" transform="" >add {:element 4}</text></g><g transform="translate(562.5 1010.0) rotate(2.1816414035514664) " ><rect x="0" y="-2.5" height="5" width="521.3808142671371" fill="#81BFFC" ><title >c13 → n1 {:element 1, :type "remove", :msg_id 1}</title></rect><use xlink:href="#ahead" x="525.3808142671371" y="0" /><text text-anchor="middle" x="262.69040713356856" y="-4" transform="" filter="url(#glow)" style="fill: #fff" >remove {:element 1}</text><text text-anchor="middle" x="262.69040713356856" y="-4" transform="" >remove {:element 1}</text></g><g transform="translate(637.5 1050.0) rotate(3.0528825147924286) " ><rect x="0" y="-2.5" height="5" width="371.53295461250804" fill="#81BFFC" ><title >c14 → n0 {:type "read", :msg_id 1}</title></rect><use xlink:href="#ahead" x="375.53295461250804" y="0" /><text text-anchor="middle" x="187.76647730625402" y="-4" transform="" filter="url(#glow)" style="fill: #fff" >read {}</text><text text-anchor="middle" x="187.76647730625402" y="-4" transform="" >read {}</text></g><g transform="translate(1012.5 1090.0) rotate(176.94711748520757) " ><rect x="0" y="-2.5" height="5" width="371.53295461250804" fill="#81BFFC" ><title >n0 → c14 {:msg_id 8, :in_reply_to 1, :type "read_ok", :value [0 1 2 3]}</title></rect><use xlink:href="#ahead" x="375.53295461250804" y="0" /><text text-anchor="middle" x="187.76647730625402" y="-4" transform="rotate(180 187.76647730625402 0)" filter="url(#glow)" style="fill: #fff" >read_ok {:value [0 1 2 3]}</text><text text-anchor="middle" x="187.76647730625402" y="-4" transform="rotate(180 187.76647730625402 0)" >read_ok {:value [0 1 2 3]}</text></g><g transform="translate(637.5 1130.0) rotate(3.0528825147924286) " ><rect x="0" y="-2.5" height="5" width="371.53295461250804" fill="#81BFFC" ><title >c14 → n0 {:element 2, :type "remove", :msg_id 2}</title></rect><use xlink:href="#ahead" x="375.53295461250804" y="0" /><text text-anchor="middle" x="187.76647730625402" y="-4" transform="" filter="url(#glow)" style="fill: #fff" >remove {:element 2}</text><text text-anchor="middle" x="187.76647730625402" y="-4" transform="" >remove {:element 2}</text></g><g transform="translate(712.5 1170.0) rotate(2.5448043798130957) " ><rect x="0" y="-2.5" height="5" width="446.4442251822083" fill="#81BFFC" ><title >c15 → n2 {:element 5, :type "add", :msg_id 1}</title></rect><use xlink:href="#ahead" x="450.4442251822083" y="0" /><text text-anchor="middle" x="225.22211259110415" y="-4" transform="" filter="url(#glow)" style="fill: #fff" >add {:element 5}</text><text text-anchor="middle" x="225.22211259110415" y="-4" transform="" >add {:element 5}</text></g><g transform="translate(937.5 1210.0) rotate(14.931417178137552) " ><rect x="0" y="-2.5" height="5" width="228.86262044390037" fill="#81BFFC" ><title >c18 → n2 {:type "read", :msg_id 1}</title></rect><use xlink:href="#ahead" x="232.86262044390037" y="0" /><text text-anchor="middle" x="116.43131022195018" y="-4" transform="" filter="url(#glow)" style="fill: #fff" >read {}</text><text text-anchor="middle" x="116.43131022195018" y="-4" transform="" >read {}</text></g><g transform="translate(862.5 1230.0) rotate(21.801409486351815) " ><rect x="0" y="-2.5" height="5" width="157.55494421403512" fill="#81BFFC" ><title >c17 → n0 {:type "read", :msg_id 1}</title></rect><use xlink:href="#ahead" x="161.55494421403512" y="0" /><text text-anchor="middle" x="80.77747210701756" y="-4" transform="" filter="url(#glow)" style="fill: #fff" >read {}</text><text text-anchor="middle" x="80.77747210701756" y="-4" transform="" >read {}</text></g><g transform="translate(787.5 1250.0) rotate(11.309932474020215) " ><rect x="0" y="-2.5" height="5" width="301.9411708155671" fill="#81BFFC" ><title >c16 → n1 {:type "read", :msg_id 1}</title></rect><use xlink:href="#ahead" x="305.9411708155671" y="0" /><text text-anchor="middle" x="152.97058540778355" y="-4" transform="" filter="url(#glow)" style="fill: #fff" >read {}</text><text text-anchor="middle" x="152.97058540778355" y="-4" transform="" >read {}</text></g></g></svg>