<?xml version="1.0" encoding="UTF-8"?><svg xmlns:svg="http://www.w3.org/2000/svg" xmlns="http://www.w3.org/2000/svg" xmlns:xlink="http://www.w3.org/1999/xlink" version="2.0" width="1200" height="1700" ><style >
svg {
  font-family: Helvetica, Arial, sans-serif;
  font-size: 11px;
}
rect {
  stroke-linecap: butt;
  stroke-width: 3;
  stroke: #fff;
/*  stroke-opacity: 1; */
}
rect:hover {
  stroke: #fff;
/*  stroke-opacity: 1; /*
}
polygon { fill: #000; }</style><defs ><polygon id="ahead" points="0 0, -12 4, -12 -4" /><filter id="glow" x="0" y="0" ><feGaussianBlur in="SourceAlpha" stdDeviation="2" result="blurred" /><feFlood flood-color="#fff" /><feComposite operator="in" in2="blurred" /><feComponentTransfer ><feFuncA type="linear" slope="10" intercept="0" /></feComponentTransfer><feMerge ><feMergeNode /><feMergeNode in="SourceGraphic" /></feMerge></filter></defs><g ><text x="28.571428" y="20.0" text-anchor="middle" alignment-baseline="middle" fill="#000" >c6</text><text x="28.571428" y="1020.0" text-anchor="middle" alignment-baseline="middle" fill="#aaa" >c6</text><text x="85.71429" y="20.0" text-anchor="middle" alignment-baseline="middle" fill="#000" >c7</text><text x="85.71429" y="1020.0" text-anchor="middle" alignment-baseline="middle" fill="#aaa" >c7</text><text x="142.85715" y="20.0" text-anchor="middle" alignment-baseline="middle" fill="#000" >c8</text><text x="142.85715" y="1020.0" text-anchor="middle" alignment-baseline="middle" fill="#aaa" >c8</text><text x="200.0" y="20.0" text-anchor="middle" alignment-baseline="middle" fill="#000" >c9</text><text x="200.0" y="1020.0" text-anchor="middle" alignment-baseline="middle" fill="#aaa" >c9</text><text x="257.14285" y="20.0" text-anchor="middle" alignment-baseline="middle" fill="#000" >c10</text><text x="257.14285" y="1020.0" text-anchor="middle" alignment-baseline="middle" fill="#aaa" >c10</text><text x="314.2857" y="20.0" text-anchor="middle" alignment-baseline="middle" fill="#000" >c11</text><text x="314.2857" y="1020.0" text-anchor="middle" alignment-baseline="middle" fill="#aaa" >c11</text><text x="371.42856" y="20.0" text-anchor="middle" alignment-baseline="middle" fill="#000" >c12</text><text x="371.42856" y="1020.0" text-anchor="middle" alignment-baseline="middle" fill="#aaa" >c12</text><text x="428.57144" y="20.0" text-anchor="middle" alignment-baseline="middle" fill="#000" >c13</text><text x="428.57144" y="1020.0" text-anchor="middle" alignment-baseline="middle" fill="#aaa" >c13</text><text x="485.7143" y="20.0" text-anchor="middle" alignment-baseline="middle" fill="#000" >c14</text><text x="485.7143" y="1020.0" text-anchor="middle" alignment-baseline="middle" fill="#aaa" >c14</text><text x="542.8571" y="20.0" text-anchor="middle" alignment-baseline="middle" fill="#000" >c15</text><text x="542.8571" y="1020.0" text-anchor="middle" alignment-baseline="middle" fill="#aaa" >c15</text><text x="600.0" y="20.0" text-anchor="middle" alignment-baseline="middle" fill="#000" >c16</text><text x="600.0" y="1020.0" text-anchor="middle" alignment-baseline="middle" fill="#aaa" >c16</text><text x="657.1429" y="20.0" text-anchor="middle" alignment-baseline="middle" fill="#000" >c17</text><text x="657.1429" y="1020.0" text-anchor="middle" alignment-baseline="middle" fill="#aaa" >c17</text><text x="714.2857" y="20.0" text-anchor="middle" alignment-baseline="middle" fill="#000" >c18</text><text x="714.2857" y="1020.0" text-anchor="middle" alignment-baseline="middle" fill="#aaa" >c18</text><text x="771.4286" y="20.0" text-anchor="middle" alignment-baseline="middle" fill="#000" >c19</text><text x="771.4286" y="1020.0" text-anchor="middle" alignment-baseline="middle" fill="#aaa" >c19</text><text x="828.5714" y="20.0" text-anchor="middle" alignment-baseline="middle" fill="#000" >c20</text><text x="828.5714" y="1020.0" text-anchor="middle" alignment-baseline="middle" fill="#aaa" >c20</text><text x="885.7143" y="20.0" text-anchor="middle" alignment-baseline="middle" fill="#000" >c21</text><text x="885.7143" y="1020.0" text-anchor="middle" alignment-baseline="middle" fill="#aaa" >c21</text><text x="942.8571" y="20.0" text-anchor="middle" alignment-baseline="middle" fill="#000" >c22</text><text x="942.8571" y="1020.0" text-anchor="middle" alignment-baseline="middle" fill="#aaa" >c22</text><text x="1000.0" y="20.0" text-anchor="middle" alignment-baseline="middle" fill="#000" >c23</text><text x="1000.0" y="1020.0" text-anchor="middle" alignment-baseline="middle" fill="#aaa" >c23</text><text x="1057.1428" y="20.0" text-anchor="middle" alignment-baseline="middle" fill="#000" >n0</text><text x="1057.1428" y="1020.0" text-anchor="middle" alignment-baseline="middle" fill="#aaa" >n0</text><text x="1114.2858" y="20.0" text-anchor="middle" alignment-baseline="middle" fill="#000" >n1</text><text x="1114.2858" y="1020.0" text-anchor="middle" alignment-baseline="middle" fill="#aaa" >n1</text><text x="1171.4286" y="20.0" text-anchor="middle" alignment-baseline="middle" fill="#000" >n2</text><text x="1171.4286" y="1020.0" text-anchor="middle" alignment-baseline="middle" fill="#aaa" >n2</text></g><g ><line stroke="#ccc" x1="28.571428" y1="30.0" x2="28.571428" y2="1610.0" /><line stroke="#ccc" x1="85.71429" y1="30.0" x2="85.71429" y2="1610.0" /><line stroke="#ccc" x1="142.85715" y1="30.0" x2="142.85715" y2="1610.0" /><line stroke="#ccc" x1="200.0" y1="30.0" x2="200.0" y2="1610.0" /><line stroke="#ccc" x1="257.14285" y1="30.0" x2="257.14285" y2="1610.0" /><line stroke="#ccc" x1="314.2857" y1="30.0" x2="314.2857" y2="1610.0" /><line stroke="#ccc" x1="371.42856" y1="30.0" x2="371.42856" y2="1610.0" /><line stroke="#ccc" x1="428.57144" y1="30.0" x2="428.57144" y2="1610.0" /><line stroke="#ccc" x1="485.7143" y1="30.0" x2="485.7143" y2="1610.0" /><line stroke="#ccc" x1="542.8571" y1="30.0" x2="542.8571" y2="1610.0" /><line stroke="#ccc" x1="600.0" y1="30.0" x2="600.0" y2="1610.0" /><line stroke="#ccc" x1="657.1429" y1="30.0" x2="657.1429" y2="1610.0" /><line stroke="#ccc" x1="714.2857" y1="30.0" x2="714.2857" y2="1610.0" /><line stroke="#ccc" x1="771.4286" y1="30.0" x2="771.4286" y2="1610.0" /><line stroke="#ccc" x1="828.5714" y1="30.0" x2="828.5714" y2="1610.0" /><line stroke="#ccc" x1="885.7143" y1="30.0" x2="885.7143" y2="1610.0" /><line stroke="#ccc" x1="942.8571" y1="30.0" x2="942.8571" y2="1610.0" /><line stroke="#ccc" x1="1000.0" y1="30.0" x2="1000.0" y2="1610.0" /><line stroke="#ccc" x1="1057.1428" y1="30.0" x2="1057.1428" y2="1610.0" /><line stroke="#ccc" x1="1114.2858" y1="30.0" x2="1114.2858" y2="1610.0" /><line stroke="#ccc" x1="1171.4286" y1="30.0" x2="1171.4286" y2="1610.0" /></g><g ><g transform="translate(28.571428 50.0) rotate(1.1139442642009731) " ><rect x="0" y="-2.5" height="5" width="1024.7658200419319" fill="#81BFFC" ><title >c6 → n0 {:element 0, :type "remove", :msg_id 1}</title></rect><use xlink:href="#ahead" x="1028.7658200419319" y="0" /><text text-anchor="middle" x="514.3829100209659" y="-4" transform="" filter="url(#glow)" style="fill: #fff" >remove {:element 0}</text><text text-anchor="middle" x="514.3829100209659" y="-4" transform="" >remove {:element 0}</text></g><g transform="translate(1057.1428 90.0) rotate(178.88605573579903) " ><rect x="0" y="-2.5" height="5" width="1024.7658200419319" fill="#FF1E90" ><title >n0 → c6 {:msg_id 2, :in_reply_to 1, :type "error", :code 20, :message "element not in set"}</title></rect><use xlink:href="#ahead" x="1028.7658200419319" y="0" /><text text-anchor="middle" x="514.3829100209659" y="-4" transform="rotate(180 514.3829100209659 0)" filter="url(#glow)" style="fill: #fff" >error </text><text text-anchor="middle" x="514.3829100209659" y="-4" transform="rotate(180 514.3829100209659 0)" >error </text></g><g transform="translate(85.71429 130.0) rotate(1.1139441712696472) " ><rect x="0" y="-2.5" height="5" width="1024.7659058563993" fill="#81BFFC" ><title >c7 → n1 {:element 0, :type "remove", :msg_id 1}</title></rect><use xlink:href="#ahead" x="1028.7659058563993" y="0" /><text text-anchor="middle" x="514.3829529281996" y="-4" transform="" filter="url(#glow)" style="fill: #fff" >remove {:element 0}</text><text text-anchor="middle" x="514.3829529281996" y="-4" transform="" >remove {:element 0}</text></g><g transform="translate(1114.2858 170.0) rotate(178.88605582873035) " ><rect x="0" y="-2.5" height="5" width="1024.7659058563993" fill="#FF1E90" ><title >n1 → c7 {:msg_id 2, :in_reply_to 1, :type "error", :code 20, :message "element not in set"}</title></rect><use xlink:href="#ahead" x="1028.7659058563993" y="0" /><text text-anchor="middle" x="514.3829529281996" y="-4" transform="rotate(180 514.3829529281996 0)" filter="url(#glow)" style="fill: #fff" >error </text><text text-anchor="middle" x="514.3829529281996" y="-4" transform="rotate(180 514.3829529281996 0)" >error </text></g><g transform="translate(142.85715 210.0) rotate(1.2531453729050288) " ><rect x="0" y="-2.5" height="5" width="910.5043988956485" fill="#81BFFC" ><title >c8 → n0 {:element 1, :type "remove", :msg_id 1}</title></rect><use xlink:href="#ahead" x="914.5043988956485" y="0" /><text text-anchor="middle" x="457.25219944782424" y="-4" transform="" filter="url(#glow)" style="fill: #fff" >remove {:element 1}</text><text text-anchor="middle" x="457.25219944782424" y="-4" transform="" >remove {:element 1}</text></g><g transform="translate(1057.1428 250.0) rotate(178.746854627095) " ><rect x="0" y="-2.5" height="5" width="910.5043988956485" fill="#FF1E90" ><title >n0 → c8 {:msg_id 3, :in_reply_to 1, :type "error", :code 20, :message "element not in set"}</title></rect><use xlink:href="#ahead" x="914.5043988956485" y="0" /><text text-anchor="middle" x="457.25219944782424" y="-4" transform="rotate(180 457.25219944782424 0)" filter="url(#glow)" style="fill: #fff" >error </text><text text-anchor="middle" x="457.25219944782424" y="-4" transform="rotate(180 457.25219944782424 0)" >error </text></g><g transform="translate(200.0 290.0) rotate(1.2531452474603317) " ><rect x="0" y="-2.5" height="5" width="910.504490426486" fill="#81BFFC" ><title >c9 → n1 {:element 2, :type "remove", :msg_id 1}</title></rect><use xlink:href="#ahead" x="914.504490426486" y="0" /><text text-anchor="middle" x="457.252245213243" y="-4" transform="" filter="url(#glow)" style="fill: #fff" >remove {:element 2}</text><text text-anchor="middle" x="457.252245213243" y="-4" transform="" >remove {:element 2}</text></g><g transform="translate(1114.2858 330.0) rotate(178.74685475253966) " ><rect x="0" y="-2.5" height="5" width="910.504490426486" fill="#FF1E90" ><title >n1 → c9 {:msg_id 3, :in_reply_to 1, :type "error", :code 20, :message "element not in set"}</title></rect><use xlink:href="#ahead" x="914.504490426486" y="0" /><text text-anchor="middle" x="457.252245213243" y="-4" transform="rotate(180 457.252245213243 0)" filter="url(#glow)" style="fill: #fff" >error </text><text text-anchor="middle" x="457.252245213243" y="-4" transform="rotate(180 457.252245213243 0)" >error </text></g><g transform="translate(257.14285 370.0) rotate(1.4320962387720322) " ><rect x="0" y="-2.5" height="5" width="796.2499304416564" fill="#81BFFC" ><title >c10 → n0 {:type "read", :msg_id 1}</title></rect><use xlink:href="#ahead" x="800.2499304416564" y="0" /><text text-anchor="middle" x="400.1249652208282" y="-4" transform="" filter="url(#glow)" style="fill: #fff" >read {}</text><text text-anchor="middle" x="400.1249652208282" y="-4" transform="" >read {}</text></g><g transform="translate(1057.1428 410.0) rotate(178.56790376122797) " ><rect x="0" y="-2.5" height="5" width="796.2499304416564" fill="#81BFFC" ><title >n0 → c10 {:msg_id 4, :in_reply_to 1, :type "read_ok", :values {}}</title></rect><use xlink:href="#ahead" x="800.2499304416564" y="0" /><text text-anchor="middle" x="400.1249652208282" y="-4" transform="rotate(180 400.1249652208282 0)" filter="url(#glow)" style="fill: #fff" >read_ok {:values {}}</text><text text-anchor="middle" x="400.1249652208282" y="-4" transform="rotate(180 400.1249652208282 0)" >read_ok {:values {}}</text></g><g transform="translate(314.2857 450.0) rotate(1.4320960749498874) " ><rect x="0" y="-2.5" height="5" width="796.250021965794" fill="#81BFFC" ><title >c11 → n1 {:element 3, :type "remove", :msg_id 1}</title></rect><use xlink:href="#ahead" x="800.250021965794" y="0" /><text text-anchor="middle" x="400.125010982897" y="-4" transform="" filter="url(#glow)" style="fill: #fff" >remove {:element 3}</text><text text-anchor="middle" x="400.125010982897" y="-4" transform="" >remove {:element 3}</text></g><g transform="translate(1114.2858 490.0) rotate(178.5679039250501) " ><rect x="0" y="-2.5" height="5" width="796.250021965794" fill="#FF1E90" ><title >n1 → c11 {:msg_id 4, :in_reply_to 1, :type "error", :code 20, :message "element not in set"}</title></rect><use xlink:href="#ahead" x="800.250021965794" y="0" /><text text-anchor="middle" x="400.125010982897" y="-4" transform="rotate(180 400.125010982897 0)" filter="url(#glow)" style="fill: #fff" >error </text><text text-anchor="middle" x="400.125010982897" y="-4" transform="rotate(180 400.125010982897 0)" >error </text></g><g transform="translate(371.42856 530.0) rotate(1.5422059917313657) " ><rect x="0" y="-2.5" height="5" width="739.1263902270499" fill="#81BFFC" ><title >c12 → n1 {:element 4, :type "remove", :msg_id 1}</title></rect><use xlink:href="#ahead" x="743.1263902270499" y="0" /><text text-anchor="middle" x="371.56319511352496" y="-4" transform="" filter="url(#glow)" style="fill: #fff" >remove {:element 4}</text><text text-anchor="middle" x="371.56319511352496" y="-4" transform="" >remove {:element 4}</text></g><g transform="translate(1114.2858 570.0) rotate(178.45779400826865) " ><rect x="0" y="-2.5" height="5" width="739.1263902270499" fill="#FF1E90" ><title >n1 → c12 {:msg_id 5, :in_reply_to 1, :type "error", :code 20, :message "element not in set"}</title></rect><use xlink:href="#ahead" x="743.1263902270499" y="0" /><text text-anchor="middle" x="371.56319511352496" y="-4" transform="rotate(180 371.56319511352496 0)" filter="url(#glow)" style="fill: #fff" >error </text><text text-anchor="middle" x="371.56319511352496" y="-4" transform="rotate(180 371.56319511352496 0)" >error </text></g><g transform="translate(428.57144 610.0) rotate(1.5422061183819962) " ><rect x="0" y="-2.5" height="5" width="739.1263292140023" fill="#81BFFC" ><title >c13 → n2 {:element 0, :type "add", :msg_id 1}</title></rect><use xlink:href="#ahead" x="743.1263292140023" y="0" /><text text-anchor="middle" x="371.56316460700117" y="-4" transform="" filter="url(#glow)" style="fill: #fff" >add {:element 0}</text><text text-anchor="middle" x="371.56316460700117" y="-4" transform="" >add {:element 0}</text></g><g transform="translate(1171.4286 650.0) rotate(170.07375894684506) " ><rect x="0" y="-2.5" height="5" width="112.0225686998302" fill="#000" ><title >n2 → n0 {:msg_id 2, :type "fwd_add", :element 0, :id ["n2" 1], :r [], :vv {"n0" 0, "n1" 0, "n2" 1}}</title></rect><use xlink:href="#ahead" x="116.0225686998302" y="0" /><text text-anchor="middle" x="58.0112843499151" y="-4" transform="rotate(180 58.0112843499151 0)" filter="url(#glow)" style="fill: #fff" >fwd_add {:element 0, :id ["n2" 1], :r [], :vv {…</text><text text-anchor="middle" x="58.0112843499151" y="-4" transform="rotate(180 58.0112843499151 0)" >fwd_add {:element 0, :id ["n2" 1], :r [], :vv {…</text></g><g transform="translate(1171.4286 690.0) rotate(160.7099428768419) " ><rect x="0" y="-2.5" height="5" width="56.54173879631149" fill="#000" ><title >n2 → n1 {:msg_id 3, :type "fwd_add", :element 0, :id ["n2" 1], :r [], :vv {"n0" 0, "n1" 0, "n2" 1}}</title></rect><use xlink:href="#ahead" x="60.54173879631149" y="0" /><text text-anchor="middle" x="30.270869398155746" y="-4" transform="rotate(180 30.270869398155746 0)" filter="url(#glow)" style="fill: #fff" >fwd_add {:element 0, :id ["n2" 1], :r [], :vv {…</text><text text-anchor="middle" x="30.270869398155746" y="-4" transform="rotate(180 30.270869398155746 0)" >fwd_add {:element 0, :id ["n2" 1], :r [], :vv {…</text></g><g transform="translate(485.7143 730.0) rotate(2.004534184914963) " ><rect x="0" y="-2.5" height="5" width="567.7784207368118" fill="#81BFFC" ><title >c14 → n0 {:type "read", :msg_id 1}</title></rect><use xlink:href="#ahead" x="571.7784207368118" y="0" /><text text-anchor="middle" x="285.8892103684059" y="-4" transform="" filter="url(#glow)" style="fill: #fff" >read {}</text><text text-anchor="middle" x="285.8892103684059" y="-4" transform="" >read {}</text></g><g transform="translate(1057.1428 770.0) rotate(177.99546581508505) " ><rect x="0" y="-2.5" height="5" width="567.7784207368118" fill="#81BFFC" ><title >n0 → c14 {:msg_id 5, :in_reply_to 1, :type "read_ok", :values {"0" [["n2" 1]]}}</title></rect><use xlink:href="#ahead" x="571.7784207368118" y="0" /><text text-anchor="middle" x="285.8892103684059" y="-4" transform="rotate(180 285.8892103684059 0)" filter="url(#glow)" style="fill: #fff" >read_ok {:values {"0" [["n2" 1]]}}</text><text text-anchor="middle" x="285.8892103684059" y="-4" transform="rotate(180 285.8892103684059 0)" >read_ok {:values {"0" [["n2" 1]]}}</text></g><g transform="translate(542.8571 810.0) rotate(2.0045337570496584) " ><rect x="0" y="-2.5" height="5" width="567.7785427324249" fill="#81BFFC" ><title >c15 → n1 {:element 1, :type "add", :msg_id 1}</title></rect><use xlink:href="#ahead" x="571.7785427324249" y="0" /><text text-anchor="middle" x="285.8892713662124" y="-4" transform="" filter="url(#glow)" style="fill: #fff" >add {:element 1}</text><text text-anchor="middle" x="285.8892713662124" y="-4" transform="" >add {:element 1}</text></g><g transform="translate(1114.2858 850.0) rotate(160.7099810406829) " ><rect x="0" y="-2.5" height="5" width="56.54185401340177" fill="#000" ><title >n1 → n0 {:msg_id 6, :type "fwd_add", :element 1, :id ["n1" 1], :r [], :vv {"n0" 0, "n1" 5, "n2" 1}}</title></rect><use xlink:href="#ahead" x="60.54185401340177" y="0" /><text text-anchor="middle" x="30.270927006700884" y="-4" transform="rotate(180 30.270927006700884 0)" filter="url(#glow)" style="fill: #fff" >fwd_add {:element 1, :id ["n1" 1], :r [], :vv {…</text><text text-anchor="middle" x="30.270927006700884" y="-4" transform="rotate(180 30.270927006700884 0)" >fwd_add {:element 1, :id ["n1" 1], :r [], :vv {…</text></g><g transform="translate(1114.2858 890.0) rotate(19.29005712315813) " ><rect x="0" y="-2.5" height="5" width="56.54173879631149" fill="#000" ><title >n1 → n2 {:msg_id 7, :type "fwd_add", :element 1, :id ["n1" 1], :r [], :vv {"n0" 0, "n1" 5, "n2" 1}}</title></rect><use xlink:href="#ahead" x="60.54173879631149" y="0" /><text text-anchor="middle" x="30.270869398155746" y="-4" transform="" filter="url(#glow)" style="fill: #fff" >fwd_add {:element 1, :id ["n1" 1], :r [], :vv {…</text><text text-anchor="middle" x="30.270869398155746" y="-4" transform="" >fwd_add {:element 1, :id ["n1" 1], :r [], :vv {…</text></g><g transform="translate(600.0 930.0) rotate(2.5050930581213544) " ><rect x="0" y="-2.5" height="5" width="453.5801131484855" fill="#81BFFC" ><title >c16 → n0 {:element 4, :type "remove", :msg_id 1}</title></rect><use xlink:href="#ahead" x="457.5801131484855" y="0" /><text text-anchor="middle" x="228.79005657424275" y="-4" transform="" filter="url(#glow)" style="fill: #fff" >remove {:element 4}</text><text text-anchor="middle" x="228.79005657424275" y="-4" transform="" >remove {:element 4}</text></g><g transform="translate(1057.1428 970.0) rotate(177.49490694187867) " ><rect x="0" y="-2.5" height="5" width="453.5801131484855" fill="#FF1E90" ><title >n0 → c16 {:msg_id 6, :in_reply_to 1, :type "error", :code 20, :message "element not in set"}</title></rect><use xlink:href="#ahead" x="457.5801131484855" y="0" /><text text-anchor="middle" x="228.79005657424275" y="-4" transform="rotate(180 228.79005657424275 0)" filter="url(#glow)" style="fill: #fff" >error </text><text text-anchor="middle" x="228.79005657424275" y="-4" transform="rotate(180 228.79005657424275 0)" >error </text></g><g transform="translate(657.1429 1010.0) rotate(2.862405662153816) " ><rect x="0" y="-2.5" height="5" width="396.49962693101065" fill="#81BFFC" ><title >c17 → n0 {:type "read", :msg_id 1}</title></rect><use xlink:href="#ahead" x="400.49962693101065" y="0" /><text text-anchor="middle" x="200.24981346550533" y="-4" transform="" filter="url(#glow)" style="fill: #fff" >read {}</text><text text-anchor="middle" x="200.24981346550533" y="-4" transform="" >read {}</text></g><g transform="translate(1057.1428 1050.0) rotate(177.1375943378462) " ><rect x="0" y="-2.5" height="5" width="396.49962693101065" fill="#81BFFC" ><title >n0 → c17 {:msg_id 7, :in_reply_to 1, :type "read_ok", :values {"0" [["n2" 1]]}}</title></rect><use xlink:href="#ahead" x="400.49962693101065" y="0" /><text text-anchor="middle" x="200.24981346550533" y="-4" transform="rotate(180 200.24981346550533 0)" filter="url(#glow)" style="fill: #fff" >read_ok {:values {"0" [["n2" 1]]}}</text><text text-anchor="middle" x="200.24981346550533" y="-4" transform="rotate(180 200.24981346550533 0)" >read_ok {:values {"0" [["n2" 1]]}}</text></g><g transform="translate(714.2857 1090.0) rotate(3.3384707978933563) " ><rect x="0" y="-2.5" height="5" width="339.43995468102094" fill="#81BFFC" ><title >c18 → n0 {:type "read", :msg_id 1}</title></rect><use xlink:href="#ahead" x="343.43995468102094" y="0" /><text text-anchor="middle" x="171.71997734051047" y="-4" transform="" filter="url(#glow)" style="fill: #fff" >read {}</text><text text-anchor="middle" x="171.71997734051047" y="-4" transform="" >read {}</text></g><g transform="translate(1057.1428 1130.0) rotate(176.66152920210666) " ><rect x="0" y="-2.5" height="5" width="339.43995468102094" fill="#81BFFC" ><title >n0 → c18 {:msg_id 8, :in_reply_to 1, :type "read_ok", :values {"0" [["n2" 1]]}}</title></rect><use xlink:href="#ahead" x="343.43995468102094" y="0" /><text text-anchor="middle" x="171.71997734051047" y="-4" transform="rotate(180 171.71997734051047 0)" filter="url(#glow)" style="fill: #fff" >read_ok {:values {"0" [["n2" 1]]}}</text><text text-anchor="middle" x="171.71997734051047" y="-4" transform="rotate(180 171.71997734051047 0)" >read_ok {:values {"0" [["n2" 1]]}}</text></g><g transform="translate(771.4286 1170.0) rotate(4.004173671510535) " ><rect x="0" y="-2.5" height="5" width="282.4133781206053" fill="#81BFFC" ><title >c19 → n0 {:element 5, :type "remove", :msg_id 1}</title></rect><use xlink:href="#ahead" x="286.4133781206053" y="0" /><text text-anchor="middle" x="143.20668906030264" y="-4" transform="" filter="url(#glow)" style="fill: #fff" >remove {:element 5}</text><text text-anchor="middle" x="143.20668906030264" y="-4" transform="" >remove {:element 5}</text></g><g transform="translate(1057.1428 1210.0) rotate(175.99582632848947) " ><rect x="0" y="-2.5" height="5" width="282.4133781206053" fill="#FF1E90" ><title >n0 → c19 {:msg_id 9, :in_reply_to 1, :type "error", :code 20, :message "element not in set"}</title></rect><use xlink:href="#ahead" x="286.4133781206053" y="0" /><text text-anchor="middle" x="143.20668906030264" y="-4" transform="rotate(180 143.20668906030264 0)" filter="url(#glow)" style="fill: #fff" >error </text><text text-anchor="middle" x="143.20668906030264" y="-4" transform="rotate(180 143.20668906030264 0)" >error </text></g><g transform="translate(828.5714 1250.0) rotate(5.000644977142862) " ><rect x="0" y="-2.5" height="5" width="225.44474277534712" fill="#81BFFC" ><title >c20 → n0 {:element 2, :type "add", :msg_id 1}</title></rect><use xlink:href="#ahead" x="229.44474277534712" y="0" /><text text-anchor="middle" x="114.72237138767356" y="-4" transform="" filter="url(#glow)" style="fill: #fff" >add {:element 2}</text><text text-anchor="middle" x="114.72237138767356" y="-4" transform="" >add {:element 2}</text></g><g transform="translate(1057.1428 1290.0) rotate(19.29001895931712) " ><rect x="0" y="-2.5" height="5" width="56.54185401340177" fill="#000" ><title >n0 → n1 {:msg_id 10, :type "fwd_add", :element 2, :id ["n0" 1], :r [], :vv {"n0" 5, "n1" 0, "n2" 1}}</title></rect><use xlink:href="#ahead" x="60.54185401340177" y="0" /><text text-anchor="middle" x="30.270927006700884" y="-4" transform="" filter="url(#glow)" style="fill: #fff" >fwd_add {:element 2, :id ["n0" 1], :r [], :vv {…</text><text text-anchor="middle" x="30.270927006700884" y="-4" transform="" >fwd_add {:element 2, :id ["n0" 1], :r [], :vv {…</text></g><g transform="translate(1057.1428 1330.0) rotate(9.92624105315496) " ><rect x="0" y="-2.5" height="5" width="112.0225686998302" fill="#000" ><title >n0 → n2 {:msg_id 11, :type "fwd_add", :element 2, :id ["n0" 1], :r [], :vv {"n0" 5, "n1" 0, "n2" 1}}</title></rect><use xlink:href="#ahead" x="116.0225686998302" y="0" /><text text-anchor="middle" x="58.0112843499151" y="-4" transform="" filter="url(#glow)" style="fill: #fff" >fwd_add {:element 2, :id ["n0" 1], :r [], :vv {…</text><text text-anchor="middle" x="58.0112843499151" y="-4" transform="" >fwd_add {:element 2, :id ["n0" 1], :r [], :vv {…</text></g><g transform="translate(1000.0 1410.0) rotate(6.654424375154429) " ><rect x="0" y="-2.5" height="5" width="168.5913122987226" fill="#81BFFC" ><title >c23 → n2 {:type "read", :msg_id 1}</title></rect><use xlink:href="#ahead" x="172.5913122987226" y="0" /><text text-anchor="middle" x="86.2956561493613" y="-4" transform="" filter="url(#glow)" style="fill: #fff" >read {}</text><text text-anchor="middle" x="86.2956561493613" y="-4" transform="" >read {}</text></g><g transform="translate(942.8571 1390.0) rotate(19.29003804121947) " ><rect x="0" y="-2.5" height="5" width="177.62538921455982" fill="#81BFFC" ><title >c22 → n1 {:type "read", :msg_id 1}</title></rect><use xlink:href="#ahead" x="181.62538921455982" y="0" /><text text-anchor="middle" x="90.81269460727991" y="-4" transform="" filter="url(#glow)" style="fill: #fff" >read {}</text><text text-anchor="middle" x="90.81269460727991" y="-4" transform="" >read {}</text></g><g transform="translate(885.7143 1370.0) rotate(30.256443505343416) " ><rect x="0" y="-2.5" height="5" width="194.4634479057983" fill="#81BFFC" ><title >c21 → n0 {:type "read", :msg_id 1}</title></rect><use xlink:href="#ahead" x="198.4634479057983" y="0" /><text text-anchor="middle" x="99.23172395289915" y="-4" transform="" filter="url(#glow)" style="fill: #fff" >read {}</text><text text-anchor="middle" x="99.23172395289915" y="-4" transform="" >read {}</text></g><g transform="translate(1171.4286 1490.0) rotate(160.70995559813835) " ><rect x="0" y="-2.5" height="5" width="177.6253316060158" fill="#81BFFC" ><title >n2 → c23 {:msg_id 4, :in_reply_to 1, :type "read_ok", :values {"0" ["n2" 1]}}</title></rect><use xlink:href="#ahead" x="181.6253316060158" y="0" /><text text-anchor="middle" x="90.8126658030079" y="-4" transform="rotate(180 90.8126658030079 0)" filter="url(#glow)" style="fill: #fff" >read_ok {:values {"0" ["n2" 1]}}</text><text text-anchor="middle" x="90.8126658030079" y="-4" transform="rotate(180 90.8126658030079 0)" >read_ok {:values {"0" ["n2" 1]}}</text></g><g transform="translate(1114.2858 1510.0) rotate(160.70996195878053) " ><rect x="0" y="-2.5" height="5" width="177.62538921455982" fill="#81BFFC" ><title >n1 → c22 {:msg_id 8, :in_reply_to 1, :type "read_ok", :values {"0" [["n2" 1]], "1" ["n1" 1]}}</title></rect><use xlink:href="#ahead" x="181.62538921455982" y="0" /><text text-anchor="middle" x="90.81269460727991" y="-4" transform="rotate(180 90.81269460727991 0)" filter="url(#glow)" style="fill: #fff" >read_ok {:values {"0" [["n2" 1]], "1" ["n1" 1]}}</text><text text-anchor="middle" x="90.81269460727991" y="-4" transform="rotate(180 90.81269460727991 0)" >read_ok {:values {"0" [["n2" 1]], "1" ["n1" 1]}}</text></g><g transform="translate(1057.1428 1530.0) rotate(160.70994923749214) " ><rect x="0" y="-2.5" height="5" width="177.625273997474" fill="#81BFFC" ><title >n0 → c21 {:msg_id 12, :in_reply_to 1, :type "read_ok", :values {"0" [["n2" 1]], "2" ["n0" 1]}}</title></rect><use xlink:href="#ahead" x="181.625273997474" y="0" /><text text-anchor="middle" x="90.812636998737" y="-4" transform="rotate(180 90.812636998737 0)" filter="url(#glow)" style="fill: #fff" >read_ok {:values {"0" [["n2" 1]], "2" ["n0" 1]}}</text><text text-anchor="middle" x="90.812636998737" y="-4" transform="rotate(180 90.812636998737 0)" >read_ok {:values {"0" [["n2" 1]], "2" ["n0" 1]}}</text></g></g></svg>