<?xml version="1.0" encoding="UTF-8"?><svg xmlns:svg="http://www.w3.org/2000/svg" xmlns="http://www.w3.org/2000/svg" xmlns:xlink="http://www.w3.org/1999/xlink" version="2.0" width="1200" height="860" ><style >
svg {
  font-family: Helvetica, Arial, sans-serif;
  font-size: 11px;
}
rect {
  stroke-linecap: butt;
  stroke-width: 3;
  stroke: #fff;
/*  stroke-opacity: 1; */
}
rect:hover {
  stroke: #fff;
/*  stroke-opacity: 1; /*
}
polygon { fill: #000; }</style><defs ><polygon id="ahead" points="0 0, -12 4, -12 -4" /><filter id="glow" x="0" y="0" ><feGaussianBlur in="SourceAlpha" stdDeviation="2" result="blurred" /><feFlood flood-color="#fff" /><feComposite operator="in" in2="blurred" /><feComponentTransfer ><feFuncA type="linear" slope="10" intercept="0" /></feComponentTransfer><feMerge ><feMergeNode /><feMergeNode in="SourceGraphic" /></feMerge></filter></defs><g ><text x="100.0" y="20.0" text-anchor="middle" alignment-baseline="middle" fill="#000" >c4</text><text x="300.0" y="20.0" text-anchor="middle" alignment-baseline="middle" fill="#000" >c5</text><text x="500.0" y="20.0" text-anchor="middle" alignment-baseline="middle" fill="#000" >c6</text><text x="700.0" y="20.0" text-anchor="middle" alignment-baseline="middle" fill="#000" >c7</text><text x="900.0" y="20.0" text-anchor="middle" alignment-baseline="middle" fill="#000" >n0</text><text x="1100.0" y="20.0" text-anchor="middle" alignment-baseline="middle" fill="#000" >n1</text></g><g ><line stroke="#ccc" x1="100.0" y1="30.0" x2="100.0" y2="770.0" /><line stroke="#ccc" x1="300.0" y1="30.0" x2="300.0" y2="770.0" /><line stroke="#ccc" x1="500.0" y1="30.0" x2="500.0" y2="770.0" /><line stroke="#ccc" x1="700.0" y1="30.0" x2="700.0" y2="770.0" /><line stroke="#ccc" x1="900.0" y1="30.0" x2="900.0" y2="770.0" /><line stroke="#ccc" x1="1100.0" y1="30.0" x2="1100.0" y2="770.0" /></g><g ><g transform="translate(100.0 50.0) rotate(1.1457628381751035) " ><rect x="0" y="-2.5" height="5" width="996.199980003999" fill="#81BFFC" ><title >c4 → n1 {:type "lock", :msg_id 1}</title></rect><use xlink:href="#ahead" x="1000.199980003999" y="0" /><text text-anchor="middle" x="500.0999900019995" y="-4" transform="" filter="url(#glow)" style="fill: #fff" >lock {}</text><text text-anchor="middle" x="500.0999900019995" y="-4" transform="" >lock {}</text></g><g transform="translate(1100.0 90.0) rotate(174.28940686250036) " ><rect x="0" y="-2.5" height="5" width="196.9975124224178" fill="#000" ><title >n1 → n0 {:msg_id 2, :type "request_lock", :timestamp 1, :client "c4"}</title></rect><use xlink:href="#ahead" x="200.9975124224178" y="0" /><text text-anchor="middle" x="100.4987562112089" y="-4" transform="rotate(180 100.4987562112089 0)" filter="url(#glow)" style="fill: #fff" >request_lock {:timestamp 1, :client "c4"}</text><text text-anchor="middle" x="100.4987562112089" y="-4" transform="rotate(180 100.4987562112089 0)" >request_lock {:timestamp 1, :client "c4"}</text></g><g transform="translate(900.0 130.0) rotate(5.710593137499643) " ><rect x="0" y="-2.5" height="5" width="196.9975124224178" fill="#000" ><title >n0 → n1 {:msg_id 2, :in_reply_to 2, :type "ack", :timestamp 1}</title></rect><use xlink:href="#ahead" x="200.9975124224178" y="0" /><text text-anchor="middle" x="100.4987562112089" y="-4" transform="" filter="url(#glow)" style="fill: #fff" >ack {:timestamp 1}</text><text text-anchor="middle" x="100.4987562112089" y="-4" transform="" >ack {:timestamp 1}</text></g><g transform="translate(1100.0 170.0) rotate(178.8542371618249) " ><rect x="0" y="-2.5" height="5" width="996.199980003999" fill="#81BFFC" ><title >n1 → c4 {:msg_id 3, :in_reply_to 1, :type "lock_ok"}</title></rect><use xlink:href="#ahead" x="1000.199980003999" y="0" /><text text-anchor="middle" x="500.0999900019995" y="-4" transform="rotate(180 500.0999900019995 0)" filter="url(#glow)" style="fill: #fff" >lock_ok {}</text><text text-anchor="middle" x="500.0999900019995" y="-4" transform="rotate(180 500.0999900019995 0)" >lock_ok {}</text></g><g transform="translate(300.0 210.0) rotate(1.9091524329963763) " ><rect x="0" y="-2.5" height="5" width="596.3332407921454" fill="#81BFFC" ><title >c5 → n0 {:type "lock", :msg_id 1}</title></rect><use xlink:href="#ahead" x="600.3332407921454" y="0" /><text text-anchor="middle" x="300.1666203960727" y="-4" transform="" filter="url(#glow)" style="fill: #fff" >lock {}</text><text text-anchor="middle" x="300.1666203960727" y="-4" transform="" >lock {}</text></g><g transform="translate(900.0 250.0) rotate(5.710593137499643) " ><rect x="0" y="-2.5" height="5" width="196.9975124224178" fill="#000" ><title >n0 → n1 {:msg_id 3, :type "request_lock", :timestamp 2, :client "c5"}</title></rect><use xlink:href="#ahead" x="200.9975124224178" y="0" /><text text-anchor="middle" x="100.4987562112089" y="-4" transform="" filter="url(#glow)" style="fill: #fff" >request_lock {:timestamp 2, :client "c5"}</text><text text-anchor="middle" x="100.4987562112089" y="-4" transform="" >request_lock {:timestamp 2, :client "c5"}</text></g><g transform="translate(1100.0 290.0) rotate(174.28940686250036) " ><rect x="0" y="-2.5" height="5" width="196.9975124224178" fill="#000" ><title >n1 → n0 {:msg_id 4, :in_reply_to 3, :type "ack", :timestamp 3}</title></rect><use xlink:href="#ahead" x="200.9975124224178" y="0" /><text text-anchor="middle" x="100.4987562112089" y="-4" transform="rotate(180 100.4987562112089 0)" filter="url(#glow)" style="fill: #fff" >ack {:timestamp 3}</text><text text-anchor="middle" x="100.4987562112089" y="-4" transform="rotate(180 100.4987562112089 0)" >ack {:timestamp 3}</text></g><g transform="translate(100.0 330.0) rotate(1.1457628381751035) " ><rect x="0" y="-2.5" height="5" width="996.199980003999" fill="#81BFFC" ><title >c4 → n1 {:type "unlock", :msg_id 2}</title></rect><use xlink:href="#ahead" x="1000.199980003999" y="0" /><text text-anchor="middle" x="500.0999900019995" y="-4" transform="" filter="url(#glow)" style="fill: #fff" >unlock {}</text><text text-anchor="middle" x="500.0999900019995" y="-4" transform="" >unlock {}</text></g><g transform="translate(1100.0 370.0) rotate(178.8542371618249) " ><rect x="0" y="-2.5" height="5" width="996.199980003999" fill="#81BFFC" ><title >n1 → c4 {:msg_id 5, :in_reply_to 2, :type "unlock_ok"}</title></rect><use xlink:href="#ahead" x="1000.199980003999" y="0" /><text text-anchor="middle" x="500.0999900019995" y="-4" transform="rotate(180 500.0999900019995 0)" filter="url(#glow)" style="fill: #fff" >unlock_ok {}</text><text text-anchor="middle" x="500.0999900019995" y="-4" transform="rotate(180 500.0999900019995 0)" >unlock_ok {}</text></g><g transform="translate(500.0 410.0) rotate(2.862405226111748) " ><rect x="0" y="-2.5" height="5" width="396.4996878900157" fill="#81BFFC" ><title >c6 → n0 {:type "lock", :msg_id 1}</title></rect><use xlink:href="#ahead" x="400.4996878900157" y="0" /><text text-anchor="middle" x="200.24984394500785" y="-4" transform="" filter="url(#glow)" style="fill: #fff" >lock {}</text><text text-anchor="middle" x="200.24984394500785" y="-4" transform="" >lock {}</text></g><g transform="translate(900.0 450.0) rotate(5.710593137499643) " ><rect x="0" y="-2.5" height="5" width="196.9975124224178" fill="#000" ><title >n0 → n1 {:msg_id 4, :type "request_lock", :timestamp 4, :client "c6"}</title></rect><use xlink:href="#ahead" x="200.9975124224178" y="0" /><text text-anchor="middle" x="100.4987562112089" y="-4" transform="" filter="url(#glow)" style="fill: #fff" >request_lock {:timestamp 4, :client "c6"}</text><text text-anchor="middle" x="100.4987562112089" y="-4" transform="" >request_lock {:timestamp 4, :client "c6"}</text></g><g transform="translate(1100.0 490.0) rotate(174.28940686250036) " ><rect x="0" y="-2.5" height="5" width="196.9975124224178" fill="#000" ><title >n1 → n0 {:msg_id 6, :in_reply_to 4, :type "ack", :timestamp 5}</title></rect><use xlink:href="#ahead" x="200.9975124224178" y="0" /><text text-anchor="middle" x="100.4987562112089" y="-4" transform="rotate(180 100.4987562112089 0)" filter="url(#glow)" style="fill: #fff" >ack {:timestamp 5}</text><text text-anchor="middle" x="100.4987562112089" y="-4" transform="rotate(180 100.4987562112089 0)" >ack {:timestamp 5}</text></g><g transform="translate(100.0 530.0) rotate(1.1457628381751035) " ><rect x="0" y="-2.5" height="5" width="996.199980003999" fill="#81BFFC" ><title >c4 → n1 {:type "lock", :msg_id 3}</title></rect><use xlink:href="#ahead" x="1000.199980003999" y="0" /><text text-anchor="middle" x="500.0999900019995" y="-4" transform="" filter="url(#glow)" style="fill: #fff" >lock {}</text><text text-anchor="middle" x="500.0999900019995" y="-4" transform="" >lock {}</text></g><g transform="translate(1100.0 570.0) rotate(174.28940686250036) " ><rect x="0" y="-2.5" height="5" width="196.9975124224178" fill="#000" ><title >n1 → n0 {:msg_id 7, :type "request_lock", :timestamp 6, :client "c4"}</title></rect><use xlink:href="#ahead" x="200.9975124224178" y="0" /><text text-anchor="middle" x="100.4987562112089" y="-4" transform="rotate(180 100.4987562112089 0)" filter="url(#glow)" style="fill: #fff" >request_lock {:timestamp 6, :client "c4"}</text><text text-anchor="middle" x="100.4987562112089" y="-4" transform="rotate(180 100.4987562112089 0)" >request_lock {:timestamp 6, :client "c4"}</text></g><g transform="translate(900.0 610.0) rotate(5.710593137499643) " ><rect x="0" y="-2.5" height="5" width="196.9975124224178" fill="#000" ><title >n0 → n1 {:msg_id 5, :in_reply_to 7, :type "ack", :timestamp 6}</title></rect><use xlink:href="#ahead" x="200.9975124224178" y="0" /><text text-anchor="middle" x="100.4987562112089" y="-4" transform="" filter="url(#glow)" style="fill: #fff" >ack {:timestamp 6}</text><text text-anchor="middle" x="100.4987562112089" y="-4" transform="" >ack {:timestamp 6}</text></g><g transform="translate(700.0 650.0) rotate(2.862405226111748) " ><rect x="0" y="-2.5" height="5" width="396.4996878900157" fill="#81BFFC" ><title >c7 → n1 {:type "lock", :msg_id 1}</title></rect><use xlink:href="#ahead" x="400.4996878900157" y="0" /><text text-anchor="middle" x="200.24984394500785" y="-4" transform="" filter="url(#glow)" style="fill: #fff" >lock {}</text><text text-anchor="middle" x="200.24984394500785" y="-4" transform="" >lock {}</text></g><g transform="translate(1100.0 690.0) rotate(174.28940686250036) " ><rect x="0" y="-2.5" height="5" width="196.9975124224178" fill="#000" ><title >n1 → n0 {:msg_id 8, :type "request_lock", :timestamp 8, :client "c7"}</title></rect><use xlink:href="#ahead" x="200.9975124224178" y="0" /><text text-anchor="middle" x="100.4987562112089" y="-4" transform="rotate(180 100.4987562112089 0)" filter="url(#glow)" style="fill: #fff" >request_lock {:timestamp 8, :client "c7"}</text><text text-anchor="middle" x="100.4987562112089" y="-4" transform="rotate(180 100.4987562112089 0)" >request_lock {:timestamp 8, :client "c7"}</text></g><g transform="translate(900.0 730.0) rotate(5.710593137499643) " ><rect x="0" y="-2.5" height="5" width="196.9975124224178" fill="#000" ><title >n0 → n1 {:msg_id 6, :in_reply_to 8, :type "ack", :timestamp 7}</title></rect><use xlink:href="#ahead" x="200.9975124224178" y="0" /><text text-anchor="middle" x="100.4987562112089" y="-4" transform="" filter="url(#glow)" style="fill: #fff" >ack {:timestamp 7}</text><text text-anchor="middle" x="100.4987562112089" y="-4" transform="" >ack {:timestamp 7}</text></g></g></svg>