<?xml version="1.0" encoding="UTF-8"?><svg xmlns:svg="http://www.w3.org/2000/svg" xmlns="http://www.w3.org/2000/svg" xmlns:xlink="http://www.w3.org/1999/xlink" version="2.0" width="1200" height="2380" ><style >
svg {
  font-family: Helvetica, Arial, sans-serif;
  font-size: 11px;
}
rect {
  stroke-linecap: butt;
  stroke-width: 3;
  stroke: #fff;
/*  stroke-opacity: 1; */
}
rect:hover {
  stroke: #fff;
/*  stroke-opacity: 1; /*
}
polygon { fill: #000; }</style><defs ><polygon id="ahead" points="0 0, -12 4, -12 -4" /><filter id="glow" x="0" y="0" ><feGaussianBlur in="SourceAlpha" stdDeviation="2" result="blurred" /><feFlood flood-color="#fff" /><feComposite operator="in" in2="blurred" /><feComponentTransfer ><feFuncA type="linear" slope="10" intercept="0" /></feComponentTransfer><feMerge ><feMergeNode /><feMergeNode in="SourceGraphic" /></feMerge></filter></defs><g ><text x="20.689655" y="20.0" text-anchor="middle" alignment-baseline="middle" fill="#000" >c6</text><text x="20.689655" y="1020.0" text-anchor="middle" alignment-baseline="middle" fill="#aaa" >c6</text><text x="20.689655" y="2020.0" text-anchor="middle" alignment-baseline="middle" fill="#aaa" >c6</text><text x="62.068966" y="20.0" text-anchor="middle" alignment-baseline="middle" fill="#000" >c7</text><text x="62.068966" y="1020.0" text-anchor="middle" alignment-baseline="middle" fill="#aaa" >c7</text><text x="62.068966" y="2020.0" text-anchor="middle" alignment-baseline="middle" fill="#aaa" >c7</text><text x="103.44827" y="20.0" text-anchor="middle" alignment-baseline="middle" fill="#000" >c8</text><text x="103.44827" y="1020.0" text-anchor="middle" alignment-baseline="middle" fill="#aaa" >c8</text><text x="103.44827" y="2020.0" text-anchor="middle" alignment-baseline="middle" fill="#aaa" >c8</text><text x="144.82759" y="20.0" text-anchor="middle" alignment-baseline="middle" fill="#000" >c9</text><text x="144.82759" y="1020.0" text-anchor="middle" alignment-baseline="middle" fill="#aaa" >c9</text><text x="144.82759" y="2020.0" text-anchor="middle" alignment-baseline="middle" fill="#aaa" >c9</text><text x="186.2069" y="20.0" text-anchor="middle" alignment-baseline="middle" fill="#000" >c10</text><text x="186.2069" y="1020.0" text-anchor="middle" alignment-baseline="middle" fill="#aaa" >c10</text><text x="186.2069" y="2020.0" text-anchor="middle" alignment-baseline="middle" fill="#aaa" >c10</text><text x="227.58621" y="20.0" text-anchor="middle" alignment-baseline="middle" fill="#000" >c11</text><text x="227.58621" y="1020.0" text-anchor="middle" alignment-baseline="middle" fill="#aaa" >c11</text><text x="227.58621" y="2020.0" text-anchor="middle" alignment-baseline="middle" fill="#aaa" >c11</text><text x="268.9655" y="20.0" text-anchor="middle" alignment-baseline="middle" fill="#000" >c12</text><text x="268.9655" y="1020.0" text-anchor="middle" alignment-baseline="middle" fill="#aaa" >c12</text><text x="268.9655" y="2020.0" text-anchor="middle" alignment-baseline="middle" fill="#aaa" >c12</text><text x="310.34482" y="20.0" text-anchor="middle" alignment-baseline="middle" fill="#000" >c13</text><text x="310.34482" y="1020.0" text-anchor="middle" alignment-baseline="middle" fill="#aaa" >c13</text><text x="310.34482" y="2020.0" text-anchor="middle" alignment-baseline="middle" fill="#aaa" >c13</text><text x="351.72415" y="20.0" text-anchor="middle" alignment-baseline="middle" fill="#000" >c14</text><text x="351.72415" y="1020.0" text-anchor="middle" alignment-baseline="middle" fill="#aaa" >c14</text><text x="351.72415" y="2020.0" text-anchor="middle" alignment-baseline="middle" fill="#aaa" >c14</text><text x="393.10345" y="20.0" text-anchor="middle" alignment-baseline="middle" fill="#000" >c15</text><text x="393.10345" y="1020.0" text-anchor="middle" alignment-baseline="middle" fill="#aaa" >c15</text><text x="393.10345" y="2020.0" text-anchor="middle" alignment-baseline="middle" fill="#aaa" >c15</text><text x="434.48276" y="20.0" text-anchor="middle" alignment-baseline="middle" fill="#000" >c16</text><text x="434.48276" y="1020.0" text-anchor="middle" alignment-baseline="middle" fill="#aaa" >c16</text><text x="434.48276" y="2020.0" text-anchor="middle" alignment-baseline="middle" fill="#aaa" >c16</text><text x="475.86206" y="20.0" text-anchor="middle" alignment-baseline="middle" fill="#000" >c17</text><text x="475.86206" y="1020.0" text-anchor="middle" alignment-baseline="middle" fill="#aaa" >c17</text><text x="475.86206" y="2020.0" text-anchor="middle" alignment-baseline="middle" fill="#aaa" >c17</text><text x="517.2414" y="20.0" text-anchor="middle" alignment-baseline="middle" fill="#000" >c18</text><text x="517.2414" y="1020.0" text-anchor="middle" alignment-baseline="middle" fill="#aaa" >c18</text><text x="517.2414" y="2020.0" text-anchor="middle" alignment-baseline="middle" fill="#aaa" >c18</text><text x="558.62067" y="20.0" text-anchor="middle" alignment-baseline="middle" fill="#000" >c19</text><text x="558.62067" y="1020.0" text-anchor="middle" alignment-baseline="middle" fill="#aaa" >c19</text><text x="558.62067" y="2020.0" text-anchor="middle" alignment-baseline="middle" fill="#aaa" >c19</text><text x="600.0" y="20.0" text-anchor="middle" alignment-baseline="middle" fill="#000" >c20</text><text x="600.0" y="1020.0" text-anchor="middle" alignment-baseline="middle" fill="#aaa" >c20</text><text x="600.0" y="2020.0" text-anchor="middle" alignment-baseline="middle" fill="#aaa" >c20</text><text x="641.37933" y="20.0" text-anchor="middle" alignment-baseline="middle" fill="#000" >c21</text><text x="641.37933" y="1020.0" text-anchor="middle" alignment-baseline="middle" fill="#aaa" >c21</text><text x="641.37933" y="2020.0" text-anchor="middle" alignment-baseline="middle" fill="#aaa" >c21</text><text x="682.7586" y="20.0" text-anchor="middle" alignment-baseline="middle" fill="#000" >c22</text><text x="682.7586" y="1020.0" text-anchor="middle" alignment-baseline="middle" fill="#aaa" >c22</text><text x="682.7586" y="2020.0" text-anchor="middle" alignment-baseline="middle" fill="#aaa" >c22</text><text x="724.13794" y="20.0" text-anchor="middle" alignment-baseline="middle" fill="#000" >c23</text><text x="724.13794" y="1020.0" text-anchor="middle" alignment-baseline="middle" fill="#aaa" >c23</text><text x="724.13794" y="2020.0" text-anchor="middle" alignment-baseline="middle" fill="#aaa" >c23</text><text x="765.5172" y="20.0" text-anchor="middle" alignment-baseline="middle" fill="#000" >c24</text><text x="765.5172" y="1020.0" text-anchor="middle" alignment-baseline="middle" fill="#aaa" >c24</text><text x="765.5172" y="2020.0" text-anchor="middle" alignment-baseline="middle" fill="#aaa" >c24</text><text x="806.89655" y="20.0" text-anchor="middle" alignment-baseline="middle" fill="#000" >c25</text><text x="806.89655" y="1020.0" text-anchor="middle" alignment-baseline="middle" fill="#aaa" >c25</text><text x="806.89655" y="2020.0" text-anchor="middle" alignment-baseline="middle" fill="#aaa" >c25</text><text x="848.2759" y="20.0" text-anchor="middle" alignment-baseline="middle" fill="#000" >c26</text><text x="848.2759" y="1020.0" text-anchor="middle" alignment-baseline="middle" fill="#aaa" >c26</text><text x="848.2759" y="2020.0" text-anchor="middle" alignment-baseline="middle" fill="#aaa" >c26</text><text x="889.65515" y="20.0" text-anchor="middle" alignment-baseline="middle" fill="#000" >c27</text><text x="889.65515" y="1020.0" text-anchor="middle" alignment-baseline="middle" fill="#aaa" >c27</text><text x="889.65515" y="2020.0" text-anchor="middle" alignment-baseline="middle" fill="#aaa" >c27</text><text x="931.0345" y="20.0" text-anchor="middle" alignment-baseline="middle" fill="#000" >c28</text><text x="931.0345" y="1020.0" text-anchor="middle" alignment-baseline="middle" fill="#aaa" >c28</text><text x="931.0345" y="2020.0" text-anchor="middle" alignment-baseline="middle" fill="#aaa" >c28</text><text x="972.4138" y="20.0" text-anchor="middle" alignment-baseline="middle" fill="#000" >c29</text><text x="972.4138" y="1020.0" text-anchor="middle" alignment-baseline="middle" fill="#aaa" >c29</text><text x="972.4138" y="2020.0" text-anchor="middle" alignment-baseline="middle" fill="#aaa" >c29</text><text x="1013.7931" y="20.0" text-anchor="middle" alignment-baseline="middle" fill="#000" >c30</text><text x="1013.7931" y="1020.0" text-anchor="middle" alignment-baseline="middle" fill="#aaa" >c30</text><text x="1013.7931" y="2020.0" text-anchor="middle" alignment-baseline="middle" fill="#aaa" >c30</text><text x="1055.1724" y="20.0" text-anchor="middle" alignment-baseline="middle" fill="#000" >c31</text><text x="1055.1724" y="1020.0" text-anchor="middle" alignment-baseline="middle" fill="#aaa" >c31</text><text x="1055.1724" y="2020.0" text-anchor="middle" alignment-baseline="middle" fill="#aaa" >c31</text><text x="1096.5518" y="20.0" text-anchor="middle" alignment-baseline="middle" fill="#000" >n0</text><text x="1096.5518" y="1020.0" text-anchor="middle" alignment-baseline="middle" fill="#aaa" >n0</text><text x="1096.5518" y="2020.0" text-anchor="middle" alignment-baseline="middle" fill="#aaa" >n0</text><text x="1137.931" y="20.0" text-anchor="middle" alignment-baseline="middle" fill="#000" >n1</text><text x="1137.931" y="1020.0" text-anchor="middle" alignment-baseline="middle" fill="#aaa" >n1</text><text x="1137.931" y="2020.0" text-anchor="middle" alignment-baseline="middle" fill="#aaa" >n1</text><text x="1179.3103" y="20.0" text-anchor="middle" alignment-baseline="middle" fill="#000" >n2</text><text x="1179.3103" y="1020.0" text-anchor="middle" alignment-baseline="middle" fill="#aaa" >n2</text><text x="1179.3103" y="2020.0" text-anchor="middle" alignment-baseline="middle" fill="#aaa" >n2</text></g><g ><line stroke="#ccc" x1="20.689655" y1="30.0" x2="20.689655" y2="2290.0" /><line stroke="#ccc" x1="62.068966" y1="30.0" x2="62.068966" y2="2290.0" /><line stroke="#ccc" x1="103.44827" y1="30.0" x2="103.44827" y2="2290.0" /><line stroke="#ccc" x1="144.82759" y1="30.0" x2="144.82759" y2="2290.0" /><line stroke="#ccc" x1="186.2069" y1="30.0" x2="186.2069" y2="2290.0" /><line stroke="#ccc" x1="227.58621" y1="30.0" x2="227.58621" y2="2290.0" /><line stroke="#ccc" x1="268.9655" y1="30.0" x2="268.9655" y2="2290.0" /><line stroke="#ccc" x1="310.34482" y1="30.0" x2="310.34482" y2="2290.0" /><line stroke="#ccc" x1="351.72415" y1="30.0" x2="351.72415" y2="2290.0" /><line stroke="#ccc" x1="393.10345" y1="30.0" x2="393.10345" y2="2290.0" /><line stroke="#ccc" x1="434.48276" y1="30.0" x2="434.48276" y2="2290.0" /><line stroke="#ccc" x1="475.86206" y1="30.0" x2="475.86206" y2="2290.0" /><line stroke="#ccc" x1="517.2414" y1="30.0" x2="517.2414" y2="2290.0" /><line stroke="#ccc" x1="558.62067" y1="30.0" x2="558.62067" y2="2290.0" /><line stroke="#ccc" x1="600.0" y1="30.0" x2="600.0" y2="2290.0" /><line stroke="#ccc" x1="641.37933" y1="30.0" x2="641.37933" y2="2290.0" /><line stroke="#ccc" x1="682.7586" y1="30.0" x2="682.7586" y2="2290.0" /><line stroke="#ccc" x1="724.13794" y1="30.0" x2="724.13794" y2="2290.0" /><line stroke="#ccc" x1="765.5172" y1="30.0" x2="765.5172" y2="2290.0" /><line stroke="#ccc" x1="806.89655" y1="30.0" x2="806.89655" y2="2290.0" /><line stroke="#ccc" x1="848.2759" y1="30.0" x2="848.2759" y2="2290.0" /><line stroke="#ccc" x1="889.65515" y1="30.0" x2="889.65515" y2="2290.0" /><line stroke="#ccc" x1="931.0345" y1="30.0" x2="931.0345" y2="2290.0" /><line stroke="#ccc" x1="972.4138" y1="30.0" x2="972.4138" y2="2290.0" /><line stroke="#ccc" x1="1013.7931" y1="30.0" x2="1013.7931" y2="2290.0" /><line stroke="#ccc" x1="1055.1724" y1="30.0" x2="1055.1724" y2="2290.0" /><line stroke="#ccc" x1="1096.5518" y1="30.0" x2="1096.5518" y2="2290.0" /><line stroke="#ccc" x1="1137.931" y1="30.0" x2="1137.931" y2="2290.0" /><line stroke="#ccc" x1="1179.3103" y1="30.0" x2="1179.3103" y2="2290.0" /></g><g ><g transform="translate(20.689655 50.0) rotate(0.9889361075179076) " ><rect x="0" y="-2.5" height="5" width="1154.7932536272747" fill="#81BFFC" ><title >c6 → n2 {:element 0, :type "remove", :msg_id 1}</title></rect><use xlink:href="#ahead" x="1158.7932536272747" y="0" /><text text-anchor="middle" x="579.3966268136373" y="-4" transform="" filter="url(#glow)" style="fill: #fff" >remove {:element 0}</text><text text-anchor="middle" x="579.3966268136373" y="-4" transform="" >remove {:element 0}</text></g><g transform="translate(1179.3103 90.0) rotate(179.0110638924821) " ><rect x="0" y="-2.5" height="5" width="1154.7932536272747" fill="#FF1E90" ><title >n2 → c6 {:msg_id 2, :in_reply_to 1, :type "error", :code 20, :message "element not in set"}</title></rect><use xlink:href="#ahead" x="1158.7932536272747" y="0" /><text text-anchor="middle" x="579.3966268136373" y="-4" transform="rotate(180 579.3966268136373 0)" filter="url(#glow)" style="fill: #fff" >error </text><text text-anchor="middle" x="579.3966268136373" y="-4" transform="rotate(180 579.3966268136373 0)" >error </text></g><g transform="translate(62.068966 130.0) rotate(1.0255556892954862) " ><rect x="0" y="-2.5" height="5" width="1113.4203348359779" fill="#81BFFC" ><title >c7 → n2 {:element 0, :type "remove", :msg_id 1}</title></rect><use xlink:href="#ahead" x="1117.4203348359779" y="0" /><text text-anchor="middle" x="558.7101674179889" y="-4" transform="" filter="url(#glow)" style="fill: #fff" >remove {:element 0}</text><text text-anchor="middle" x="558.7101674179889" y="-4" transform="" >remove {:element 0}</text></g><g transform="translate(1179.3103 170.0) rotate(178.9744443107045) " ><rect x="0" y="-2.5" height="5" width="1113.4203348359779" fill="#FF1E90" ><title >n2 → c7 {:msg_id 3, :in_reply_to 1, :type "error", :code 20, :message "element not in set"}</title></rect><use xlink:href="#ahead" x="1117.4203348359779" y="0" /><text text-anchor="middle" x="558.7101674179889" y="-4" transform="rotate(180 558.7101674179889 0)" filter="url(#glow)" style="fill: #fff" >error </text><text text-anchor="middle" x="558.7101674179889" y="-4" transform="rotate(180 558.7101674179889 0)" >error </text></g><g transform="translate(103.44827 210.0) rotate(1.1537173385886057) " ><rect x="0" y="-2.5" height="5" width="989.304853573417" fill="#81BFFC" ><title >c8 → n0 {:element 0, :type "add", :msg_id 1}</title></rect><use xlink:href="#ahead" x="993.304853573417" y="0" /><text text-anchor="middle" x="496.6524267867085" y="-4" transform="" filter="url(#glow)" style="fill: #fff" >add {:element 0}</text><text text-anchor="middle" x="496.6524267867085" y="-4" transform="" >add {:element 0}</text></g><g transform="translate(1096.5518 250.0) rotate(25.79604704690969) " ><rect x="0" y="-2.5" height="5" width="41.95915784037498" fill="#000" ><title >n0 → n1 {:msg_id 2, :type "fwd_add", :element 0, :id ["n0" 1], :r [], :vv {"n0" 1, "n1" 0, "n2" 0}}</title></rect><use xlink:href="#ahead" x="45.95915784037498" y="0" /><text text-anchor="middle" x="22.97957892018749" y="-4" transform="" filter="url(#glow)" style="fill: #fff" >fwd_add {:element 0, :id ["n0" 1], :r [], :vv {…</text><text text-anchor="middle" x="22.97957892018749" y="-4" transform="" >fwd_add {:element 0, :id ["n0" 1], :r [], :vv {…</text></g><g transform="translate(1096.5518 290.0) rotate(13.58600318522148) " ><rect x="0" y="-2.5" height="5" width="81.14092293125557" fill="#000" ><title >n0 → n2 {:msg_id 3, :type "fwd_add", :element 0, :id ["n0" 1], :r [], :vv {"n0" 1, "n1" 0, "n2" 0}}</title></rect><use xlink:href="#ahead" x="85.14092293125557" y="0" /><text text-anchor="middle" x="42.57046146562779" y="-4" transform="" filter="url(#glow)" style="fill: #fff" >fwd_add {:element 0, :id ["n0" 1], :r [], :vv {…</text><text text-anchor="middle" x="42.57046146562779" y="-4" transform="" >fwd_add {:element 0, :id ["n0" 1], :r [], :vv {…</text></g><g transform="translate(144.82759 330.0) rotate(1.1537173917539778) " ><rect x="0" y="-2.5" height="5" width="989.3048078063298" fill="#81BFFC" ><title >c9 → n1 {:type "read", :msg_id 1}</title></rect><use xlink:href="#ahead" x="993.3048078063298" y="0" /><text text-anchor="middle" x="496.6524039031649" y="-4" transform="" filter="url(#glow)" style="fill: #fff" >read {}</text><text text-anchor="middle" x="496.6524039031649" y="-4" transform="" >read {}</text></g><g transform="translate(1137.931 370.0) rotate(178.846282608246) " ><rect x="0" y="-2.5" height="5" width="989.3048078063298" fill="#81BFFC" ><title >n1 → c9 {:msg_id 2, :in_reply_to 1, :type "read_ok", :value {"0" [["n0" 1]]}}</title></rect><use xlink:href="#ahead" x="993.3048078063298" y="0" /><text text-anchor="middle" x="496.6524039031649" y="-4" transform="rotate(180 496.6524039031649 0)" filter="url(#glow)" style="fill: #fff" >read_ok {:value {"0" [["n0" 1]]}}</text><text text-anchor="middle" x="496.6524039031649" y="-4" transform="rotate(180 496.6524039031649 0)" >read_ok {:value {"0" [["n0" 1]]}}</text></g><g transform="translate(186.2069 410.0) rotate(1.2038645538153139) " ><rect x="0" y="-2.5" height="5" width="947.9342580850772" fill="#81BFFC" ><title >c10 → n1 {:type "read", :msg_id 1}</title></rect><use xlink:href="#ahead" x="951.9342580850772" y="0" /><text text-anchor="middle" x="475.9671290425386" y="-4" transform="" filter="url(#glow)" style="fill: #fff" >read {}</text><text text-anchor="middle" x="475.9671290425386" y="-4" transform="" >read {}</text></g><g transform="translate(1137.931 450.0) rotate(178.79613544618468) " ><rect x="0" y="-2.5" height="5" width="947.9342580850772" fill="#81BFFC" ><title >n1 → c10 {:msg_id 3, :in_reply_to 1, :type "read_ok", :value {"0" [["n0" 1]]}}</title></rect><use xlink:href="#ahead" x="951.9342580850772" y="0" /><text text-anchor="middle" x="475.9671290425386" y="-4" transform="rotate(180 475.9671290425386 0)" filter="url(#glow)" style="fill: #fff" >read_ok {:value {"0" [["n0" 1]]}}</text><text text-anchor="middle" x="475.9671290425386" y="-4" transform="rotate(180 475.9671290425386 0)" >read_ok {:value {"0" [["n0" 1]]}}</text></g><g transform="translate(227.58621 490.0) rotate(2.5159235463567735) " ><rect x="0" y="-2.5" height="5" width="907.2231822496941" fill="#81BFFC" ><title >c11 → n1 {:element 1, :type "add", :msg_id 1}</title></rect><use xlink:href="#ahead" x="911.2231822496941" y="0" /><text text-anchor="middle" x="455.61159112484705" y="-4" transform="" filter="url(#glow)" style="fill: #fff" >add {:element 1}</text><text text-anchor="middle" x="455.61159112484705" y="-4" transform="" >add {:element 1}</text></g><g transform="translate(268.9655 510.0) rotate(2.515923630589951) " ><rect x="0" y="-2.5" height="5" width="907.223151761533" fill="#81BFFC" ><title >c12 → n2 {:element 2, :type "add", :msg_id 1}</title></rect><use xlink:href="#ahead" x="911.223151761533" y="0" /><text text-anchor="middle" x="455.6115758807665" y="-4" transform="" filter="url(#glow)" style="fill: #fff" >add {:element 2}</text><text text-anchor="middle" x="455.6115758807665" y="-4" transform="" >add {:element 2}</text></g><g transform="translate(1179.3103 570.0) rotate(154.20395295309032) " ><rect x="0" y="-2.5" height="5" width="87.91831568074996" fill="#000" ><title >n2 → n0 {:msg_id 4, :type "fwd_add", :element 2, :id ["n2" 1], :r [], :vv {"n0" 1, "n1" 0, "n2" 3}}</title></rect><use xlink:href="#ahead" x="91.91831568074996" y="0" /><text text-anchor="middle" x="45.95915784037498" y="-4" transform="rotate(180 45.95915784037498 0)" filter="url(#glow)" style="fill: #fff" >fwd_add {:element 2, :id ["n2" 1], :r [], :vv {…</text><text text-anchor="middle" x="45.95915784037498" y="-4" transform="rotate(180 45.95915784037498 0)" >fwd_add {:element 2, :id ["n2" 1], :r [], :vv {…</text></g><g transform="translate(1179.3103 630.0) rotate(135.97099571820522) " ><rect x="0" y="-2.5" height="5" width="53.55209978268821" fill="#000" ><title >n2 → n1 {:msg_id 5, :type "fwd_add", :element 2, :id ["n2" 1], :r [], :vv {"n0" 1, "n1" 0, "n2" 3}}</title></rect><use xlink:href="#ahead" x="57.55209978268821" y="0" /><text text-anchor="middle" x="28.776049891344105" y="-4" transform="rotate(180 28.776049891344105 0)" filter="url(#glow)" style="fill: #fff" >fwd_add {:element 2, :id ["n2" 1], :r [], :vv {…</text><text text-anchor="middle" x="28.776049891344105" y="-4" transform="rotate(180 28.776049891344105 0)" >fwd_add {:element 2, :id ["n2" 1], :r [], :vv {…</text></g><g transform="translate(1137.931 650.0) rotate(44.02900428179479) " ><rect x="0" y="-2.5" height="5" width="53.55209978268821" fill="#000" ><title >n1 → n2 {:msg_id 5, :type "fwd_add", :element 1, :id ["n1" 1], :r [], :vv {"n0" 1, "n1" 1, "n2" 0}}</title></rect><use xlink:href="#ahead" x="57.55209978268821" y="0" /><text text-anchor="middle" x="28.776049891344105" y="-4" transform="" filter="url(#glow)" style="fill: #fff" >fwd_add {:element 1, :id ["n1" 1], :r [], :vv {…</text><text text-anchor="middle" x="28.776049891344105" y="-4" transform="" >fwd_add {:element 1, :id ["n1" 1], :r [], :vv {…</text></g><g transform="translate(1137.931 590.0) rotate(109.02558987157634) " ><rect x="0" y="-2.5" height="5" width="122.93401509995853" fill="#000" ><title >n1 → n0 {:msg_id 4, :type "fwd_add", :element 1, :id ["n1" 1], :r [], :vv {"n0" 1, "n1" 1, "n2" 0}}</title></rect><use xlink:href="#ahead" x="126.93401509995853" y="0" /><text text-anchor="middle" x="63.467007549979265" y="-4" transform="rotate(180 63.467007549979265 0)" filter="url(#glow)" style="fill: #fff" >fwd_add {:element 1, :id ["n1" 1], :r [], :vv {…</text><text text-anchor="middle" x="63.467007549979265" y="-4" transform="rotate(180 63.467007549979265 0)" >fwd_add {:element 1, :id ["n1" 1], :r [], :vv {…</text></g><g transform="translate(310.34482 730.0) rotate(1.4572098590106481) " ><rect x="0" y="-2.5" height="5" width="782.4612845068343" fill="#81BFFC" ><title >c13 → n0 {:type "read", :msg_id 1}</title></rect><use xlink:href="#ahead" x="786.4612845068343" y="0" /><text text-anchor="middle" x="393.23064225341716" y="-4" transform="" filter="url(#glow)" style="fill: #fff" >read {}</text><text text-anchor="middle" x="393.23064225341716" y="-4" transform="" >read {}</text></g><g transform="translate(1096.5518 770.0) rotate(178.54279014098935) " ><rect x="0" y="-2.5" height="5" width="782.4612845068343" fill="#81BFFC" ><title >n0 → c13 {:msg_id 4, :in_reply_to 1, :type "read_ok", :value {"0" [["n0" 1]], "1" [["n1" 1]]}}</title></rect><use xlink:href="#ahead" x="786.4612845068343" y="0" /><text text-anchor="middle" x="393.23064225341716" y="-4" transform="rotate(180 393.23064225341716 0)" filter="url(#glow)" style="fill: #fff" >read_ok {:value {"0" [["n0" 1]], "1" [["n1" 1]]…</text><text text-anchor="middle" x="393.23064225341716" y="-4" transform="rotate(180 393.23064225341716 0)" >read_ok {:value {"0" [["n0" 1]], "1" [["n1" 1]]…</text></g><g transform="translate(351.72415 810.0) rotate(1.5381281382778156) " ><rect x="0" y="-2.5" height="5" width="741.0960763279913" fill="#81BFFC" ><title >c14 → n0 {:type "read", :msg_id 1}</title></rect><use xlink:href="#ahead" x="745.0960763279913" y="0" /><text text-anchor="middle" x="372.54803816399567" y="-4" transform="" filter="url(#glow)" style="fill: #fff" >read {}</text><text text-anchor="middle" x="372.54803816399567" y="-4" transform="" >read {}</text></g><g transform="translate(1096.5518 850.0) rotate(178.4618718617222) " ><rect x="0" y="-2.5" height="5" width="741.0960763279913" fill="#81BFFC" ><title >n0 → c14 {:msg_id 5, :in_reply_to 1, :type "read_ok", :value {"0" [["n0" 1]], "1" [["n1" 1]]}}</title></rect><use xlink:href="#ahead" x="745.0960763279913" y="0" /><text text-anchor="middle" x="372.54803816399567" y="-4" transform="rotate(180 372.54803816399567 0)" filter="url(#glow)" style="fill: #fff" >read_ok {:value {"0" [["n0" 1]], "1" [["n1" 1]]…</text><text text-anchor="middle" x="372.54803816399567" y="-4" transform="rotate(180 372.54803816399567 0)" >read_ok {:value {"0" [["n0" 1]], "1" [["n1" 1]]…</text></g><g transform="translate(393.10345 890.0) rotate(1.6285588726881568) " ><rect x="0" y="-2.5" height="5" width="699.7325595045564" fill="#81BFFC" ><title >c15 → n0 {:element 1, :type "remove", :msg_id 1}</title></rect><use xlink:href="#ahead" x="703.7325595045564" y="0" /><text text-anchor="middle" x="351.8662797522782" y="-4" transform="" filter="url(#glow)" style="fill: #fff" >remove {:element 1}</text><text text-anchor="middle" x="351.8662797522782" y="-4" transform="" >remove {:element 1}</text></g><g transform="translate(434.48276 930.0) rotate(3.0740427353977045) " ><rect x="0" y="-2.5" height="5" width="741.9008459829182" fill="#81BFFC" ><title >c16 → n2 {:type "read", :msg_id 1}</title></rect><use xlink:href="#ahead" x="745.9008459829182" y="0" /><text text-anchor="middle" x="372.9504229914591" y="-4" transform="" filter="url(#glow)" style="fill: #fff" >read {}</text><text text-anchor="middle" x="372.9504229914591" y="-4" transform="" >read {}</text></g><g transform="translate(475.86206 950.0) rotate(3.457417352695243) " ><rect x="0" y="-2.5" height="5" width="659.2762024034873" fill="#81BFFC" ><title >c17 → n1 {:element 2, :type "remove", :msg_id 1}</title></rect><use xlink:href="#ahead" x="663.2762024034873" y="0" /><text text-anchor="middle" x="331.63810120174367" y="-4" transform="" filter="url(#glow)" style="fill: #fff" >remove {:element 2}</text><text text-anchor="middle" x="331.63810120174367" y="-4" transform="" >remove {:element 2}</text></g><g transform="translate(1137.931 1010.0) rotate(176.54258264730478) " ><rect x="0" y="-2.5" height="5" width="659.2762024034873" fill="#FF1E90" ><title >n1 → c17 {:msg_id 6, :in_reply_to 1, :type "error", :code 20, :message "element not in set"}</title></rect><use xlink:href="#ahead" x="663.2762024034873" y="0" /><text text-anchor="middle" x="331.63810120174367" y="-4" transform="rotate(180 331.63810120174367 0)" filter="url(#glow)" style="fill: #fff" >error </text><text text-anchor="middle" x="331.63810120174367" y="-4" transform="rotate(180 331.63810120174367 0)" >error </text></g><g transform="translate(1179.3103 1030.0) rotate(176.92595726460232) " ><rect x="0" y="-2.5" height="5" width="741.9008459829182" fill="#81BFFC" ><title >n2 → c16 {:msg_id 6, :in_reply_to 1, :type "read_ok", :value {"0" [["n0" 1]], "2" [["n2" 1]], "1" [["n1" 1]]}}</title></rect><use xlink:href="#ahead" x="745.9008459829182" y="0" /><text text-anchor="middle" x="372.9504229914591" y="-4" transform="rotate(180 372.9504229914591 0)" filter="url(#glow)" style="fill: #fff" >read_ok {:value {"0" [["n0" 1]], "2" [["n2" 1]]…</text><text text-anchor="middle" x="372.9504229914591" y="-4" transform="rotate(180 372.9504229914591 0)" >read_ok {:value {"0" [["n0" 1]], "2" [["n2" 1]]…</text></g><g transform="translate(517.2414 1090.0) rotate(1.8455588424721039) " ><rect x="0" y="-2.5" height="5" width="617.0117748673624" fill="#81BFFC" ><title >c18 → n1 {:element 3, :type "remove", :msg_id 1}</title></rect><use xlink:href="#ahead" x="621.0117748673624" y="0" /><text text-anchor="middle" x="310.5058874336812" y="-4" transform="" filter="url(#glow)" style="fill: #fff" >remove {:element 3}</text><text text-anchor="middle" x="310.5058874336812" y="-4" transform="" >remove {:element 3}</text></g><g transform="translate(1137.931 1130.0) rotate(178.1544411575279) " ><rect x="0" y="-2.5" height="5" width="617.0117748673624" fill="#FF1E90" ><title >n1 → c18 {:msg_id 7, :in_reply_to 1, :type "error", :code 20, :message "element not in set"}</title></rect><use xlink:href="#ahead" x="621.0117748673624" y="0" /><text text-anchor="middle" x="310.5058874336812" y="-4" transform="rotate(180 310.5058874336812 0)" filter="url(#glow)" style="fill: #fff" >error </text><text text-anchor="middle" x="310.5058874336812" y="-4" transform="rotate(180 310.5058874336812 0)" >error </text></g><g transform="translate(558.62067 1170.0) rotate(1.9772831930515717) " ><rect x="0" y="-2.5" height="5" width="575.6554990429976" fill="#81BFFC" ><title >c19 → n1 {:element 3, :type "add", :msg_id 1}</title></rect><use xlink:href="#ahead" x="579.6554990429976" y="0" /><text text-anchor="middle" x="289.8277495214988" y="-4" transform="" filter="url(#glow)" style="fill: #fff" >add {:element 3}</text><text text-anchor="middle" x="289.8277495214988" y="-4" transform="" >add {:element 3}</text></g><g transform="translate(1137.931 1210.0) rotate(154.20395295309032) " ><rect x="0" y="-2.5" height="5" width="41.95915784037498" fill="#000" ><title >n1 → n0 {:msg_id 8, :type "fwd_add", :element 3, :id ["n1" 2], :r [], :vv {"n0" 1, "n1" 4, "n2" 0}}</title></rect><use xlink:href="#ahead" x="45.95915784037498" y="0" /><text text-anchor="middle" x="22.97957892018749" y="-4" transform="rotate(180 22.97957892018749 0)" filter="url(#glow)" style="fill: #fff" >fwd_add {:element 3, :id ["n1" 2], :r [], :vv {…</text><text text-anchor="middle" x="22.97957892018749" y="-4" transform="rotate(180 22.97957892018749 0)" >fwd_add {:element 3, :id ["n1" 2], :r [], :vv {…</text></g><g transform="translate(1137.931 1250.0) rotate(25.79604704690969) " ><rect x="0" y="-2.5" height="5" width="41.95915784037498" fill="#000" ><title >n1 → n2 {:msg_id 9, :type "fwd_add", :element 3, :id ["n1" 2], :r [], :vv {"n0" 1, "n1" 4, "n2" 0}}</title></rect><use xlink:href="#ahead" x="45.95915784037498" y="0" /><text text-anchor="middle" x="22.97957892018749" y="-4" transform="" filter="url(#glow)" style="fill: #fff" >fwd_add {:element 3, :id ["n1" 2], :r [], :vv {…</text><text text-anchor="middle" x="22.97957892018749" y="-4" transform="" >fwd_add {:element 3, :id ["n1" 2], :r [], :vv {…</text></g><g transform="translate(600.0 1290.0) rotate(1.9772834012094314) " ><rect x="0" y="-2.5" height="5" width="575.6554380441826" fill="#81BFFC" ><title >c20 → n2 {:element 4, :type "remove", :msg_id 1}</title></rect><use xlink:href="#ahead" x="579.6554380441826" y="0" /><text text-anchor="middle" x="289.8277190220913" y="-4" transform="" filter="url(#glow)" style="fill: #fff" >remove {:element 4}</text><text text-anchor="middle" x="289.8277190220913" y="-4" transform="" >remove {:element 4}</text></g><g transform="translate(1179.3103 1330.0) rotate(178.02271659879057) " ><rect x="0" y="-2.5" height="5" width="575.6554380441826" fill="#FF1E90" ><title >n2 → c20 {:msg_id 7, :in_reply_to 1, :type "error", :code 20, :message "element not in set"}</title></rect><use xlink:href="#ahead" x="579.6554380441826" y="0" /><text text-anchor="middle" x="289.8277190220913" y="-4" transform="rotate(180 289.8277190220913 0)" filter="url(#glow)" style="fill: #fff" >error </text><text text-anchor="middle" x="289.8277190220913" y="-4" transform="rotate(180 289.8277190220913 0)" >error </text></g><g transform="translate(641.37933 1370.0) rotate(2.129247223094079) " ><rect x="0" y="-2.5" height="5" width="534.302635759511" fill="#81BFFC" ><title >c21 → n2 {:type "read", :msg_id 1}</title></rect><use xlink:href="#ahead" x="538.302635759511" y="0" /><text text-anchor="middle" x="269.1513178797555" y="-4" transform="" filter="url(#glow)" style="fill: #fff" >read {}</text><text text-anchor="middle" x="269.1513178797555" y="-4" transform="" >read {}</text></g><g transform="translate(1179.3103 1410.0) rotate(177.87075277690593) " ><rect x="0" y="-2.5" height="5" width="534.302635759511" fill="#81BFFC" ><title >n2 → c21 {:msg_id 8, :in_reply_to 1, :type "read_ok", :value {"0" [["n0" 1]], "2" [["n2" 1]], "1" [["n1" 1]]}}</title></rect><use xlink:href="#ahead" x="538.302635759511" y="0" /><text text-anchor="middle" x="269.1513178797555" y="-4" transform="rotate(180 269.1513178797555 0)" filter="url(#glow)" style="fill: #fff" >read_ok {:value {"0" [["n0" 1]], "2" [["n2" 1]]…</text><text text-anchor="middle" x="269.1513178797555" y="-4" transform="rotate(180 269.1513178797555 0)" >read_ok {:value {"0" [["n0" 1]], "2" [["n2" 1]]…</text></g><g transform="translate(682.7586 1450.0) rotate(2.3065000631093073) " ><rect x="0" y="-2.5" height="5" width="492.95431135312543" fill="#81BFFC" ><title >c22 → n2 {:element 4, :type "remove", :msg_id 1}</title></rect><use xlink:href="#ahead" x="496.95431135312543" y="0" /><text text-anchor="middle" x="248.47715567656272" y="-4" transform="" filter="url(#glow)" style="fill: #fff" >remove {:element 4}</text><text text-anchor="middle" x="248.47715567656272" y="-4" transform="" >remove {:element 4}</text></g><g transform="translate(1179.3103 1490.0) rotate(177.69349993689073) " ><rect x="0" y="-2.5" height="5" width="492.95431135312543" fill="#FF1E90" ><title >n2 → c22 {:msg_id 9, :in_reply_to 1, :type "error", :code 20, :message "element not in set"}</title></rect><use xlink:href="#ahead" x="496.95431135312543" y="0" /><text text-anchor="middle" x="248.47715567656272" y="-4" transform="rotate(180 248.47715567656272 0)" filter="url(#glow)" style="fill: #fff" >error </text><text text-anchor="middle" x="248.47715567656272" y="-4" transform="rotate(180 248.47715567656272 0)" >error </text></g><g transform="translate(724.13794 1530.0) rotate(2.515923799056323) " ><rect x="0" y="-2.5" height="5" width="451.6115453926055" fill="#81BFFC" ><title >c23 → n2 {:element 5, :type "remove", :msg_id 1}</title></rect><use xlink:href="#ahead" x="455.6115453926055" y="0" /><text text-anchor="middle" x="227.80577269630274" y="-4" transform="" filter="url(#glow)" style="fill: #fff" >remove {:element 5}</text><text text-anchor="middle" x="227.80577269630274" y="-4" transform="" >remove {:element 5}</text></g><g transform="translate(1179.3103 1570.0) rotate(177.4840762009437) " ><rect x="0" y="-2.5" height="5" width="451.6115453926055" fill="#FF1E90" ><title >n2 → c23 {:msg_id 10, :in_reply_to 1, :type "error", :code 20, :message "element not in set"}</title></rect><use xlink:href="#ahead" x="455.6115453926055" y="0" /><text text-anchor="middle" x="227.80577269630274" y="-4" transform="rotate(180 227.80577269630274 0)" filter="url(#glow)" style="fill: #fff" >error </text><text text-anchor="middle" x="227.80577269630274" y="-4" transform="rotate(180 227.80577269630274 0)" >error </text></g><g transform="translate(765.5172 1610.0) rotate(2.7671426506597387) " ><rect x="0" y="-2.5" height="5" width="410.2761422175158" fill="#81BFFC" ><title >c24 → n2 {:type "read", :msg_id 1}</title></rect><use xlink:href="#ahead" x="414.2761422175158" y="0" /><text text-anchor="middle" x="207.1380711087579" y="-4" transform="" filter="url(#glow)" style="fill: #fff" >read {}</text><text text-anchor="middle" x="207.1380711087579" y="-4" transform="" >read {}</text></g><g transform="translate(1179.3103 1650.0) rotate(177.23285734934026) " ><rect x="0" y="-2.5" height="5" width="410.2761422175158" fill="#81BFFC" ><title >n2 → c24 {:msg_id 11, :in_reply_to 1, :type "read_ok", :value {"0" [["n0" 1]], "2" [["n2" 1]], "1" [["n1" 1]]}}</title></rect><use xlink:href="#ahead" x="414.2761422175158" y="0" /><text text-anchor="middle" x="207.1380711087579" y="-4" transform="rotate(180 207.1380711087579 0)" filter="url(#glow)" style="fill: #fff" >read_ok {:value {"0" [["n0" 1]], "2" [["n2" 1]]…</text><text text-anchor="middle" x="207.1380711087579" y="-4" transform="rotate(180 207.1380711087579 0)" >read_ok {:value {"0" [["n0" 1]], "2" [["n2" 1]]…</text></g><g transform="translate(806.89655 1690.0) rotate(3.074042861107902) " ><rect x="0" y="-2.5" height="5" width="368.9504077546264" fill="#81BFFC" ><title >c25 → n2 {:element 4, :type "add", :msg_id 1}</title></rect><use xlink:href="#ahead" x="372.9504077546264" y="0" /><text text-anchor="middle" x="186.4752038773132" y="-4" transform="" filter="url(#glow)" style="fill: #fff" >add {:element 4}</text><text text-anchor="middle" x="186.4752038773132" y="-4" transform="" >add {:element 4}</text></g><g transform="translate(1179.3103 1730.0) rotate(166.41399681477853) " ><rect x="0" y="-2.5" height="5" width="81.14092293125557" fill="#000" ><title >n2 → n0 {:msg_id 12, :type "fwd_add", :element 4, :id ["n2" 2], :r [], :vv {"n0" 1, "n1" 1, "n2" 7}}</title></rect><use xlink:href="#ahead" x="85.14092293125557" y="0" /><text text-anchor="middle" x="42.57046146562779" y="-4" transform="rotate(180 42.57046146562779 0)" filter="url(#glow)" style="fill: #fff" >fwd_add {:element 4, :id ["n2" 2], :r [], :vv {…</text><text text-anchor="middle" x="42.57046146562779" y="-4" transform="rotate(180 42.57046146562779 0)" >fwd_add {:element 4, :id ["n2" 2], :r [], :vv {…</text></g><g transform="translate(1179.3103 1770.0) rotate(154.20395295309032) " ><rect x="0" y="-2.5" height="5" width="41.95915784037498" fill="#000" ><title >n2 → n1 {:msg_id 13, :type "fwd_add", :element 4, :id ["n2" 2], :r [], :vv {"n0" 1, "n1" 1, "n2" 7}}</title></rect><use xlink:href="#ahead" x="45.95915784037498" y="0" /><text text-anchor="middle" x="22.97957892018749" y="-4" transform="rotate(180 22.97957892018749 0)" filter="url(#glow)" style="fill: #fff" >fwd_add {:element 4, :id ["n2" 2], :r [], :vv {…</text><text text-anchor="middle" x="22.97957892018749" y="-4" transform="rotate(180 22.97957892018749 0)" >fwd_add {:element 4, :id ["n2" 2], :r [], :vv {…</text></g><g transform="translate(848.2759 1810.0) rotate(4.605548114782776) " ><rect x="0" y="-2.5" height="5" width="245.08013177825106" fill="#81BFFC" ><title >c26 → n0 {:element 5, :type "add", :msg_id 1}</title></rect><use xlink:href="#ahead" x="249.08013177825106" y="0" /><text text-anchor="middle" x="124.54006588912553" y="-4" transform="" filter="url(#glow)" style="fill: #fff" >add {:element 5}</text><text text-anchor="middle" x="124.54006588912553" y="-4" transform="" >add {:element 5}</text></g><g transform="translate(889.65515 1850.0) rotate(4.605548114782776) " ><rect x="0" y="-2.5" height="5" width="245.08013177825106" fill="#81BFFC" ><title >c27 → n1 {:element 6, :type "add", :msg_id 1}</title></rect><use xlink:href="#ahead" x="249.08013177825106" y="0" /><text text-anchor="middle" x="124.54006588912553" y="-4" transform="" filter="url(#glow)" style="fill: #fff" >add {:element 6}</text><text text-anchor="middle" x="124.54006588912553" y="-4" transform="" >add {:element 6}</text></g><g transform="translate(1137.931 1890.0) rotate(154.20395295309032) " ><rect x="0" y="-2.5" height="5" width="41.95915784037498" fill="#000" ><title >n1 → n0 {:msg_id 10, :type "fwd_add", :element 6, :id ["n1" 3], :r [], :vv {"n0" 1, "n1" 5, "n2" 0}}</title></rect><use xlink:href="#ahead" x="45.95915784037498" y="0" /><text text-anchor="middle" x="22.97957892018749" y="-4" transform="rotate(180 22.97957892018749 0)" filter="url(#glow)" style="fill: #fff" >fwd_add {:element 6, :id ["n1" 3], :r [], :vv {…</text><text text-anchor="middle" x="22.97957892018749" y="-4" transform="rotate(180 22.97957892018749 0)" >fwd_add {:element 6, :id ["n1" 3], :r [], :vv {…</text></g><g transform="translate(1137.931 1930.0) rotate(25.79604704690969) " ><rect x="0" y="-2.5" height="5" width="41.95915784037498" fill="#000" ><title >n1 → n2 {:msg_id 11, :type "fwd_add", :element 6, :id ["n1" 3], :r [], :vv {"n0" 1, "n1" 5, "n2" 0}}</title></rect><use xlink:href="#ahead" x="45.95915784037498" y="0" /><text text-anchor="middle" x="22.97957892018749" y="-4" transform="" filter="url(#glow)" style="fill: #fff" >fwd_add {:element 6, :id ["n1" 3], :r [], :vv {…</text><text text-anchor="middle" x="22.97957892018749" y="-4" transform="" >fwd_add {:element 6, :id ["n1" 3], :r [], :vv {…</text></g><g transform="translate(931.0345 1970.0) rotate(4.605549242122009) " ><rect x="0" y="-2.5" height="5" width="245.0800709401708" fill="#81BFFC" ><title >c28 → n2 {:element 7, :type "add", :msg_id 1}</title></rect><use xlink:href="#ahead" x="249.0800709401708" y="0" /><text text-anchor="middle" x="124.5400354700854" y="-4" transform="" filter="url(#glow)" style="fill: #fff" >add {:element 7}</text><text text-anchor="middle" x="124.5400354700854" y="-4" transform="" >add {:element 7}</text></g><g transform="translate(1179.3103 2010.0) rotate(166.41399681477853) " ><rect x="0" y="-2.5" height="5" width="81.14092293125557" fill="#000" ><title >n2 → n0 {:msg_id 14, :type "fwd_add", :element 7, :id ["n2" 3], :r [], :vv {"n0" 1, "n1" 1, "n2" 8}}</title></rect><use xlink:href="#ahead" x="85.14092293125557" y="0" /><text text-anchor="middle" x="42.57046146562779" y="-4" transform="rotate(180 42.57046146562779 0)" filter="url(#glow)" style="fill: #fff" >fwd_add {:element 7, :id ["n2" 3], :r [], :vv {…</text><text text-anchor="middle" x="42.57046146562779" y="-4" transform="rotate(180 42.57046146562779 0)" >fwd_add {:element 7, :id ["n2" 3], :r [], :vv {…</text></g><g transform="translate(1179.3103 2050.0) rotate(154.20395295309032) " ><rect x="0" y="-2.5" height="5" width="41.95915784037498" fill="#000" ><title >n2 → n1 {:msg_id 15, :type "fwd_add", :element 7, :id ["n2" 3], :r [], :vv {"n0" 1, "n1" 1, "n2" 8}}</title></rect><use xlink:href="#ahead" x="45.95915784037498" y="0" /><text text-anchor="middle" x="22.97957892018749" y="-4" transform="rotate(180 22.97957892018749 0)" filter="url(#glow)" style="fill: #fff" >fwd_add {:element 7, :id ["n2" 3], :r [], :vv {…</text><text text-anchor="middle" x="22.97957892018749" y="-4" transform="rotate(180 22.97957892018749 0)" >fwd_add {:element 7, :id ["n2" 3], :r [], :vv {…</text></g><g transform="translate(1013.7931 2090.0) rotate(19.92558392616137) " ><rect x="0" y="-2.5" height="5" width="172.05665974283585" fill="#81BFFC" ><title >c30 → n2 {:type "read", :msg_id 1}</title></rect><use xlink:href="#ahead" x="176.05665974283585" y="0" /><text text-anchor="middle" x="88.02832987141792" y="-4" transform="" filter="url(#glow)" style="fill: #fff" >read {}</text><text text-anchor="middle" x="88.02832987141792" y="-4" transform="" >read {}</text></g><g transform="translate(972.4138 2130.0) rotate(13.585993536813064) " ><rect x="0" y="-2.5" height="5" width="166.2819645171052" fill="#81BFFC" ><title >c29 → n1 {:type "read", :msg_id 1}</title></rect><use xlink:href="#ahead" x="170.2819645171052" y="0" /><text text-anchor="middle" x="85.1409822585526" y="-4" transform="" filter="url(#glow)" style="fill: #fff" >read {}</text><text text-anchor="middle" x="85.1409822585526" y="-4" transform="" >read {}</text></g><g transform="translate(1055.1724 2110.0) rotate(62.650076652104026) " ><rect x="0" y="-2.5" height="5" width="86.068053669283" fill="#81BFFC" ><title >c31 → n0 {:type "read", :msg_id 1}</title></rect><use xlink:href="#ahead" x="90.068053669283" y="0" /><text text-anchor="middle" x="45.0340268346415" y="-4" transform="" filter="url(#glow)" style="fill: #fff" >read {}</text><text text-anchor="middle" x="45.0340268346415" y="-4" transform="" >read {}</text></g><g transform="translate(1137.931 2210.0) rotate(166.41400646318695) " ><rect x="0" y="-2.5" height="5" width="166.2819645171052" fill="#81BFFC" ><title >n1 → c29 {:msg_id 12, :in_reply_to 1, :type "read_ok", :value {"0" [["n0" 1]], "1" [["n1" 1]], "3" [["n1" 2]], "6" [["n1" 3]]}}</title></rect><use xlink:href="#ahead" x="170.2819645171052" y="0" /><text text-anchor="middle" x="85.1409822585526" y="-4" transform="rotate(180 85.1409822585526 0)" filter="url(#glow)" style="fill: #fff" >read_ok {:value {"0" [["n0" 1]], "1" [["n1" 1]]…</text><text text-anchor="middle" x="85.1409822585526" y="-4" transform="rotate(180 85.1409822585526 0)" >read_ok {:value {"0" [["n0" 1]], "1" [["n1" 1]]…</text></g><g transform="translate(1179.3103 2230.0) rotate(166.41400646318695) " ><rect x="0" y="-2.5" height="5" width="166.2819645171052" fill="#81BFFC" ><title >n2 → c30 {:msg_id 16, :in_reply_to 1, :type "read_ok", :value {"0" [["n0" 1]], "2" [["n2" 1]], "1" [["n1" 1]], "4" [["n2" 2]], "7" [["n2" 3]]}}</title></rect><use xlink:href="#ahead" x="170.2819645171052" y="0" /><text text-anchor="middle" x="85.1409822585526" y="-4" transform="rotate(180 85.1409822585526 0)" filter="url(#glow)" style="fill: #fff" >read_ok {:value {"0" [["n0" 1]], "2" [["n2" 1]]…</text><text text-anchor="middle" x="85.1409822585526" y="-4" transform="rotate(180 85.1409822585526 0)" >read_ok {:value {"0" [["n0" 1]], "2" [["n2" 1]]…</text></g></g></svg>